<svg version="1.1" xmlns="http://www.w3.org/2000/svg" xmlns:xlink="http://www.w3.org/1999/xlink" width="35.99762" height="29.70167" viewBox="0,0,35.99762,29.70167"><g transform="translate(-110.91323,-139.2674)"><g data-paper-data="{&quot;isPaintingLayer&quot;:true}" fill="#000000" fill-rule="nonzero" stroke="#ffffff" stroke-width="1.15823" stroke-linecap="butt" stroke-linejoin="miter" stroke-miterlimit="10" stroke-dasharray="" stroke-dashoffset="0" style="mix-blend-mode: normal"><path d="M127.92536,163.06307c1.21881,1.21761 1.21881,3.19379 0,4.41235c-1.21824,1.21938 -3.19385,1.21938 -4.41323,0c-4.81103,-4.8111 -11.10591,-11.10623 -11.10591,-11.10623c-1.21849,-1.21824 -1.21849,-3.19411 0,-4.41292c0,0 7.29441,-7.29523 11.19552,-11.19577c1.21849,-1.21881 3.19385,-1.21849 4.41323,0c1.21875,1.21849 1.21875,3.19411 0,4.41292c-4.8111,4.81078 -5.85398,5.86617 -5.85398,5.86617c0,0 15.5338,0.00645 21.05014,0.00645c1.72353,0 3.12061,1.39683 3.12061,3.12036c0,1.72322 -1.39708,3.12061 -3.12061,3.12061c-6.57969,0 -21.06707,-0.00613 -21.06707,-0.00613c0,0 1.88013,1.87988 5.7813,5.78219z" data-paper-data="{&quot;origPos&quot;:null,&quot;index&quot;:null}" id="ID0.6278323931619525"/></g></g></svg>