<svg version="1.1" xmlns="http://www.w3.org/2000/svg" xmlns:xlink="http://www.w3.org/1999/xlink" width="215.24376" height="91.72989" viewBox="0,0,215.24376,91.72989"><g transform="translate(-197.25025,-163.2501)"><g data-paper-data="{&quot;isPaintingLayer&quot;:true}" stroke="none" stroke-width="1" stroke-linecap="butt" stroke-linejoin="miter" stroke-miterlimit="10" stroke-dasharray="" stroke-dashoffset="0" style="mix-blend-mode: normal"><path d="M256.01486,192.14c1.59082,-0.884 -1.43803,-27.188 -1.43803,-27.188l52.04946,28.11l9.9242,-26.125l8.88523,21.671l54.78891,-10.58l-19.63988,20.492l51.90925,24.59l-65.89769,-0.642l3.15288,23.824l-38.71354,-10.814l-3.48363,19.502l-10.44908,-19.47l-38.95261,17.848l5.70178,-17.865l-53.05788,3.93l35.87883,-15.489l-27.71082,-12.535l25.25898,-4.564l-27.88698,-19.55z" fill="#fec40e" fill-rule="evenodd"/><path d="M316.5505,166.937c0.4422,0.893 0.89338,1.786 1.31221,2.683l1.27445,2.687c0.42961,0.896 0.84844,1.792 1.25288,2.691l1.22772,2.694c0.79091,1.8 1.6088,3.596 2.37814,5.398c0.76934,1.802 1.56386,3.601 2.31164,5.406l-1.16481,-0.36l6.84143,-1.336c2.27568,-0.45 4.56754,-0.878 6.85041,-1.317l6.863,-1.303l6.87378,-1.282l6.88636,-1.26l6.90253,-1.236c2.29905,-0.415 4.61607,-0.801 6.92412,-1.202c2.30804,-0.4 4.61967,-0.795 6.94208,-1.172c-2.24332,0.504 -4.49743,0.99 -6.75694,1.472c-2.2577,0.481 -4.50643,0.977 -6.77311,1.444l-6.79468,1.407l-6.81086,1.386l-6.82345,1.364l-6.83782,1.34c-2.28107,0.444 -4.55496,0.897 -6.84502,1.33l-6.8558,1.308l-0.00539,0.001c-0.2401,0.04611 -0.50415,0.03307 -0.72589,-0.03587c-0.22174,-0.06894 -0.38008,-0.18721 -0.43532,-0.32514c-0.73339,-1.807 -1.42006,-3.62 -2.13188,-5.43c-0.71002,-1.809 -1.37332,-3.625 -2.06178,-5.437l-0.99584,-2.724c-0.33411,-0.9077 -0.65648,-1.81672 -0.96707,-2.727l-0.9455,-2.73c-0.32355,-0.909 -0.61296,-1.822 -0.90956,-2.734M254.57683,164.952c2.24982,1.12355 4.48482,2.25624 6.70481,3.398c2.22535,1.14 4.46328,2.27 6.66887,3.421l6.61853,3.45l6.58797,3.465l6.561,3.482l6.52865,3.5l6.51247,3.51l6.48731,3.525l-1.49375,0.254l2.57407,-6.52l2.63878,-6.512c0.91315,-2.167 1.79214,-4.338 2.74124,-6.5l1.40388,-3.246c0.46017,-1.083 0.95449,-2.162 1.43803,-3.242c-0.34153,1.097 -0.67228,2.195 -1.04077,3.289l-1.07853,3.284c-0.70284,2.192 -1.47757,4.375 -2.21995,6.562l-2.32241,6.55l-2.38713,6.542c-0.0646,0.17634 -0.29613,0.31929 -0.60471,0.37332c-0.30857,0.05403 -0.64554,0.01065 -0.88005,-0.11332l-0.01079,-0.005l-6.52506,-3.503l-6.49809,-3.517l-6.48372,-3.528l-6.45135,-3.545l-6.4226,-3.561l-6.39384,-3.58c-2.13367,-1.19 -4.2314,-2.402 -6.3453,-3.605c-2.11803,-1.20095 -4.22061,-2.41032 -6.30756,-3.628" fill="#414549" fill-rule="evenodd"/><path d="M216.33425,187.285c3.34521,0.306 6.67965,0.642 10.01048,0.985l4.98997,0.528c1.66452,0.175 3.32544,0.356 4.98636,0.543c3.32185,0.365 6.6401,0.74 9.95296,1.127l4.97019,0.579l4.96479,0.596l-0.83765,0.136c-0.17077,0.104 -0.08628,0.075 -0.08448,0.032c0.02355,-0.05175 0.04216,-0.10416 0.05573,-0.157c0.03595,-0.12 0.05932,-0.252 0.08089,-0.385c0.03955,-0.268 0.06651,-0.545 0.08269,-0.823c0.03055,-0.556 0.04494,-1.12 0.04853,-1.682c0.00898,-1.129 -0.02337,-2.26 -0.0683,-3.392l-0.1492,-3.4l-0.17975,-3.4l-0.34333,-6.807l-0.14381,-3.405l-0.09167,-3.408c0.23548,1.129 0.44938,2.258 0.64892,3.39c0.19234,1.13 0.38288,2.262 0.55544,3.394c0.34512,2.263 0.64172,4.53 0.89877,6.797c0.13481,1.134 0.23368,2.269 0.34153,3.404c0.21716,2.2738 0.34123,4.55005 0.37208,6.827c0.00359,0.571 0,1.143 -0.04494,1.721c-0.02157,0.29 -0.05212,0.58 -0.10067,0.877c-0.02516,0.15 -0.05393,0.3 -0.10246,0.46c-0.02516,0.08 -0.05393,0.163 -0.10067,0.259c-0.01438,0.04 -0.05752,0.105 -0.09887,0.163c-0.06903,0.09396 -0.16764,0.18032 -0.2912,0.255c-0.2074,0.1232 -0.51623,0.17641 -0.81248,0.14l-0.02516,-0.003l-4.95581,-0.618l-4.94862,-0.635c-3.30039,-0.42169 -6.59594,-0.85504 -9.88645,-1.3c-1.64654,-0.218 -3.29129,-0.442 -4.93424,-0.67l-4.92885,-0.687c-3.28578,-0.4614 -6.56287,-0.94176 -9.83072,-1.441M218.96404,211.398c2.05877,-0.45705 4.12729,-0.90042 6.2051,-1.33c2.07255,-0.434 4.1559,-0.852 6.23745,-1.271l6.26261,-1.231l6.28239,-1.194l-0.41343,0.766l-3.51418,-2.431c-1.1684,-0.812 -2.34399,-1.62 -3.49261,-2.44l-3.46385,-2.454l-3.4261,-2.47c-1.14683,-0.822 -2.27029,-1.654 -3.39735,-2.484c-1.13065,-0.828 -2.24692,-1.663 -3.356,-2.5c-2.23379,-1.6715 -4.4187,-3.36306 -6.55382,-5.074c2.51655,1.543 4.9684,3.116 7.38967,4.701c1.21472,0.7908 2.4191,1.58648 3.61305,2.387c1.19895,0.799 2.39971,1.597 3.5771,2.404l3.54654,2.417l3.507,2.434c1.17559,0.809 2.32421,1.63 3.48003,2.447l3.45666,2.456l0.01079,0.01c0.17521,0.12482 0.22904,0.28955 0.14399,0.44067c-0.08505,0.15113 -0.29813,0.26938 -0.57,0.31633l-6.3453,1.087l-6.36687,1.051c-2.12828,0.34 -4.25297,0.684 -6.39024,1.01c-2.13188,0.332 -4.27454,0.647 -6.42439,0.952M210.79424,239.422c1.42724,-0.695 2.86528,-1.38 4.3105,-2.062l4.35903,-2.027l4.38599,-2.007l4.41115,-1.99l4.43812,-1.97c1.47643,-0.65851 2.96123,-1.3112 4.45429,-1.958l4.47047,-1.946l4.49384,-1.93l-0.01618,0.794c-2.30672,-1.04645 -4.59984,-2.10214 -6.87917,-3.167l-3.42431,-1.594l-3.40274,-1.609c-1.13783,-0.533 -2.26489,-1.076 -3.39015,-1.617l-3.37218,-1.63c-2.2452,-1.08938 -4.46829,-2.19279 -6.66887,-3.31c2.41508,0.96974 4.81015,1.9548 7.18476,2.955l3.55553,1.505c1.18099,0.503 2.36556,1.005 3.53755,1.515l3.52318,1.525l3.5052,1.54c2.33804,1.02409 4.66292,2.05745 6.97444,3.1c0.21518,0.09677 0.33949,0.24278 0.33773,0.39671c-0.00175,0.15393 -0.12935,0.29905 -0.34672,0.39429l-0.00719,0.004l-4.47586,1.943l-4.49924,1.925c-1.49555,0.644 -3.00188,1.282 -4.51541,1.914l-4.52979,1.902l-4.56035,1.883l-4.58371,1.865l-4.61248,1.844c-1.54588,0.61 -3.09536,1.215 -4.65742,1.812" fill="#414549" fill-rule="evenodd"/><path d="M258.15033,253.357c0.33255,-1.502 0.68306,-3.003 1.07133,-4.501c0.37029,-1.499 0.78013,-2.995 1.18099,-4.49l1.25827,-4.484l1.32658,-4.476l0.98145,0.573l-6.62752,0.509c-2.21097,0.17 -4.42014,0.339 -6.63291,0.493l-6.63471,0.477l-6.64369,0.448c-2.21277,0.153 -4.43092,0.287 -6.64728,0.426c-2.21636,0.143 -4.43452,0.273 -6.65448,0.401c-2.21816,0.133 -4.43992,0.249 -6.66167,0.369c-2.22262,0.11637 -4.44683,0.22303 -6.67246,0.32c2.1939,-0.23103 4.39116,-0.45204 6.59157,-0.663c2.20018,-0.207 4.39857,-0.419 6.60235,-0.613c2.20199,-0.2 4.40576,-0.397 6.61134,-0.582c2.20558,-0.188 4.40935,-0.381 6.61673,-0.556l6.62392,-0.534l6.62752,-0.506c2.20919,-0.17037 4.4202,-0.33337 6.63291,-0.489l6.6383,-0.473h0.01438c0.2768,-0.01938 0.55354,0.0361 0.74449,0.14925c0.19095,0.11315 0.27302,0.2703 0.22079,0.42275l-1.52431,4.457l-1.59442,4.45c-0.55005,1.48 -1.0911,2.963 -1.67171,4.441c-0.56656,1.48027 -1.15978,2.95735 -1.77956,4.431" fill="#414549" fill-rule="evenodd"/><path d="M307.55383,254.98c-1.02577,-1.59597 -2.02226,-3.19772 -2.98931,-4.805l-1.43983,-2.411l-1.42006,-2.415c-0.92393,-1.614 -1.87303,-3.223 -2.7682,-4.842c-0.90056,-1.617 -1.82271,-3.231 -2.69451,-4.854l1.43263,0.244l-4.85335,2.242l-4.88211,2.223c-1.63037,0.738 -3.24995,1.484 -4.89469,2.214l-4.91626,2.198c-3.29007,1.45808 -6.59641,2.90478 -9.9188,4.34c-3.32029,1.43851 -6.67357,2.85329 -10.05901,4.244c3.10289,-1.5824 6.24225,-3.14253 9.4173,-4.68c3.1687,-1.53936 6.35459,-3.06772 9.5575,-4.585l4.821,-2.264c1.6016,-0.758 3.22838,-1.5 4.84436,-2.248l4.85694,-2.239l4.88571,-2.22l0.0018,-0.002c0.23317,-0.10553 0.54573,-0.13923 0.83289,-0.0898c0.28716,0.04943 0.51087,0.17545 0.59615,0.3358c0.87181,1.622 1.68968,3.253 2.53093,4.88c0.84664,1.628 1.63935,3.263 2.45724,4.895l1.19356,2.452l1.1702,2.456c0.77294,1.64 1.52431,3.282 2.23793,4.931" fill="#414549" fill-rule="evenodd"/><path d="M349.74919,246.291c-1.66102,-0.39623 -3.31601,-0.80024 -4.96479,-1.212l-4.93244,-1.248l-4.91087,-1.272l-4.89289,-1.292l-4.87312,-1.313c-1.62497,-0.438 -3.24995,-0.876 -4.86414,-1.326c-3.23197,-0.893 -6.47113,-1.78 -9.68333,-2.697l1.31221,-0.404l-0.45477,2.438l-0.48713,2.434c-0.32249,1.62364 -0.66524,3.24601 -1.02819,4.867c-0.17436,0.811 -0.35951,1.621 -0.55364,2.431l-0.5788,2.43c-0.39436,1.6204 -0.8228,3.23818 -1.28523,4.853c0.11144,-1.635 0.27862,-3.268 0.45838,-4.898l0.28941,-2.447c0.09887,-0.815 0.20132,-1.63 0.31816,-2.444c0.22109,-1.63 0.45298,-3.257 0.71363,-4.884l0.38288,-2.441l0.41343,-2.44c0.0269,-0.16527 0.1983,-0.31258 0.45832,-0.39389c0.26002,-0.08131 0.57532,-0.08622 0.84309,-0.01311l0.01259,0.004c3.23916,0.887 6.45315,1.801 9.67255,2.71c1.61239,0.452 3.21399,0.915 4.81739,1.378l4.80302,1.391l4.78504,1.412l4.76707,1.431l4.74909,1.455c1.57464,0.49 3.14928,0.987 4.71315,1.491" fill="#414549" fill-rule="evenodd"/><path d="M412.4922,223.109c-2.74663,0.042 -5.49507,0.063 -8.2417,0.081c-2.74663,0.018 -5.49507,0.047 -8.2417,0.048c-2.74663,0.007 -5.49327,0.017 -8.2399,0.011l-8.23811,-0.013l-8.2399,-0.037l-8.23811,-0.062c-5.49147,-0.035 -10.98115,-0.112 -16.47442,-0.172l0.90417,-0.534l0.69206,5.96l0.62374,5.963c0.17975,1.989 0.38647,3.977 0.52488,5.966l0.23188,2.986c0.08448,0.994 0.13301,1.99 0.19234,2.985c-0.20313,-0.989 -0.41703,-1.978 -0.59498,-2.97l-0.55723,-2.97c-0.38647,-1.98 -0.70463,-3.964 -1.05336,-5.945l-0.9527,-5.95l-0.88439,-5.951c-0.01991,-0.13037 0.05416,-0.25979 0.20588,-0.35976c0.15173,-0.09997 0.36865,-0.1623 0.60301,-0.17324h0.09347c5.49327,0.047 10.98474,0.077 16.47622,0.149l8.23631,0.097l8.23631,0.125l8.23451,0.146c2.74663,0.048 5.48968,0.111 8.23451,0.171c2.74484,0.055 5.48968,0.138 8.23272,0.209c2.74484,0.071 5.48968,0.146 8.23272,0.241" fill="#414549" fill-rule="evenodd"/><path d="M380.22462,178.027c-0.75856,0.872 -1.50454,1.748 -2.28287,2.613l-2.31882,2.603c-1.52791,1.739 -3.10974,3.462 -4.67899,5.19l-4.76168,5.168l-4.82279,5.15l-0.20492,-0.607l6.50888,3.06c2.17234,1.01862 4.336,2.04297 6.4909,3.073l6.47113,3.085l6.43698,3.107c2.15165,1.033 4.27814,2.08 6.41362,3.123c2.13608,1.04271 4.2638,2.09072 6.38305,3.144c2.13008,1.046 4.2296,2.112 6.33811,3.173c2.11353,1.05774 4.21252,2.12444 6.29677,3.2c-2.24029,-0.97299 -4.4669,-1.95569 -6.67965,-2.948c-2.21816,-0.988 -4.44531,-1.972 -6.64189,-2.974c-2.2062,-0.9956 -4.40402,-1.99695 -6.59336,-3.004c-2.19299,-1.007 -4.38958,-2.008 -6.56461,-3.025l-6.54124,-3.04l-6.50529,-3.062c-2.17064,-1.01957 -4.33251,-2.04492 -6.48551,-3.076l-6.46933,-3.087l-0.00898,-0.004c-0.31261,-0.1497 -0.39498,-0.40048 -0.19773,-0.602l4.99895,-5.096l5.06007,-5.079c1.70586,-1.687 3.39735,-3.378 5.13916,-5.055l2.59385,-2.52c0.85742,-0.841 1.749,-1.674 2.6262,-2.51" fill="#414549" fill-rule="evenodd"/><path d="M281.77535,192.088l14.19514,-28.783c0.03595,-0.075 0.23009,-0.066 0.24446,0.01l4.26915,20.941c0.00421,0.02146 0.02599,0.04064 0.05902,0.05197c0.03302,0.01134 0.07359,0.01356 0.10995,0.00603l58.31028,-12.158c0.04673,-0.00955 0.09918,-0.00287 0.13379,0.01704c0.03461,0.0199 0.04488,0.04929 0.02618,0.07496l-11.12495,15.247c-0.01329,0.01785 -0.01272,0.03797 0.00158,0.05559c0.0143,0.01762 0.04105,0.03115 0.07392,0.03741l47.32015,9.06c0.04532,0.00831 0.0783,0.03016 0.08516,0.05643c0.00686,0.02627 -0.01359,0.05244 -0.0528,0.06757l-45.62327,17.717c-0.05486,0.02108 -0.07063,0.06231 -0.03595,0.094l32.26398,29.966c0.02922,0.02579 0.02507,0.05914 -0.01025,0.08245c-0.03532,0.02331 -0.0937,0.03122 -0.14434,0.01955l-65.05643,-14.591c-0.05042,-0.01094 -0.10776,-0.00273 -0.1424,0.0204c-0.03464,0.02313 -0.03882,0.05599 -0.01038,0.0816l21.31159,18.627c0.0719,0.064 -0.06471,0.139 -0.17975,0.095l-33.59236,-12.952c-0.04948,-0.01853 -0.11552,-0.01519 -0.15818,0.008l-32.00873,17.397c-0.09526,0.053 -0.25166,-0.005 -0.20492,-0.075l11.69477,-17.223c0.01719,-0.02534 0.00656,-0.05391 -0.02727,-0.07338c-0.03384,-0.01946 -0.08482,-0.02633 -0.13091,-0.01762l-45.45251,8.711c-0.11504,0.023 -0.21211,-0.05 -0.14381,-0.106l25.13135,-20.362c0.02245,-0.01791 0.02859,-0.04063 0.0166,-0.06142c-0.01199,-0.02079 -0.04073,-0.03728 -0.07772,-0.04458l-37.15328,-1.054c-0.13301,-0.026 -0.09887,-0.136 0.04314,-0.136l33.74515,-6.018c0.05619,-0.00046 0.10502,-0.0216 0.11963,-0.05179c0.01461,-0.03019 -0.00854,-0.06211 -0.05671,-0.0782l-62.16599,-19.824c-0.12583,-0.04 -0.05033,-0.147 0.08987,-0.13l70.39691,8.765c0.12044,0.015 0.20132,-0.066 0.12044,-0.116l-50.28069,-30.555c-0.09347,-0.057 0.02337,-0.144 0.1474,-0.11l63.74783,17.355c0.03352,0.00907 0.07255,0.00941 0.10656,0.00091c0.03401,-0.0085 0.0595,-0.02495 0.06959,-0.04491" fill="#ea202d" fill-rule="evenodd"/><path d="M296.21497,163.316l0.17975,0.622c0.10965,0.407 0.293,1.002 0.48713,1.76c0.39006,1.52 0.99943,3.686 1.63576,6.292l1.01741,4.208c0.34692,1.495 0.70823,3.07 1.08391,4.7l0.55364,2.484l0.14201,0.632l0.03595,0.158l0.00359,0.02l-0.01079,-0.035c-0.08112,-0.21271 -0.44303,-0.35478 -0.83046,-0.326c-0.05393,0.001 -0.18335,0.026 -0.16178,0.022l0.53566,-0.115l2.16064,-0.456l8.77197,-1.849l8.79534,-1.815c2.89583,-0.603 5.76829,-1.17 8.5347,-1.732c5.04842,-1.01903 10.10981,-2.01805 15.18379,-2.997c4.4507,-0.866 8.18778,-1.545 10.7924,-2.04c1.30141,-0.248 2.33321,-0.427 3.03425,-0.556l0.8017,-0.144c0.03707,-0.00671 0.07756,-0.00403 0.11078,0.00733c0.03321,0.01136 0.0558,0.03024 0.0618,0.05167c0.00539,0.028 -0.01079,0.04 -0.01079,0.04c0,0 0.01438,-0.013 0.00359,-0.04c-0.00719,-0.023 -0.0719,-0.064 -0.15818,-0.045l-0.77294,0.183c-0.67947,0.16 -1.67171,0.402 -2.94436,0.692c-2.54711,0.578 -6.16735,1.433 -10.54615,2.408c-4.98056,1.11787 -9.97545,2.2159 -14.98426,3.294c-2.75023,0.587 -5.58314,1.21 -8.48078,1.815l-8.77197,1.847l-8.79354,1.815l-2.16783,0.446l-0.53926,0.109c0,0 -0.15459,0.03 -0.23188,0.032c-0.28892,0.02033 -0.57932,-0.03084 -0.79451,-0.14c-0.15407,-0.07576 -0.26157,-0.17648 -0.30737,-0.288c-0.01618,-0.032 -0.01798,-0.062 -0.02157,-0.074l-0.00359,-0.02l-0.03055,-0.158l-0.11683,-0.633l-0.46017,-2.49l-0.83585,-4.716l-0.70104,-4.228c-0.42961,-2.619 -0.70643,-4.806 -0.93831,-6.335c-0.11683,-0.765 -0.17795,-1.368 -0.23368,-1.778c-0.04853,-0.41 -0.0773,-0.628 -0.0773,-0.628" fill="#414549" fill-rule="evenodd"/><path d="M217.85137,174.777l1.28344,0.318c0.83585,0.21 2.07076,0.508 3.62383,0.906c3.10614,0.797 7.56763,1.908 12.87934,3.289l8.57425,2.235l9.54492,2.521l10.18305,2.723l10.49042,2.836l5.2542,1.44l1.30861,0.359l0.65251,0.179l0.32715,0.09l-0.04853,-0.012c-0.15818,-0.028 -0.20672,-0.026 -0.31637,-0.025c-0.28928,0.00938 -0.54539,0.10718 -0.66509,0.254c-0.04853,0.07 -0.03955,0.069 -0.03236,0.05l0.02337,-0.048l0.77654,-1.556c1.0192,-2.069 2.07796,-4.096 3.07019,-6.063c1.82579,-3.58151 3.68808,-7.15724 5.58675,-10.727c1.65374,-3.137 3.11153,-5.739 4.09659,-7.565c0.49073,-0.914 0.90596,-1.627 1.17738,-2.115l0.31277,-0.557c0.03955,-0.078 0.19234,-0.064 0.2247,-0.04c0.04314,0.027 0.03416,0.047 0.03595,0.047c-0.0018,0 0.00359,-0.02 -0.04134,-0.043c-0.03595,-0.023 -0.17256,-0.028 -0.19413,0.04l-0.24087,0.568c-0.2157,0.496 -0.5123,1.228 -0.92753,2.153c-0.83046,1.85 -1.96291,4.502 -3.41532,7.67c-1.44163,3.17 -3.15827,6.862 -5.0385,10.811c-0.9491,1.974 -1.89999,4.017 -2.9192,6.086l-0.76036,1.558l-0.02516,0.049c0,-0.002 0,0.015 -0.06112,0.1c-0.22053,0.27107 -0.7778,0.40282 -1.28164,0.303c-0.04515,-0.00877 -0.08903,-0.01947 -0.13122,-0.032l-0.32715,-0.088l-0.65431,-0.177l-1.31221,-0.355l-5.26679,-1.424l-10.46166,-2.869l-10.11473,-2.803l-9.43707,-2.646l-8.43044,-2.395c-5.22184,-1.486 -9.53593,-2.765 -12.57377,-3.64c-1.51891,-0.439 -2.6981,-0.798 -3.50879,-1.037l-1.2403,-0.368" fill="#414549" fill-rule="evenodd"/><path d="M198.7885,196.958l1.6088,0.172l4.54418,0.492c3.90785,0.44 9.50358,1.042 16.1958,1.815c3.34342,0.389 6.96905,0.81 10.8032,1.254l12.04708,1.428l12.87036,1.557l6.61314,0.814l3.32903,0.41l0.83405,0.102l0.41524,0.052c-0.00719,0.004 0.00898,-0.01 -0.19593,-0.01c-0.35822,0.00962 -0.66068,0.15127 -0.73879,0.346c-0.05105,0.12786 0.0001,0.26175 0.14021,0.367c0.10605,0.07 0.00719,0.007 0.02157,0.017l-0.03595,-0.022l-1.15761,-0.7l-9.17283,-5.6c-2.94952,-1.81415 -5.89867,-3.62849 -8.84747,-5.443c-5.22205,-3.2202 -10.41579,-6.45457 -15.58104,-9.703c-4.54418,-2.847 -8.27226,-5.251 -10.91105,-6.92l-3.03064,-1.95l-0.79811,-0.515c-0.04314,-0.027 -0.09347,-0.059 -0.0773,-0.092c0.00942,-0.02539 0.04117,-0.04644 0.08448,-0.056c0.0719,-0.012 0.10426,0.006 0.10246,0.004c0,0.002 -0.03595,-0.015 -0.10067,0c-0.0683,0.011 -0.12044,0.087 0.01079,0.134l0.85203,0.487l3.22478,1.852c2.75382,1.609 6.72997,3.886 11.42873,6.655c4.70954,2.763 10.17405,6.002 15.99807,9.488l8.96431,5.383l9.21956,5.576l1.15042,0.703l0.03595,0.022c0.03955,0.025 -0.03236,-0.024 0.09347,0.062c0.22995,0.17238 0.27205,0.40092 0.10976,0.59567c-0.1623,0.19475 -0.50301,0.32456 -0.88809,0.33832c-0.23907,0.003 -0.25884,-0.016 -0.30198,-0.015l-0.41703,-0.053l-0.83226,-0.105l-3.32544,-0.418c-2.21456,-0.279 -4.41835,-0.557 -6.60595,-0.831l-12.83441,-1.644l-11.99316,-1.564c-3.57847,-0.47558 -7.15678,-0.95159 -10.73489,-1.428c-6.64728,-0.888 -12.16932,-1.67 -16.04121,-2.198c-1.93415,-0.272 -3.45127,-0.487 -4.48845,-0.632l-1.58723,-0.227M225.73356,222.895l4.16849,-0.84l4.17927,-0.82c2.78618,-0.544 5.56877,-1.099 8.36573,-1.627c2.79337,-0.534 5.58675,-1.07 8.3873,-1.59l8.39989,-1.568l0.24446,-0.021c-0.26844,0.00113 -0.51121,0.08896 -0.62194,0.225c-0.1366,0.17246 -0.02669,0.37458 0.25884,0.476c0.05033,0.016 -0.00359,-0.001 0,0l-0.06471,-0.02l-0.12583,-0.039l-0.50152,-0.157l-1.00482,-0.312l-2.00784,-0.627l-4.0175,-1.254l-8.00622,-2.534c-2.67474,-0.84 -5.32071,-1.705 -7.98465,-2.557c-2.66223,-0.85078 -5.31663,-1.70913 -7.96308,-2.575c-2.64777,-0.867 -5.30632,-1.723 -7.93972,-2.6c-2.63699,-0.877 -5.28475,-1.743 -7.90916,-2.63c-2.6346,-0.87956 -5.25787,-1.76958 -7.86961,-2.67l-3.92222,-1.343c-0.65618,-0.22304 -1.30871,-0.44938 -1.95752,-0.679l-0.48534,-0.17c-0.13842,-0.031 -0.14381,-0.165 0.0018,-0.195c0.16178,-0.021 0.2157,0.018 0.31816,0.024l1.11267,0.167l-1.13245,-0.114c-0.08448,-0.005 -0.2193,-0.029 -0.24446,-0.016c-0.04134,0.017 -0.04494,0.052 0.01438,0.063l0.5123,0.147c0.68306,0.196 1.36253,0.394 2.0402,0.596l4.06603,1.205c2.71428,0.798 5.41957,1.61 8.11407,2.429c2.70349,0.81 5.38362,1.644 8.07633,2.467c2.69271,0.82 5.36205,1.664 8.04397,2.497c2.68372,0.83 5.35307,1.675 8.02061,2.52c2.66574,0.849 5.34587,1.683 7.99904,2.542l7.97747,2.563l3.97615,1.294l1.98627,0.648l0.99404,0.325l0.49612,0.161l0.12583,0.041l0.06112,0.02l0.06112,0.02c0.39017,0.13888 0.53981,0.41537 0.35232,0.651c-0.1506,0.18641 -0.48288,0.30678 -0.85024,0.308l0.24446,-0.02l-8.47358,1.44c-2.82214,0.482 -5.65505,0.95 -8.48437,1.418c-2.82932,0.475 -5.67123,0.924 -8.50954,1.382l-4.25656,0.684l-4.26736,0.665z" fill="#414549" fill-rule="evenodd"/><path d="M237.77346,244.554c0.96527,-0.887 1.94493,-1.768 2.93358,-2.645l2.98931,-2.624l3.02525,-2.609l3.063,-2.595c1.01381,-0.867 2.06178,-1.722 3.09176,-2.584c1.03538,-0.859 2.05639,-1.724 3.10794,-2.577l3.1385,-2.566l1.56925,-1.283l0.79451,-0.638l0.39726,-0.32l0.19773,-0.158l0.05033,-0.04l0.01259,-0.01l-0.02337,0.02l0.00539,-0.005c-0.05349,0.05014 -0.08947,0.10543 -0.10605,0.163c-0.05845,0.20953 0.15879,0.41263 0.51769,0.484l0.25884,0.028c-3.09536,-0.098 -6.19251,-0.182 -9.28608,-0.3l-4.63944,-0.165l-4.63944,-0.184c-1.54588,-0.062 -3.09176,-0.123 -4.63764,-0.196l-4.63764,-0.211c-3.08996,-0.154 -6.17994,-0.305 -9.2663,-0.497h-0.00539c-0.06491,-0.01394 -0.10165,-0.05224 -0.08628,-0.09c0.01327,-0.03499 0.07067,-0.05926 0.13481,-0.057c-0.06015,0.00088 -0.10959,0.02667 -0.11504,0.06c-0.00727,0.02994 0.02662,0.05821 0.07909,0.066h-0.00539c3.10614,-0.017 6.2069,0.007 9.30944,0.03l4.65023,0.051c1.55127,0.016 3.10075,0.043 4.65023,0.069l4.65023,0.078l4.64663,0.099c3.09896,0.058 6.19431,0.149 9.29147,0.227c0.07942,0.00164 0.15807,0.00938 0.23368,0.023l0.02337,0.005c0.29445,0.05867 0.5264,0.18744 0.63248,0.35113c0.10608,0.16368 0.0752,0.34517 -0.08422,0.49487l-0.05393,0.046l-0.04853,0.04l-0.19773,0.16l-0.39006,0.321l-0.78552,0.641l-1.58723,1.277l-3.17804,2.55c-1.05336,0.853 -2.13727,1.694 -3.20501,2.54c-1.07673,0.845 -2.13547,1.695 -3.22658,2.533l-3.25174,2.522l-3.2895,2.508l-3.32544,2.494c-1.11807,0.828 -2.24332,1.653 -3.38296,2.473" fill="#414549" fill-rule="evenodd"/><path d="M271.83319,253.262c0,0 1.51891,-2.724 4.02648,-6.762c0.62374,-1.01 1.29962,-2.105 2.0402,-3.257c0.73339,-1.153 1.49914,-2.371 2.32601,-3.624l1.24749,-1.91l0.63633,-0.974l0.32535,-0.49l0.16538,-0.245l0.08089,-0.123c-0.00539,0.01 0.02876,-0.045 -0.00898,0.02l-0.01798,0.043c-0.04628,0.1386 0.03368,0.28096 0.21358,0.38024c0.1799,0.09928 0.43643,0.14262 0.68519,0.11576c0.17077,-0.023 0.0719,-0.01 0.0719,-0.008l-0.11324,0.02l-0.22289,0.044l-0.44579,0.087l-0.89338,0.174l-1.79754,0.349l-3.61125,0.701l-7.21351,1.365c-2.37635,0.455 -4.73291,0.874 -7.0032,1.295c-4.54597,0.834 -8.80254,1.59 -12.46232,2.221c-2.94599,0.51252 -5.90004,1.01054 -8.86186,1.494c-1.07673,0.171 -1.92156,0.307 -2.49677,0.399c-0.293,0.039 -0.49791,0.094 -0.66868,0.09c-0.06046,-0.01281 -0.09647,-0.04746 -0.08628,-0.083c0.01079,-0.023 0.02516,-0.03 0.02516,-0.03c0.00719,-0.01 -0.07909,0.062 0.0683,0.1c0.13301,-0.006 0.35412,-0.074 0.62914,-0.13l2.4087,-0.541c2.07796,-0.46 5.05107,-1.11 8.63716,-1.86c4.07914,-0.8605 8.17168,-1.7012 12.27717,-2.522c2.25591,-0.446 4.57653,-0.923 6.95287,-1.379l7.19194,-1.397l3.62203,-0.685l1.80114,-0.34l0.89877,-0.17l0.44579,-0.084l0.22289,-0.042l0.11324,-0.021c0.03595,-0.005 -0.02696,0 0.17975,-0.028c0.32733,-0.03425 0.66409,0.02264 0.90192,0.15236c0.23783,0.12972 0.34673,0.3159 0.29165,0.49864c-0.03055,0.087 -0.02696,0.064 -0.03055,0.074l-0.03055,0.05l-0.08448,0.123l-0.16897,0.245l-0.33614,0.487l-0.68127,0.964l-1.33378,1.892c-0.86821,1.244 -1.74361,2.44 -2.56148,3.575c-0.76754,1.06704 -1.54708,2.1314 -2.3386,3.193c-2.9192,3.951 -5.01513,6.553 -5.01513,6.553" fill="#414549" fill-rule="evenodd"/><path d="M337.97892,248.789c0,0 0.01438,0.008 0.02157,0.032c0.00715,0.03779 -0.03763,0.07259 -0.10426,0.081c-0.10246,0.01 -0.17616,-0.042 -0.28041,-0.07c-0.1195,-0.04076 -0.23874,-0.08176 -0.35771,-0.123l-2.33141,-0.808c-2.00245,-0.702 -4.85335,-1.711 -8.2471,-2.945c-1.82971,-0.66123 -3.65304,-1.3279 -5.4699,-2c-1.93235,-0.715 -3.97974,-1.465 -6.07388,-2.257c-2.09593,-0.792 -4.27634,-1.598 -6.46574,-2.439c-1.09469,-0.418 -2.20018,-0.84 -3.30746,-1.265l-1.66811,-0.637c0.00898,0.002 -0.00898,-0.001 0.06471,0.022c0.30455,0.09037 0.67907,0.0613 0.92753,-0.072l-0.04494,0.025l-0.17975,0.098l-0.3613,0.198l-0.72261,0.396l-5.79346,3.124c-1.90179,1.034 -3.81437,2.03 -5.64426,3.006c-3.34235,1.77316 -6.71106,3.53088 -10.10575,5.273c-2.39887,1.23479 -4.81665,2.45817 -7.25306,3.67l-2.05639,1.014c-0.25166,0.11 -0.39546,0.22 -0.56802,0.252c-0.06919,0.00022 -0.12743,-0.02873 -0.13481,-0.067c0,-0.024 0.01079,-0.034 0.01079,-0.034c0,0 -0.00898,0.01 -0.00359,0.034c0.00539,0.02 0.04853,0.056 0.12583,0.053c0.12583,-0.031 0.28041,-0.156 0.49971,-0.278l1.86944,-1.121c1.61778,-0.961 3.94199,-2.33 6.76593,-3.949c3.20954,-1.84815 6.44641,-3.68154 9.71029,-5.5c1.79754,-0.995 3.63103,-2.034 5.53461,-3.07l5.74852,-3.148l0.728,-0.392l0.3649,-0.197l0.17975,-0.097l0.04673,-0.025c0.32562,-0.17545 0.81652,-0.21533 1.21873,-0.099c0.09347,0.029 0.08987,0.032 0.11683,0.041l1.65733,0.644l3.29129,1.28c2.18581,0.845 4.30689,1.698 6.37407,2.511c2.07076,0.814 4.04985,1.616 5.93187,2.372c1.88742,0.754 3.65619,1.478 5.28836,2.147c2.63479,1.07541 5.25329,2.16312 7.85523,3.263l2.17861,0.93c0.25166,0.1 0.4404,0.212 0.57521,0.226c0.06054,-0.00411 0.10564,-0.03308 0.10426,-0.067c-0.00359,-0.022 -0.01798,-0.032 -0.01798,-0.032" fill="#414549" fill-rule="evenodd"/><path d="M382.03115,244.55c0,0 0.02157,0.011 0.01977,0.042c0.00359,0.028 -0.06291,0.087 -0.18335,0.065l-0.86821,-0.173c-0.76216,-0.154 -1.88382,-0.369 -3.29848,-0.662c-2.82932,-0.587 -6.89175,-1.397 -11.73072,-2.42l-7.8085,-1.655l-8.69469,-1.876l-9.28068,-2.033l-9.56109,-2.125c-3.19602,-0.723 -6.39203,-1.445 -9.53772,-2.158c-0.78325,-0.17714 -1.56639,-0.35448 -2.34938,-0.532l-1.16301,-0.267l-0.5788,-0.134l-0.28761,-0.066l-0.1456,-0.034l-0.03595,-0.008c0.01798,0.003 -0.08987,-0.02 0.03055,0.005c-0.0683,-0.011 0.0773,0.017 0.19054,0.017c0.27351,0.00481 0.5294,-0.07489 0.66501,-0.20712c0.1356,-0.13223 0.12872,-0.29533 -0.0179,-0.42388l0.03955,0.036l0.16538,0.148l0.32894,0.293l0.65431,0.585l1.29423,1.156c3.12299,2.78788 6.21362,5.58694 9.27169,8.397c2.69631,2.463 4.87132,4.542 6.42978,5.985c0.77834,0.721 1.36433,1.297 1.77416,1.686l0.62374,0.598l-0.70823,-0.568c-0.46017,-0.371 -1.15042,-0.91 -1.99527,-1.608c-1.68968,-1.395 -4.15231,-3.372 -7.02297,-5.773c-3.73533,-3.10779 -7.42936,-6.23087 -11.08181,-9.369l-0.67588,-0.577l-0.33794,-0.29l-0.17077,-0.146l-0.04134,-0.036c-0.20107,-0.17166 -0.21395,-0.39127 -0.03342,-0.56986c0.18053,-0.17859 0.52453,-0.28654 0.89265,-0.28014c0.13842,0.002 0.31098,0.032 0.26784,0.026l0.13842,0.029l0.14381,0.031l0.293,0.064l0.58419,0.127l1.17199,0.256l2.35478,0.523l9.56109,2.125l9.53772,2.16l9.21776,2.115l8.603,2.004l7.68987,1.821c4.76168,1.13 8.70008,2.114 11.46828,2.783c1.3859,0.334 2.46263,0.613 3.20141,0.796l0.84485,0.212c0.09347,0.023 0.16538,-0.025 0.16538,-0.052c0.00539,-0.03 -0.01438,-0.042 -0.01438,-0.042" fill="#414549" fill-rule="evenodd"/><path d="M395.39403,196.648c0,0 0.03416,0.002 0.0683,0.028c0.04314,0.025 0.02696,0.094 -0.08269,0.122l-0.79271,0.334c-0.69745,0.29 -1.70766,0.724 -3.01986,1.26c-2.61721,1.071 -6.32732,2.625 -10.83554,4.446l-7.28361,2.937l-8.15902,3.254l-8.75401,3.454l-4.5172,1.765l-1.13604,0.444l-0.28401,0.11l-0.14381,0.057l-0.0701,0.027l-0.03595,0.014c-0.02696,0.01 -0.01438,0.007 0.03595,-0.016c0.29832,-0.13953 0.37066,-0.37886 0.17077,-0.565l0.08987,0.084l0.17975,0.165l1.43803,1.328l5.67482,5.304c1.88022,1.746 3.68495,3.481 5.45372,5.151c3.21468,3.04732 6.39638,6.10538 9.54492,9.174c2.7772,2.692 5.02052,4.958 6.62392,6.533c0.8017,0.788 1.40567,1.416 1.8281,1.84l0.64352,0.652l-0.7298,-0.623c-0.47275,-0.408 -1.18278,-1 -2.05279,-1.765c-1.73822,-1.53 -4.27095,-3.699 -7.2261,-6.33c-3.37644,-2.99246 -6.72051,-5.99618 -10.03205,-9.011c-1.81191,-1.657 -3.70831,-3.36 -5.59034,-5.106l-5.72695,-5.286l-1.42545,-1.333l-0.17795,-0.166l-0.08987,-0.083c-0.26255,-0.24355 -0.17144,-0.55691 0.2157,-0.742c0.03299,-0.01635 0.06847,-0.03107 0.10605,-0.044l0.03595,-0.014l0.0719,-0.028l0.14381,-0.055l0.28401,-0.11l1.13964,-0.44l4.53518,-1.75l8.84747,-3.382l8.30102,-3.138l7.46517,-2.79c4.62686,-1.727 8.52751,-3.129 11.23819,-4.127c1.35355,-0.5 2.43567,-0.877 3.16546,-1.142c0.36669,-0.13 0.64711,-0.23 0.83585,-0.299c0.11144,-0.025 0.12583,-0.08 0.09347,-0.108c-0.03055,-0.027 -0.06471,-0.03 -0.06471,-0.03M359.12334,172.248c0,0 -1.59082,2.64 -4.20624,6.55c-0.65251,0.978 -1.35714,2.037 -2.12828,3.152c-0.76575,1.116 -1.56386,2.295 -2.42308,3.507l-1.29962,1.848l-0.16358,0.234l-0.08269,0.118l-0.01079,0.015l0.01438,-0.02c0.03055,-0.055 0.03236,-0.083 0.03595,-0.114c0.01054,-0.16105 -0.14511,-0.31132 -0.40085,-0.387c-0.15459,-0.039 -0.0701,-0.016 -0.06471,-0.017l0.05393,0.01l0.10785,0.02l0.2157,0.039l0.43141,0.079l1.73642,0.326c2.32421,0.44 4.68438,0.885 7.04454,1.33l7.02477,1.364c2.31882,0.444 4.58371,0.91 6.7875,1.346c4.00813,0.80124 8.00361,1.62194 11.98597,2.462c6.99961,1.471 11.61209,2.538 11.61209,2.538c0,0 -4.8138,-0.738 -11.95721,-1.975c-4.06917,-0.70077 -8.12696,-1.42181 -12.17291,-2.163c-2.21636,-0.41 -4.5172,-0.819 -6.83782,-1.263c-2.32241,-0.44 -4.68438,-0.885 -7.04454,-1.33l-7.02297,-1.364l-1.72923,-0.337l-0.42961,-0.086l-0.21391,-0.042l-0.10785,-0.022l-0.05212,-0.01c-0.03055,-0.008 0.01798,0.008 -0.17077,-0.04c-0.42727,-0.12589 -0.63329,-0.40299 -0.49073,-0.66l0.03236,-0.05l0.01079,-0.015l0.08987,-0.116l0.17436,-0.233l1.3841,-1.828c0.90236,-1.203 1.80652,-2.357 2.65496,-3.454c0.84485,-1.099 1.66631,-2.132 2.42308,-3.085c1.6736,-2.12313 3.40362,-4.23236 5.18949,-6.327" fill="#414549" fill-rule="evenodd"/><text transform="translate(255.12188,219.7125) scale(0.63156,0.67876)" font-size="40" xml:space="preserve" data-paper-data="{&quot;origPos&quot;:null}" fill="#fec40e" fill-rule="nonzero" stroke="none" stroke-width="1" stroke-linecap="butt" stroke-linejoin="miter" stroke-miterlimit="10" stroke-dasharray="" stroke-dashoffset="0" font-family="Marker" font-weight="normal" text-anchor="start" style="mix-blend-mode: normal"><tspan x="0" dy="0">RECORD!</tspan></text></g></g></svg>