<svg version="1.1" xmlns="http://www.w3.org/2000/svg" xmlns:xlink="http://www.w3.org/1999/xlink" width="107.091" height="85.87" viewBox="0,0,107.091,85.87"><g transform="translate(-186.069,-138.188)"><g data-paper-data="{&quot;isPaintingLayer&quot;:true}" fill-rule="evenodd" stroke-linecap="butt" stroke-linejoin="miter" stroke-miterlimit="10" stroke-dasharray="" stroke-dashoffset="0" style="mix-blend-mode: normal"><path d="M200.932,168.304c-2.043,0 -3.704,-1.672 -3.704,-3.729v-1.595h1.032c0.62379,-0.00212 1.22119,-0.25195 1.66078,-0.69454c0.43959,-0.44259 0.68535,-1.04167 0.68322,-1.66546v-8.8c0,-1.304 -1.05,-2.36 -2.344,-2.36h-3.557c-0.62396,0.00185 -1.22162,0.25157 -1.66142,0.69419c-0.4398,0.44262 -0.6857,1.04185 -0.68358,1.66581v8.798c0,1.304 1.05,2.36 2.345,2.36h0.462v1.596c0,3.202 2.587,5.806 5.767,5.806h6.609v-2.077h-6.61zM278.297,168.304c2.043,0 3.704,-1.672 3.704,-3.729v-1.595h-1.033c-0.62379,-0.00212 -1.22119,-0.25195 -1.66078,-0.69454c-0.43959,-0.44259 -0.68535,-1.04167 -0.68322,-1.66546v-8.8c0,-1.304 1.05,-2.36 2.344,-2.36h3.558c0.62379,0.00212 1.22119,0.25195 1.66078,0.69454c0.43959,0.44259 0.68535,1.04167 0.68322,1.66546v8.798c0,1.304 -1.05,2.36 -2.344,2.36h-0.462v1.596c0,3.202 -2.587,5.806 -5.767,5.806h-6.61v-2.077h6.61z" data-paper-data="{&quot;origPos&quot;:null}" fill="#42210b" stroke="#000000" stroke-width="0.5"/><path d="M206.874,223.808h-5.767c-2.521,0 -4.565,-2.058 -4.565,-4.596v-21.332h14.897v21.332c0,2.538 -2.043,4.596 -4.565,4.596" data-paper-data="{&quot;origPos&quot;:null}" fill="#42210b" stroke="#000000" stroke-width="0.5"/><path d="M211.439,219.212c0,2.539 -2.044,4.596 -4.565,4.596h-2.884v-25.928h7.45v21.332" fill="#592c16" stroke="none" stroke-width="1"/><path d="M278.121,223.808h-5.766c-2.522,0 -4.566,-2.058 -4.566,-4.596v-21.332h14.898v21.332c0,2.538 -2.044,4.596 -4.566,4.596" data-paper-data="{&quot;origPos&quot;:null}" fill="#42210b" stroke="#000000" stroke-width="0.5"/><path d="M282.687,219.212c0,2.539 -2.044,4.596 -4.566,4.596h-2.883v-25.928h7.449v21.332" data-paper-data="{&quot;origPos&quot;:null}" fill="#592c16" stroke="none" stroke-width="1"/><path d="M277.58,171.938h-75.931l2.79,-26.772c0.39,-3.749 3.633,-6.728 7.25,-6.728h55.85c3.618,0 6.86,2.979 7.252,6.728z" data-paper-data="{&quot;origPos&quot;:null}" fill="#c69c6d" stroke="#000000" stroke-width="0.5"/><path d="M285.395,209.18h-91.561v-30.401c0,-5.212 4.196,-9.437 9.372,-9.437h72.817c5.176,0 9.372,4.225 9.372,9.437v30.4z" data-paper-data="{&quot;origPos&quot;:null}" fill="#c69c6d" stroke="none" stroke-width="0"/><path d="M193.833,178.778c0,-5.211 4.197,-9.436 9.373,-9.436h3.622c7.372,0 13.347,6.017 13.347,13.438v26.4h-26.342v-30.402M259.052,182.78c0,-7.421 5.976,-13.437 13.348,-13.437h3.623c5.176,0 9.372,4.224 9.372,9.436v30.401h-26.342v-26.4" data-paper-data="{&quot;origPos&quot;:null}" fill="#b2875b" stroke="#000000" stroke-width="0.5"/><path d="M289.193,210.24h-99.157c-2.053,0 -3.717,-1.676 -3.717,-3.743c0,-2.067 1.664,-3.742 3.717,-3.742h99.157c2.053,0 3.717,1.675 3.717,3.742c0,2.067 -1.664,3.742 -3.717,3.742" data-paper-data="{&quot;origPos&quot;:null}" fill="#e6e6e6" stroke="#000000" stroke-width="0.5"/><path d="M292.911,206.497c0,2.067 -1.664,3.742 -3.717,3.742h-26.688c-0.60088,1.48046 -2.03825,2.44977 -3.636,2.452h-38.51c-1.59786,-0.00264 -3.03531,-0.97175 -3.637,-2.452h-26.687c-2.053,0 -3.717,-1.675 -3.717,-3.742z" fill="#b3b3b3" stroke="none" stroke-width="1"/><path d="M249.062,211.963h-18.895c-1.902,0 -3.443,-1.552 -3.443,-3.466v-4c0,-1.914 1.541,-3.466 3.443,-3.466h18.895c1.901,0 3.442,1.552 3.442,3.466v4c0,1.914 -1.541,3.466 -3.442,3.466" data-paper-data="{&quot;origPos&quot;:null}" fill="#ffffff" stroke="#000000" stroke-width="0.5"/><path d="M249.062,201.031c1.901,0 3.442,1.552 3.442,3.466v2.366h-25.78v-2.366c0,-1.914 1.541,-3.466 3.443,-3.466h18.895" fill="#f2f2f2" stroke="none" stroke-width="1"/><path d="M269.893,212.71c-0.67144,-0.00212 -1.31452,-0.27095 -1.7877,-0.74732c-0.47318,-0.47637 -0.73769,-1.12124 -0.7353,-1.79268v-7.346c0,-1.403 1.13,-2.54 2.523,-2.54c0.67144,0.00212 1.31452,0.27095 1.7877,0.74732c0.47318,0.47637 0.73769,1.12124 0.7353,1.79268v7.346c0,1.402 -1.13,2.54 -2.523,2.54M209.336,212.71c-0.67144,-0.00212 -1.31452,-0.27095 -1.7877,-0.74732c-0.47318,-0.47637 -0.73769,-1.12124 -0.7353,-1.79268v-7.346c-0.00239,-0.67144 0.26211,-1.31631 0.7353,-1.79268c0.47318,-0.47637 1.11626,-0.7452 1.7877,-0.74732c0.67126,0.00238 1.31409,0.27133 1.78706,0.74767c0.47297,0.47634 0.73734,1.12106 0.73494,1.79233v7.346c0.00266,0.67134 -0.26162,1.31622 -0.73465,1.79262c-0.47303,0.4764 -1.116,0.74526 -1.78735,0.74738M215.982,186.73c0,4.203 -3.384,7.609 -7.557,7.609c-4.174,0 -7.557,-3.406 -7.557,-7.608c0,-4.202 3.383,-7.609 7.557,-7.609c4.173,0 7.557,3.407 7.557,7.609" data-paper-data="{&quot;origPos&quot;:null}" fill="#ffffff" stroke="#000000" stroke-width="0.5"/><path d="M208.268,183.828c-1.677,0 -3.04,1.373 -3.04,3.061c0,1.688 1.363,3.06 3.04,3.06c1.676,0 3.04,-1.372 3.04,-3.06c0,-1.688 -1.364,-3.061 -3.04,-3.061M208.268,192.684c-3.174,0 -5.756,-2.6 -5.756,-5.795c0,-3.195 2.582,-5.794 5.756,-5.794c3.173,0 5.755,2.599 5.755,5.794c0,3.195 -2.582,5.795 -5.755,5.795" fill="#cccccc" stroke="none" stroke-width="1"/><path d="M203.55,196.842c0.00443,1.46814 -1.18186,2.66204 -2.65,2.667c-0.70512,-0.00212 -1.3805,-0.28433 -1.8775,-0.78452c-0.497,-0.50019 -0.77489,-1.17736 -0.7725,-1.88248c-0.00239,-0.70521 0.27546,-1.38249 0.77243,-1.88284c0.49697,-0.50035 1.17235,-0.78278 1.87757,-0.78516c0.70521,0.00238 1.38059,0.28481 1.87757,0.78516c0.49697,0.50035 0.77483,1.17763 0.77243,1.88284" data-paper-data="{&quot;origPos&quot;:null}" fill="#ec5c44" stroke="#000000" stroke-width="0.5"/><path d="M202.762,196.427c0,0.806 -0.649,1.46 -1.45,1.46c-0.8,0 -1.45,-0.654 -1.45,-1.46c0,-0.806 0.65,-1.46 1.45,-1.46c0.801,0 1.45,0.654 1.45,1.46" data-paper-data="{&quot;origPos&quot;:null}" fill="#cc3a27" stroke="none" stroke-width="1"/><path d="M263.246,186.731c0,-4.202 3.384,-7.609 7.558,-7.609c4.173,0 7.557,3.407 7.557,7.609c0,4.202 -3.384,7.608 -7.557,7.608c-4.174,0 -7.558,-3.406 -7.558,-7.609" data-paper-data="{&quot;origPos&quot;:null}" fill="#ffffff" stroke="#000000" stroke-width="0.5"/><path d="M267.92,186.889c0,1.688 1.365,3.06 3.041,3.06c1.677,0 3.04,-1.372 3.04,-3.06c0,-1.688 -1.363,-3.06 -3.04,-3.06c-1.676,0 -3.04,1.372 -3.04,3.06M265.205,186.889c0,-3.195 2.582,-5.794 5.756,-5.794c3.173,0 5.756,2.599 5.756,5.794c0,3.195 -2.583,5.794 -5.756,5.794c-3.174,0 -5.756,-2.6 -5.756,-5.794" data-paper-data="{&quot;origPos&quot;:null}" fill="#cccccc" stroke="none" stroke-width="1"/><path d="M275.679,196.842c-0.00239,-0.70521 0.27546,-1.38249 0.77243,-1.88284c0.49697,-0.50035 1.17235,-0.78278 1.87757,-0.78516c0.70521,0.00238 1.38059,0.28481 1.87757,0.78516c0.49697,0.50035 0.77483,1.17763 0.77243,1.88284c0.00239,0.70512 -0.27549,1.38229 -0.7725,1.88248c-0.497,0.50019 -1.17238,0.7824 -1.8775,0.78452c-1.46814,-0.00496 -2.65443,-1.19886 -2.65,-2.667" data-paper-data="{&quot;origPos&quot;:null}" fill="#ec5c44" stroke="#000000" stroke-width="0.5"/><path d="M276.466,196.427c0,-0.806 0.65,-1.46 1.45,-1.46c0.801,0 1.45,0.654 1.45,1.46c0,0.806 -0.649,1.46 -1.45,1.46c-0.8,0 -1.45,-0.654 -1.45,-1.46" fill="#cc3a27" stroke="none" stroke-width="1"/><path d="M224.331,196.842c-0.51505,-0.00185 -1.00827,-0.20824 -1.37115,-0.57374c-0.36288,-0.36551 -0.56571,-0.8602 -0.56385,-1.37526v-15.803c0,-1.077 0.866,-1.949 1.935,-1.949c1.07,0 1.936,0.872 1.936,1.949v15.803c0.00213,0.5154 -0.20072,1.0105 -0.56384,1.37625c-0.36313,0.36575 -0.85676,0.57216 -1.37216,0.57375M230.444,196.842c-0.51505,-0.00185 -1.00827,-0.20824 -1.37115,-0.57374c-0.36288,-0.36551 -0.56571,-0.8602 -0.56385,-1.37526v-15.803c0,-1.077 0.867,-1.949 1.935,-1.949c1.07,0 1.936,0.872 1.936,1.949v15.803c0.00213,0.5154 -0.20072,1.0105 -0.56384,1.37625c-0.36313,0.36575 -0.85676,0.57216 -1.37216,0.57375M236.558,196.842c-0.51523,-0.00159 -1.0087,-0.20785 -1.3718,-0.57339c-0.3631,-0.36554 -0.56606,-0.86038 -0.5642,-1.37561v-15.803c0,-1.077 0.867,-1.949 1.936,-1.949c1.069,0 1.935,0.872 1.935,1.949v15.803c0.00213,0.51522 -0.20058,1.01018 -0.56349,1.3759c-0.36291,0.36573 -0.85628,0.57225 -1.37151,0.5741M242.67,196.842c-1.07215,-0.00441 -1.93787,-0.87685 -1.934,-1.949v-15.803c0,-1.077 0.866,-1.949 1.935,-1.949c1.069,0 1.936,0.872 1.936,1.949v15.803c0.00213,0.5154 -0.20072,1.0105 -0.56384,1.37625c-0.36313,0.36575 -0.85676,0.57216 -1.37216,0.57375M248.784,196.842c-0.51505,-0.00185 -1.00827,-0.20824 -1.37115,-0.57374c-0.36288,-0.36551 -0.56571,-0.8602 -0.56385,-1.37526v-15.803c0,-1.077 0.866,-1.949 1.935,-1.949c1.069,0 1.936,0.872 1.936,1.949v15.803c0.00213,0.5154 -0.20072,1.0105 -0.56384,1.37625c-0.36313,0.36575 -0.85676,0.57216 -1.37216,0.57375M254.897,196.842c-0.51505,-0.00185 -1.00827,-0.20824 -1.37115,-0.57374c-0.36288,-0.36551 -0.56571,-0.8602 -0.56385,-1.37526v-15.803c0,-1.077 0.867,-1.949 1.935,-1.949c1.07,0 1.936,0.872 1.936,1.949v15.803c0.00213,0.5154 -0.20072,1.0105 -0.56384,1.37625c-0.36313,0.36575 -0.85676,0.57216 -1.37216,0.57375" data-paper-data="{&quot;origPos&quot;:null}" fill="#603813" stroke="#000000" stroke-width="0.5"/><path d="M208.119,167.784c-1.01,0 -1.798,-0.88 -1.692,-1.892l2.113,-20.292c0.167,-1.602 1.639,-3.007 3.148,-3.007h55.85c1.51,0 2.981,1.405 3.149,3.008l2.114,20.292c0.05214,0.48115 -0.10229,0.96183 -0.42491,1.32258c-0.32262,0.36075 -0.78313,0.5677 -1.26709,0.56942h-62.989z" data-paper-data="{&quot;origPos&quot;:null}" fill="#192024" stroke="#000000" stroke-width="0.5"/><path d="M254.444,142.592l-24.874,25.192h-4.69l24.872,-25.192z" fill="#374b54" stroke="none" stroke-width="1"/><path d="M264.37,142.592l-24.874,25.192h-4.69l24.873,-25.192z" fill="#4e7684" stroke="none" stroke-width="1"/><path d="M270.748,146.177l-21.325,21.607h-4.69l24.377,-24.691c0.836,0.549 1.471,1.487 1.578,2.507z" fill="#374b54" stroke="none" stroke-width="1"/></g></g></svg>