<svg version="1.1" xmlns="http://www.w3.org/2000/svg" xmlns:xlink="http://www.w3.org/1999/xlink" width="107.21" height="78.663" viewBox="0,0,107.21,78.663"><g transform="translate(-186.007,-141.073)"><g data-paper-data="{&quot;isPaintingLayer&quot;:true}" fill-rule="evenodd" stroke-linecap="butt" stroke-linejoin="miter" stroke-miterlimit="10" stroke-dasharray="" stroke-dashoffset="0" style="mix-blend-mode: normal"><path d="M251.647,147.13h-23.946l1.135,-4.357c0.22294,-0.85406 0.99432,-1.44996 1.877,-1.45h17.921c0.88305,-0.00041 1.65496,0.59558 1.878,1.45l1.135,4.358z" data-paper-data="{&quot;origPos&quot;:null}" fill="#e29233" stroke="#000000" stroke-width="0.5"/><path d="M207.049,173.888c-0.30086,-3.53226 -2.89538,-6.44285 -6.37,-7.146l-2.512,-0.52l0.357,-1.725l2.511,0.52c4.23739,0.85689 7.40156,4.40639 7.768,8.714z" data-paper-data="{&quot;origPos&quot;:null}" fill="#f2f2f2" stroke="#000000" stroke-width="0.5"/><path d="M204.423,164.49c0,2.75397 -2.23253,4.9865 -4.9865,4.9865c-2.75397,0 -4.9865,-2.23253 -4.9865,-4.9865c0,-2.75397 2.23253,-4.9865 4.9865,-4.9865c2.75397,0 4.9865,2.23253 4.9865,4.9865" data-paper-data="{&quot;origPos&quot;:null}" fill="#cccccc" stroke="#000000" stroke-width="0.5"/><path d="M204.423,164.49c0,1.32254 -0.52545,2.5909 -1.46072,3.52599c-0.93527,0.93509 -2.20374,1.46028 -3.52628,1.46001c-0.56,0 -1.098,-0.097 -1.6,-0.267c-0.171,-0.504 -0.268,-1.041 -0.268,-1.602c0,-1.32254 0.52545,-2.5909 1.46072,-3.52599c0.93527,-0.93509 2.20374,-1.46028 3.52628,-1.46001c0.54443,0.00092 1.08499,0.09146 1.6,0.268c0.17647,0.51537 0.26701,1.05625 0.268,1.601" data-paper-data="{&quot;origPos&quot;:null}" fill="#b7b7b7" stroke="none" stroke-width="1"/><path d="M269.585,173.731c0.366,-4.30745 3.52983,-7.85702 7.767,-8.714l2.511,-0.52l0.356,1.725l-2.51,0.52c-3.47462,0.70315 -6.06914,3.61374 -6.37,7.146z" data-paper-data="{&quot;origPos&quot;:null}" fill="#f2f2f2" stroke="#000000" stroke-width="0.5"/><path d="M273.964,164.49c0,-2.75397 2.23253,-4.9865 4.9865,-4.9865c2.75397,0 4.9865,2.23253 4.9865,4.9865c0,2.75397 -2.23253,4.9865 -4.9865,4.9865c-2.75397,0 -4.9865,-2.23253 -4.9865,-4.9865" data-paper-data="{&quot;origPos&quot;:null}" fill="#cccccc" stroke="#000000" stroke-width="0.5"/><path d="M273.964,164.49c0,-0.561 0.097,-1.098 0.268,-1.601c0.51502,-0.17649 1.05558,-0.26703 1.6,-0.268c1.32254,-0.00027 2.59101,0.52493 3.52628,1.46001c0.93527,0.93509 1.46072,2.20345 1.46072,3.52599c0,0.561 -0.097,1.098 -0.268,1.602c-0.51511,0.17602 -1.05564,0.26622 -1.6,0.267c-1.32254,0.00027 -2.59101,-0.52493 -3.52628,-1.46001c-0.93527,-0.93509 -1.46072,-2.20345 -1.46072,-3.52599" fill="#b7b7b7" stroke="none" stroke-width="1"/><path d="M204.363,219.486h-5.773c-2.52371,-0.00055 -4.56945,-2.04629 -4.57,-4.57v-21.213h14.913v21.213c0,2.52394 -2.04606,4.57 -4.57,4.57" data-paper-data="{&quot;origPos&quot;:null}" fill="#42210b" stroke="#000000" stroke-width="0.5"/><path d="M208.933,214.916c0,2.52394 -2.04606,4.57 -4.57,4.57h-2.887v-25.783h7.457v21.213" fill="#592c16" stroke="none" stroke-width="1"/><path d="M280.215,219.486h-5.773c-2.52394,0 -4.57,-2.04606 -4.57,-4.57v-21.213h14.913v21.213c0,2.52394 -2.04606,4.57 -4.57,4.57" data-paper-data="{&quot;origPos&quot;:null}" fill="#42210b" stroke="#000000" stroke-width="0.5"/><path d="M284.786,214.916c0,2.52394 -2.04606,4.57 -4.57,4.57h-2.886v-25.783h7.455v21.213" data-paper-data="{&quot;origPos&quot;:null}" fill="#592c16" stroke="none" stroke-width="1"/><path d="M283.247,176.828c2.81843,2.58362 4.42309,6.23156 4.423,10.055v10.494c0,5.66 -4.589,10.25 -10.25,10.25h-76.453c-5.662,0 -10.25,-4.59 -10.25,-10.25v-10.494c-0.00009,-3.82344 1.60457,-7.47138 4.423,-10.055l10.49,-6.724l2.977,-18.572c1.24019,-2.75982 3.98433,-4.53509 7.01,-4.535h47.153c3.02567,-0.00009 5.76981,1.77518 7.01,4.535l2.978,18.572l10.49,6.724" data-paper-data="{&quot;origPos&quot;:null}" fill="#f4a53b" stroke="#000000" stroke-width="0.5"/><path d="M205.636,170.065c10.12,2.398 17.65,11.487 17.65,22.34c0.00698,5.61072 -2.04871,11.02825 -5.776,15.222h-16.545c-5.66,0 -10.25,-4.59 -10.25,-10.25v-10.493c-0.00011,-3.82394 1.60494,-7.47232 4.424,-10.056l10.49,-6.724l0.007,-0.04M287.671,197.377c0,5.66 -4.59,10.25 -10.25,10.25h-16.546c-3.591,-4.052 -5.775,-9.381 -5.775,-15.222c0,-10.853 7.532,-19.941 17.652,-22.341l0.006,0.04l10.49,6.724c2.818,2.583 4.424,6.231 4.424,10.056v10.493" data-paper-data="{&quot;origPos&quot;:null}" fill="#e29233" stroke="#000000" stroke-width="0.5"/><path d="M289.307,204.341h-99.267c-1.3441,0.02203 -2.59564,-0.68242 -3.27414,-1.84292c-0.67849,-1.16049 -0.67849,-2.59667 0,-3.75717c0.67849,-1.16049 1.93003,-1.86495 3.27414,-1.84292h99.266c2.03155,0.0333 3.66099,1.68968 3.66099,3.7215c0,2.03182 -1.62945,3.6882 -3.66099,3.7215" data-paper-data="{&quot;origPos&quot;:null}" fill="#e6e6e6" stroke="#000000" stroke-width="0.5"/><path d="M190.041,204.341c-2.05482,-0.00055 -3.72045,-1.66618 -3.721,-3.721h106.708c-0.00055,2.05482 -1.66618,3.72045 -3.721,3.721h-99.267" fill="#b3b3b3" stroke="none" stroke-width="1"/><path d="M266.943,186.661c0,-4.17803 3.38697,-7.565 7.565,-7.565c4.17803,0 7.565,3.38697 7.565,7.565c0,4.17831 -3.38719,7.5655 -7.5655,7.5655c-4.17831,0 -7.5655,-3.38719 -7.5655,-7.5655" data-paper-data="{&quot;origPos&quot;:null}" fill="#ffffff" stroke="#000000" stroke-width="0.5"/><path d="M271.621,186.819c0.00275,1.67985 1.36415,3.0408 3.044,3.043c1.68008,-0.00165 3.0418,-1.36292 3.044,-3.043c-0.00165,-1.68047 -1.36353,-3.04235 -3.044,-3.044c-1.68047,0.00165 -3.04235,1.36353 -3.044,3.044M268.903,186.819c0.00331,-3.18106 2.58094,-5.75914 5.762,-5.763c3.18083,0.00441 5.75814,2.58217 5.762,5.763c-0.00386,3.18067 -2.58133,5.75814 -5.762,5.762c-3.18067,-0.00386 -5.75814,-2.58133 -5.762,-5.762" data-paper-data="{&quot;origPos&quot;:null}" fill="#cccccc" stroke="none" stroke-width="1"/><path d="M277.556,192.405c0.02806,-1.44486 1.20736,-2.6015 2.6525,-2.6015c1.44514,0 2.62444,1.15663 2.6525,2.6015c0.01864,0.95992 -0.48281,1.85501 -1.31116,2.34044c-0.82835,0.48542 -1.85433,0.48542 -2.68268,0c-0.82835,-0.48542 -1.3298,-1.38051 -1.31116,-2.34044" data-paper-data="{&quot;origPos&quot;:null}" fill="#ec5c44" stroke="#000000" stroke-width="0.5"/><path d="M278.345,191.993c0.02065,-0.78681 0.66442,-1.4139 1.4515,-1.4139c0.78708,0 1.43085,0.62709 1.4515,1.4139c0.01385,0.52765 -0.25973,1.02126 -0.71453,1.28917c-0.45479,0.26791 -1.01915,0.26791 -1.47394,0c-0.45479,-0.26791 -0.72838,-0.76152 -0.71453,-1.28917" fill="#cc3a27" stroke="none" stroke-width="1"/><path d="M211.445,186.661c0,4.17803 -3.38697,7.565 -7.565,7.565c-4.17803,0 -7.565,-3.38697 -7.565,-7.565c0,-4.17803 3.38697,-7.565 7.565,-7.565c4.17803,0 7.565,3.38697 7.565,7.565" data-paper-data="{&quot;origPos&quot;:null}" fill="#ffffff" stroke="#000000" stroke-width="0.5"/><path d="M203.722,183.775c-1.68047,0.00165 -3.04235,1.36353 -3.044,3.044c0.00165,1.68047 1.36353,3.04235 3.044,3.044c1.68047,-0.00165 3.04235,-1.36353 3.044,-3.044c-0.00165,-1.68047 -1.36353,-3.04235 -3.044,-3.044M203.722,192.581c-3.18089,-0.00331 -5.75869,-2.58111 -5.762,-5.762c0.00276,-3.18128 2.58072,-5.75969 5.762,-5.763c3.18106,0.00386 5.75869,2.58194 5.762,5.763c-0.00386,3.18067 -2.58133,5.75814 -5.762,5.762" fill="#cccccc" stroke="none" stroke-width="1"/><path d="M200.831,192.405c0,1.46521 -1.18779,2.653 -2.653,2.653c-1.46521,0 -2.653,-1.18779 -2.653,-2.653c0,-1.46521 1.18779,-2.653 2.653,-2.653c1.46521,0 2.653,1.18779 2.653,2.653" data-paper-data="{&quot;origPos&quot;:null}" fill="#ec5c44" stroke="#000000" stroke-width="0.5"/><path d="M200.043,191.993c0,0.80192 -0.65008,1.452 -1.452,1.452c-0.80192,0 -1.452,-0.65008 -1.452,-1.452c0,-0.80192 0.65008,-1.452 1.452,-1.452c0.80192,0 1.452,0.65008 1.452,1.452" fill="#cc3a27" stroke="none" stroke-width="1"/><path d="M269.872,169.188h-61.356l2.306,-16.11c0.35854,-2.31099 2.34836,-4.01552 4.687,-4.015h47.37c2.3381,0.00039 4.32713,1.7046 4.686,4.015z" data-paper-data="{&quot;origPos&quot;:null}" fill="#192024" stroke="#000000" stroke-width="0.5"/><path d="M249.131,206.055h-18.915c-0.91428,0.00027 -1.79119,-0.36281 -2.43769,-1.00931c-0.6465,-0.6465 -1.00958,-1.52341 -1.00931,-2.43769v-3.977c0,-0.91411 0.3632,-1.79076 1.00966,-2.43704c0.64647,-0.64628 1.52323,-1.00922 2.43734,-1.00896h18.915c0.91411,-0.00027 1.79087,0.36268 2.43734,1.00896c0.64647,0.64628 1.00966,1.52293 1.00966,2.43704v3.977c0.00027,0.91428 -0.36281,1.79119 -1.00931,2.43769c-0.6465,0.6465 -1.52341,1.00958 -2.43769,1.00931" data-paper-data="{&quot;origPos&quot;:null}" fill="#ffffff" stroke="#000000" stroke-width="0.5"/><path d="M249.131,195.185c0.91411,-0.00027 1.79087,0.36268 2.43734,1.00896c0.64647,0.64628 1.00966,1.52293 1.00966,2.43704v2.352h-25.809v-2.352c0,-0.91411 0.3632,-1.79076 1.00966,-2.43704c0.64647,-0.64628 1.52323,-1.00922 2.43734,-1.00896h18.915" data-paper-data="{&quot;origPos&quot;:null}" fill="#f2f2f2" stroke="none" stroke-width="1"/><path d="M223.993,169.188l20.043,-20.125h4.004l-20.043,20.125z" fill="#374b54" stroke="none" stroke-width="1"/><path d="M232.468,169.188l20.042,-20.125h4.005l-20.042,20.125z" fill="#4e7684" stroke="none" stroke-width="1"/><path d="M240.944,169.188l20.041,-20.125h1.894c0.60422,0.00027 1.20275,0.11671 1.763,0.343l-19.694,19.782z" fill="#374b54" stroke="none" stroke-width="1"/><path d="M255.762,193.277h-33.527c-1.54344,-0.0006 -2.88672,-1.05565 -3.253,-2.555l-0.796,-3.26c-0.07244,-0.29732 -0.00432,-0.61144 0.18477,-0.85205c0.18909,-0.24061 0.47821,-0.38105 0.78423,-0.38095h39.688c0.30602,-0.0001 0.59514,0.14034 0.78423,0.38095c0.18909,0.24061 0.25721,0.55473 0.18477,0.85205l-0.796,3.26c-0.36637,1.49971 -1.71018,2.55486 -3.254,2.555" data-paper-data="{&quot;origPos&quot;:null}" fill="#ffffff" stroke="#000000" stroke-width="0.5"/><path d="M222.236,193.276c-1.54352,-0.00003 -2.88724,-1.05468 -3.254,-2.554l-0.135,-0.556h40.305l-0.136,0.556c-0.36676,1.49932 -1.71048,2.55397 -3.254,2.554h-33.526" fill="#e6e6e6" stroke="none" stroke-width="1"/><path d="M222.098,192.27c-0.23144,0 -0.45339,-0.09201 -0.61695,-0.25576c-0.16356,-0.16375 -0.25531,-0.3858 -0.25505,-0.61724v-3.288c0,-0.48187 0.39063,-0.8725 0.8725,-0.8725c0.48187,0 0.8725,0.39063 0.8725,0.8725v3.288c0,0.482 -0.39,0.873 -0.873,0.873M225.478,192.27c-0.23144,0 -0.45339,-0.09201 -0.61695,-0.25576c-0.16356,-0.16375 -0.25531,-0.3858 -0.25505,-0.61724v-3.288c0,-0.48187 0.39063,-0.8725 0.8725,-0.8725c0.48187,0 0.8725,0.39063 0.8725,0.8725v3.288c0,0.482 -0.39,0.873 -0.873,0.873M228.859,192.27c-0.23162,0.00027 -0.45382,-0.09163 -0.6176,-0.2554c-0.16378,-0.16378 -0.25567,-0.38598 -0.2554,-0.6176v-3.288c0,-0.48187 0.39063,-0.8725 0.8725,-0.8725c0.48187,0 0.8725,0.39063 0.8725,0.8725v3.288c0,0.482 -0.39,0.873 -0.872,0.873M232.239,192.27c-0.23162,0.00027 -0.45382,-0.09163 -0.6176,-0.2554c-0.16378,-0.16378 -0.25567,-0.38598 -0.2554,-0.6176v-3.288c0,-0.48187 0.39063,-0.8725 0.8725,-0.8725c0.48187,0 0.8725,0.39063 0.8725,0.8725v3.288c0,0.482 -0.39,0.873 -0.872,0.873M235.619,192.27c-0.23144,0 -0.45339,-0.09201 -0.61695,-0.25576c-0.16356,-0.16375 -0.25531,-0.3858 -0.25505,-0.61724v-3.288c0,-0.48159 0.39041,-0.872 0.872,-0.872c0.48159,0 0.872,0.39041 0.872,0.872v3.288c0,0.482 -0.39,0.873 -0.872,0.873M239,192.27c-0.23162,0.00027 -0.45382,-0.09163 -0.6176,-0.2554c-0.16378,-0.16378 -0.25567,-0.38598 -0.2554,-0.6176v-3.288c0,-0.48159 0.39041,-0.872 0.872,-0.872c0.48159,0 0.872,0.39041 0.872,0.872v3.288c0,0.482 -0.39,0.873 -0.872,0.873M242.38,192.27c-0.23171,0.00027 -0.45402,-0.09159 -0.61795,-0.25534c-0.16394,-0.16375 -0.25605,-0.38595 -0.25605,-0.61766v-3.288c0,-0.48214 0.39086,-0.873 0.873,-0.873c0.48214,0 0.873,0.39086 0.873,0.873v3.288c0,0.482 -0.39,0.873 -0.873,0.873M245.76,192.27c-0.48214,0 -0.873,-0.39086 -0.873,-0.873v-3.288c-0.01079,-0.31876 0.1531,-0.61803 0.4275,-0.78061c0.27439,-0.16258 0.61561,-0.16258 0.89,0c0.27439,0.16258 0.43829,0.46185 0.4275,0.78061v3.288c0,0.482 -0.39,0.873 -0.873,0.873M249.14,192.27c-0.23162,0.00027 -0.45382,-0.09163 -0.6176,-0.2554c-0.16378,-0.16378 -0.25567,-0.38598 -0.2554,-0.6176v-3.288c0,-0.48187 0.39063,-0.8725 0.8725,-0.8725c0.48187,0 0.8725,0.39063 0.8725,0.8725v3.288c0,0.482 -0.39,0.873 -0.873,0.873M252.52,192.27c-0.23162,0.00027 -0.45382,-0.09163 -0.6176,-0.2554c-0.16378,-0.16378 -0.25567,-0.38598 -0.2554,-0.6176v-3.288c0,-0.48187 0.39063,-0.8725 0.8725,-0.8725c0.48187,0 0.8725,0.39063 0.8725,0.8725v3.288c0,0.482 -0.39,0.873 -0.873,0.873M255.9,192.27c-0.23162,0.00027 -0.45382,-0.09163 -0.6176,-0.2554c-0.16378,-0.16378 -0.25567,-0.38598 -0.2554,-0.6176v-3.288c0,-0.48187 0.39063,-0.8725 0.8725,-0.8725c0.48187,0 0.8725,0.39063 0.8725,0.8725v3.288c0,0.482 -0.39,0.873 -0.873,0.873" data-paper-data="{&quot;origPos&quot;:null}" fill="#b3b3b3" stroke="#000000" stroke-width="0.5"/><path d="M242.775,180.747c0.02014,1.12133 -0.56656,2.16621 -1.53445,2.73277c-0.96789,0.56656 -2.16621,0.56656 -3.1341,0c-0.96789,-0.56656 -1.55459,-1.61144 -1.53445,-2.73277c0.03037,-1.6912 1.41002,-3.04631 3.1015,-3.04631c1.69148,0 3.07113,1.3551 3.1015,3.04631" data-paper-data="{&quot;origPos&quot;:null}" fill="#ffffff" stroke="#000000" stroke-width="0.5"/></g></g></svg>