<svg version="1.1" xmlns="http://www.w3.org/2000/svg" xmlns:xlink="http://www.w3.org/1999/xlink" width="120.50018" height="120.50002" viewBox="0,0,120.50018,120.50002"><g transform="translate(-179.74999,-119.74998)"><g data-paper-data="{&quot;isPaintingLayer&quot;:true}" fill-rule="evenodd" stroke-linecap="butt" stroke-linejoin="miter" stroke-miterlimit="10" stroke-dasharray="" stroke-dashoffset="0" style="mix-blend-mode: normal"><path d="M261.797,238.125c-10.898,2.5 -32.695,2.5 -43.594,0c-19.555,-4.485 -31.883,-16.764 -36.328,-36.328c-2.512,-11.056 -2.488,-32.85 0,-43.594c4.527,-19.546 16.785,-31.788 36.328,-36.328c10.693,-2.484 32.487,-2.516 43.594,0c19.567,4.433 31.675,16.812 36.328,36.328c2.452,10.285 2.548,32.058 0,43.594c-4.327,19.591 -16.773,31.843 -36.328,36.328" data-paper-data="{&quot;origPos&quot;:null}" fill="#62d31a" stroke="#000000" stroke-width="0.5"/><path d="M271.64,228.281c7.165,-1.644 13.365,-4.341 18.572,-8.048c-6.426,9.029 -15.976,15.038 -28.416,17.892c-10.898,2.5 -32.694,2.5 -43.594,0c-19.555,-4.486 -31.883,-16.764 -36.328,-36.328c-2.51,-11.056 -2.487,-32.851 0,-43.594c2.876,-12.412 8.879,-21.866 17.874,-28.286c-3.687,5.167 -6.379,11.312 -8.03,18.442c-2.488,10.744 -2.512,32.538 0,43.594c4.445,19.564 16.773,31.843 36.328,36.328c10.899,2.5 32.696,2.5 43.594,0" data-paper-data="{&quot;origPos&quot;:null}" fill="#5bbf1b" stroke="none" stroke-width="0"/><path d="M276.233,171.824c3.337,5.811 -0.083,10.985 -8.328,13.263v14.074c0,7.021 -5.863,12.714 -13.097,12.714h-1.54c-1.496,0 -2.71,-1.178 -2.71,-2.632v-14.302c0,-4.365 -3.646,-7.905 -8.145,-7.905h-4.837c-4.498,0 -8.145,3.539 -8.145,7.905v14.302c0,1.454 -1.213,2.632 -2.71,2.632h-2.652c-7.233,0 -13.097,-5.693 -13.097,-12.714v-14.352c-7.379,-2.357 -9.929,-7.199 -7.683,-12.985c2.25,-5.796 12.111,-17.716 23.031,-23.696c8.819,-4.83 18.615,-5.175 26.883,0c7.176,4.492 18.76,16.266 23.03,23.696" data-paper-data="{&quot;origPos&quot;:null}" fill="#ffffff" stroke="#000000" stroke-width="0.5"/></g></g></svg>