<svg version="1.1" xmlns="http://www.w3.org/2000/svg" xmlns:xlink="http://www.w3.org/1999/xlink" width="31.41041" height="28.89521" viewBox="0,0,31.41041,28.89521"><g transform="translate(-224.29479,-165.55241)"><g data-paper-data="{&quot;isPaintingLayer&quot;:true}" fill-rule="evenodd" stroke-linecap="butt" stroke-linejoin="miter" stroke-miterlimit="10" stroke-dasharray="" stroke-dashoffset="0" style="mix-blend-mode: normal"><path d="M246.64297,165.55243c5.00608,0 9.0625,4.24829 9.06224,9.48707c0,1.40694 -0.25574,2.7555 -0.65439,4.0559c-0.217,0.71512 -0.70988,1.81083 -0.70988,1.81083c-3.82032,8.21337 -14.3408,13.5414 -14.3408,13.5414c0,0 -10.51891,-5.32804 -14.33976,-13.54114c-0.33452,-0.64392 -0.71119,-1.81083 -0.71119,-1.81083c-0.41698,-1.29543 -0.65439,-2.64897 -0.65439,-4.05643c0,-5.23904 4.05695,-9.48681 9.06276,-9.48655c2.6241,0 4.98828,1.17031 6.64257,3.03637c1.6543,-1.86606 4.01873,-3.03663 6.64257,-3.03663" data-paper-data="{&quot;origPos&quot;:null}" fill="#ffffff" stroke="none" stroke-width="1"/><path d="M245.87498,167.2266c4.42498,0 8.01312,3.75515 8.01312,8.38927c0,1.24177 -0.2272,2.43537 -0.57796,3.58265c-0.19396,0.63528 -0.62978,1.60116 -0.62978,1.60116c-3.37717,7.26503 -12.68023,11.97532 -12.68023,11.97532c0,0 -9.30279,-4.71029 -12.68049,-11.97532c-0.29526,-0.56565 -0.62926,-1.60116 -0.62926,-1.60116c-0.36567,-1.14204 -0.57848,-2.34088 -0.57848,-3.58265c0,-4.63412 3.58815,-8.38927 8.01496,-8.38927c2.31968,0 4.41006,1.03132 5.87327,2.68038c1.46321,-1.64906 3.55333,-2.68038 5.87484,-2.68038" data-paper-data="{&quot;origPos&quot;:null}" fill="#774111" stroke="none" stroke-width="1"/><path d="M245.68547,167.63365c4.28546,0 7.75634,3.63631 7.75634,8.12071c0,1.2046 -0.21883,2.35894 -0.55963,3.47088c-0.18585,0.61382 -0.60649,1.54933 -0.60649,1.54933c-3.27037,7.03049 -12.27581,11.58975 -12.27581,11.58975c0,0 -9.00465,-4.55926 -12.27503,-11.58949c-0.28479,-0.54969 -0.60832,-1.54959 -0.60832,-1.54959c-0.35703,-1.10827 -0.55806,-2.26628 -0.55806,-3.47088c0,-4.4844 3.47245,-8.12071 7.7553,-8.12071c2.24586,0 4.26871,1.00148 5.68638,2.59923c1.41793,-1.59776 3.44052,-2.59923 5.68533,-2.59923" data-paper-data="{&quot;origPos&quot;:null}" fill="#ed3132" stroke="#000000" stroke-width="0.5"/><path d="M240.2543,170.59383c0,0 8.78112,-7.064 12.24048,3.58291c0,0 -4.15406,-7.39145 -12.24022,-3.58291" data-paper-data="{&quot;origPos&quot;:null}" fill="#ffffff" stroke="none" stroke-width="1" opacity="0.3"/></g></g></svg>