<svg version="1.1" xmlns="http://www.w3.org/2000/svg" xmlns:xlink="http://www.w3.org/1999/xlink" width="542.503" height="420.973" viewBox="0,0,542.503,420.973"><defs><linearGradient x1="273.08344" y1="264.03572" x2="493.81552" y2="264.03572" gradientUnits="userSpaceOnUse" id="color-1"><stop offset="0" stop-color="#333b5c"/><stop offset="1" stop-color="#39898c"/></linearGradient></defs><g transform="translate(25,60.016)"><g data-paper-data="{&quot;isPaintingLayer&quot;:true}" stroke-linecap="butt" stroke-linejoin="miter" stroke-miterlimit="10" stroke-dasharray="" stroke-dashoffset="0" style="mix-blend-mode: normal"><path d="M-8.55908,-60.016h511.203v300.768h-511.203z" data-paper-data="{&quot;origPos&quot;:null}" fill="#001a8c" fill-rule="nonzero" stroke="none" stroke-width="1"/><path d="M317.22,166.184c0,0 9.275,-17.134 31.987,-8.834c0,0 0.73,-7.135 9.275,-5.873c0,0 3.396,-8.93 16.432,-6.407c13.035,2.524 21.251,-17.327 32.206,-11.94c0,0 15.08,-6.358 26.509,9.077c0,0 11.356,-4.514 17.344,6.261c0,0 11.503,-6.795 21.106,2.475c0,0 7.522,-1.213 10.662,6.698c3.177,7.912 -6.061,15.823 -14.423,11.552c0,0 -2.118,6.358 -11.648,9.028c0,0 -8.545,-0.34 -11.21,7.232c-2.63,7.571 -10.59,5.97 -10.59,5.97c0,0 3.396,8.882 21.142,4.174c17.71,-4.708 22.092,6.455 22.092,6.455c0,0 6.937,-5.484 12.999,0.34c6.025,5.824 17.089,-5.873 26.4,1.747l-0.475,32.617l-200.684,-5.194l0.877,-65.378zM134.751,183.662c0,0 -7.412,-10.304 -25.524,-5.298c0,0 -0.584,-4.275 -7.412,-3.544c0,0 -2.702,-5.371 -13.109,-3.837c-10.406,1.498 -16.979,-10.412 -25.706,-7.197c0,0 -12.05,-3.837 -21.142,5.444c0,0 -9.092,-2.74 -13.839,3.763c0,0 -9.202,-4.092 -16.833,1.498c0,0 -5.988,-0.73 -8.508,4.019c-2.52,4.75 4.82,9.5 11.539,6.942c0,0 1.68,3.836 9.31,5.444c0,0 6.829,-0.183 8.947,4.348c2.118,4.53 8.471,3.58 8.471,3.58c0,0 -2.738,5.335 -16.87,2.521c-14.13,-2.813 -17.636,3.873 -17.636,3.873c0,0 -5.55,-3.325 -10.37,0.22c-4.82,3.507 -13.657,-3.545 -21.069,1.059l0.365,19.583l160.226,-3.142z" data-paper-data="{&quot;origPos&quot;:null}" fill="#435a87" fill-rule="nonzero" stroke="none" stroke-width="1"/><g data-paper-data="{&quot;origPos&quot;:null}" fill="#a7b4c8" fill-rule="nonzero" stroke="none" stroke-width="1"><path d="M227.22,196.184c0,0 9.275,-17.134 31.987,-8.834c0,0 0.73,-7.135 9.275,-5.873c0,0 3.396,-8.93 16.432,-6.407c13.035,2.524 21.251,-17.327 32.206,-11.94c0,0 15.08,-6.358 26.509,9.077c0,0 11.356,-4.514 17.344,6.261c0,0 11.503,-6.795 21.106,2.475c0,0 7.522,-1.213 10.662,6.698c3.177,7.912 -6.061,15.823 -14.423,11.552c0,0 -2.118,6.358 -11.648,9.028c0,0 -8.545,-0.34 -11.21,7.232c-2.63,7.571 -10.59,5.97 -10.59,5.97c0,0 3.396,8.882 21.142,4.174c17.71,-4.708 22.092,6.455 22.092,6.455c0,0 6.937,-5.484 12.999,0.34c6.025,5.824 17.089,-5.873 26.4,1.747l-0.475,32.617l-200.684,-5.194l0.877,-65.378z"/><path d="M268.811,269.584l-239.426,4.677l-0.584,-29.266c11.064,-6.869 24.282,3.69 31.475,-1.571c7.193,-5.225 15.483,-0.292 15.483,-0.292c0,0 5.221,-10.011 26.363,-5.81c21.142,4.202 25.195,-3.763 25.195,-3.763c0,0 -9.494,1.462 -12.634,-5.334c-3.177,-6.759 -13.364,-6.468 -13.364,-6.468c-11.392,-2.374 -13.912,-8.11 -13.912,-8.11c-10.042,3.836 -20.996,-3.252 -17.235,-10.377c3.761,-7.088 12.743,-6.028 12.743,-6.028c11.429,-8.33 25.159,-2.229 25.159,-2.229c7.12,-9.645 20.704,-5.59 20.704,-5.59c13.62,-13.884 31.621,-8.148 31.621,-8.148c13.073,-4.822 22.858,13.007 38.413,10.742c15.556,-2.229 19.572,5.773 19.572,5.773c10.188,-1.169 11.064,5.261 11.064,5.261c27.094,-7.453 38.158,7.929 38.158,7.929z"/><path d="M205.348,182.495l0.84,39.276l-160.225,3.142l-0.366,-19.583c7.413,-4.604 16.25,2.448 21.07,-1.059c4.82,-3.545 10.37,-0.22 10.37,-0.22c0,0 3.505,-6.686 17.636,-3.873c14.131,2.814 16.87,-2.521 16.87,-2.521c0,0 -6.354,0.95 -8.472,-3.58c-2.117,-4.531 -8.946,-4.348 -8.946,-4.348c-7.631,-1.608 -9.311,-5.444 -9.311,-5.444c-6.718,2.558 -14.058,-2.192 -11.538,-6.942c2.519,-4.749 8.507,-4.019 8.507,-4.019c7.632,-5.59 16.833,-1.498 16.833,-1.498c4.747,-6.503 13.84,-3.763 13.84,-3.763c9.092,-9.281 21.142,-5.444 21.142,-5.444c8.726,-3.215 15.299,8.695 25.706,7.197c10.406,-1.534 13.108,3.837 13.108,3.837c6.829,-0.731 7.413,3.544 7.413,3.544c18.111,-5.006 25.524,5.298 25.524,5.298z"/></g><path d="M479.42046,196.10474l0.14954,134.943h-504.42373v-97.387l24.82418,-21.848v1.285h2.10615v-4.998h-0.7519v-16.564l3.60995,-0.714h0.90249v-2.714l1.95556,-0.428h3.611v2.999h6.468v-0.714h0.45072v0.714h5.8688v15.707h0.45072v1.714h0.45177v2h3.15923v0.57h0.45282v1.857h1.35215v-2.142h0.45177v-1.428h0.45072v-1.143h0.45177v-1.285h1.20367v1.285h0.45072v1.143h0.45177v1.428h1.05308v-17.993l1.95556,-0.428h2.70851v-0.428h0.30013v0.571h6.31846v-2.856l2.40733,-0.428h3.46041v2.57h4.9642v19.706h0.60131v-3.427h0.45177v-1.856h2.85805v-1h0.30118v-4.855h0.30118v-2.857h0.15059v-1.57h0.30013v-0.714h1.50485v-5.854h2.70746v-8.14h4.3629c0,-1.285 2.70851,-1.285 2.70851,0h12.63692v-0.429h10.38018l1.20367,1.286v3.712h2.25569l0.60236,0.572v1.285h0.30118v12.28h0.60131v-0.571h1.65438v0.571h1.05308v-6.997l2.25674,-0.428h3.15923v-0.429h0.45177v0.572h2.10615l0.30118,-0.429v-2.427h0.45072v0.428l2.40733,-0.286v-0.571l0.45072,-0.285v-0.572l0.15059,-0.142v0.714l0.60236,0.428v0.714h2.55687v2.999h0.30118v-1.285l1.05308,-1.286c0,-1.713 3.00864,-1.713 3.00864,0l0.15059,0.428h0.45177l0.45072,1v1.143h1.50485v0.428h0.45072v1.143h1.35426v3.712l0.7519,0.286v11.281h1.35426v11.852h3.15923v-16.279h0.90249v-0.857h0.60236l2.25569,-1.285v-0.857h0.30118v1h4.66408v0.428h1.3532v-0.285h1.35426v0.428h1.05308v-0.428h1.20367l0.30118,-3.855l0.90249,-3l0.30118,0.857v-3.141l0.30013,-0.286v0.857h0.30118v-1.142l0.30118,-0.143v-3.999h0.30013v0.429l0.60236,-0.715v-1.57l0.45072,-0.143v-1.427c-0.14954,0 -0.30013,-0.286 -0.30013,-0.43c0,-0.285 0.30013,-0.57 0.60131,-0.57c0.30118,0 0.60236,0.285 0.60236,0.571c0,0.143 0,0.286 -0.30118,0.428v1.428l0.45072,0.286v1.571l0.75295,0.714v3.712l0.45072,0.286v0.857h0.45177v0.856h0.45072v0.429h-0.45072v1.571h0.30118v-0.714h0.30013v-0.429h0.30118l0.7519,2.285l0.30118,4.712h0.60131v-3.57h-0.60131v-22.847l4.51349,-0.714v0.428h0.60131c-0.15059,-1.713 -0.15059,-2.998 0.45177,-4.712h3.30982v4.712h4.51243v15.28h7.9739v2.998h0.90249v-0.714h0.7519v0.429h0.45177v-0.429h0.45072v0.286h0.45177v-0.286h0.7519v0.429h0.60236v0.714h1.20261v0.285h2.25674v0.286h1.35426v-1.714l0.60131,-0.428v-2.428l1.05308,-0.856l1.05308,0.714v2.57l0.45177,0.143v1.713l3.46041,0.143v2.57h0.60131l0.45177,-0.428h8.12343v-5.141l1.50485,-0.856v-4.142l1.05308,-0.428v-0.714l2.25569,-1.142h0.15059v0.428h0.30118v-0.428l0.60131,-0.429h2.70851v1h1.35426v1.285h1.05308v3.998l1.50379,0.999v4.57h3.76159v2l1.05308,-0.428h2.70746l1.05308,-1l1.05308,1h0.7519v4.14h1.95556v2.142h1.20367v-8.14l0.45177,-0.57v-9.996l0.45072,-0.428l0.45177,0.285v-24.704l9.02592,-0.714l0.30118,-1.142l0.30118,0.857h2.10615v1.142l0.7519,0.428v5.427l0.60236,1.571v11.851h0.45072c0,-1.285 0.60236,-1.285 0.60236,0v15.28h11.13207v-8.425l0.45177,-0.286v-2.284l1.3532,-1.143v-2.285l0.45177,-0.285v-8.282l0.45072,-0.429v-2.856l1.05308,-0.428h1.80603v-0.428h0.7519l0.30118,0.428h1.50379v3.141h1.50485v16.136h4.21231v-34.128l6.76918,-1.286v-8.71l4.51349,-2.142c11.88502,0.429 23.0171,1.142 27.37999,3.142v32.272l0.7519,-0.428l2.70851,-94.532l5.86669,-0.714v-1.856c1.65544,-0.429 3.15923,-0.857 4.51349,-0.999l1.05308,-32.13h0.30118l0.7519,31.844c1.95556,0 3.91113,0.142 6.61964,0.428c0.60131,0.428 0.60131,0.857 0.15059,1.428c0.45072,0.428 0.45072,0.714 0.14954,1.142c0.30118,0.429 0.45177,0.714 0.15059,1.143l3.00864,1.142l2.10615,72.398l0.45177,-0.143v-0.856h0.15059v-1l10.68136,-7.283l10.83089,6.283v1.999h1.65544v-15.422l2.85805,-0.856h18.6542v0.285h0.90354v28.56h0.90249v-1.857h0.45072c2.70851,-6.711 13.53941,-7.14 16.69864,-0.143h0.45177v1.714l4.3629,0.143v2.856h0.30118v5.14h2.10615v12.852h0.90249l3.60995,7.854v1.285h0.30118v-0.428l0.30118,-0.286l0.30013,0.286v0.571h0.30118v-0.429h0.90249v-2.998l6.16787,-0.286v-11.281h0.15059v-3.284h0.45177v-1.428h0.45072v-1h1.35426v-0.428h1.35426v-2.856h0.60131v0.428h1.95556v-0.428h0.60236v2.999h0.7519v-1.428l4.3629,-0.857v-0.428h2.25674v0.428l3.15923,0.286v4.855h1.20367v-2.142l3.91113,-3.285l4.66408,-0.428l5.86669,0.286l3.76054,3.141v2.142h1.50485v2.285h0.30118v2.427h4.9642v0.429h1.20367v0.714h0.7519v0.428h3.611v7.568h1.65438v0.572l10.08005,1.713z" data-paper-data="{&quot;origPos&quot;:null}" fill="#1d204d" fill-rule="nonzero" stroke="none" stroke-width="1"/><path d="M-10.817,240.752c9.383,0 28.919,-32.664 48.673,-36.135c19.426,-3.434 28.226,7.527 37.355,15.199c9.128,7.673 24.355,20.936 24.355,20.936z" data-paper-data="{&quot;origPos&quot;:null}" fill="#71913e" fill-rule="nonzero" stroke="none" stroke-width="1"/><path d="M197.861,242.907v0.102c-0.034,-0.034 -0.034,-0.068 0,-0.102zM164.671,249.17v-0.27z" fill="none" fill-rule="evenodd" stroke="#231f20" stroke-width="0.5"/><path d="M330.666,249.17v-0.27zM297.511,242.907z" fill="none" fill-rule="evenodd" stroke="none" stroke-width="1"/><path d="M225.249,240.751h-110.383c9.347,0 28.919,-28.498 48.673,-31.53c19.426,-2.996 28.226,6.576 37.355,13.262c9.128,6.687 24.355,18.269 24.355,18.269z" data-paper-data="{&quot;origPos&quot;:null}" fill="#5e7b14" fill-rule="nonzero" stroke="none" stroke-width="1"/><path d="M37.09,240.752c0,0 19.206,-5.846 36.66,-13.628c18.258,-8.148 40.787,-8.44 57.438,0c16.833,8.513 36.258,13.628 36.258,13.628zM386.643,240.752c0,0 19.207,-5.846 36.624,-13.628c18.258,-8.148 40.787,-8.44 57.438,0c16.833,8.513 36.258,13.628 36.258,13.628z" data-paper-data="{&quot;origPos&quot;:null}" fill="#4b6021" fill-rule="nonzero" stroke="none" stroke-width="1"/><path d="M316.28,240.752c0,0 13.985,-8.3358 22.383,-13.14818c8.398,-4.8994 36.259,-28.61786 70.217,0c0,0 14.971,11.85923 23.662,13.14818z" data-paper-data="{&quot;origPos&quot;:null}" fill="#627d36" fill-rule="nonzero" stroke="none" stroke-width="1"/><path d="M234.61463,240.751l-183.047,120.205h-58.789v-37.706l233.328,-82.498zM503.98163,323.14v37.817h-58.788l-183.047,-120.205h8.8z" data-paper-data="{&quot;origPos&quot;:null}" fill="#88a057" fill-rule="nonzero" stroke="none" stroke-width="1"/><path d="M239.61663,240.752l-164.205,120.205h-23.844l183.047,-120.205zM262.14763,240.752l183.046,120.205h-23.552l-164.206,-120.205z" data-paper-data="{&quot;origPos&quot;:null}" fill="#bda67d" fill-rule="nonzero" stroke="none" stroke-width="1"/><path d="M257.43563,240.752l164.206,120.205h-346.23l164.205,-120.205h8.764z" data-paper-data="{&quot;origPos&quot;:null}" fill="#7e8080" fill-rule="nonzero" stroke="none" stroke-width="1"/><path d="M226.10663,240.751l-233.328,82.5v-82.499z" data-paper-data="{&quot;origPos&quot;:null}" fill="#5c8525" fill-rule="nonzero" stroke="none" stroke-width="1"/><path d="M441.707,268.519c14.095,-0.913 32.023,10.303 61.417,10.523v44.1l-233.036,-82.39h233v14.651c-11.867,-2.704 -45.315,-9.426 -67.479,-4.786c-27.312,5.735 -51.23,-7.892 -59.702,5.845c-8.47,13.738 51.012,13.044 65.8,12.058z" data-paper-data="{&quot;origPos&quot;:null}" fill="#5c8525" fill-rule="nonzero" stroke="none" stroke-width="1"/><path d="M503.161,255.403v23.639c-29.394,-0.219 -47.323,-11.436 -61.417,-10.522c-14.789,0.986 -74.271,1.68 -65.799,-12.057c8.471,-13.738 32.351,-0.146 59.701,-5.846c22.165,-4.64 55.612,2.082 67.515,4.786z" data-paper-data="{&quot;origPos&quot;:null}" fill="url(#color-1)" fill-rule="nonzero" stroke="none" stroke-width="1"/><path d="M164.671,249.17v-0.27zM197.861,242.907v0.102c-0.034,-0.034 -0.034,-0.068 0,-0.102z" fill="none" fill-rule="evenodd" stroke="none" stroke-width="1"/><path d="M225.249,240.75l-233.182,82.5v-18.232c0.256,0.037 0.511,0.183 0.767,0.658c0,0 1.57,-1.535 3.359,0c0,0 0.914,0.256 0.694,-0.402c0,0 -0.548,-3.215 1.096,-3.288c0,0 -0.402,-2.814 2.483,-1.9c0,0 0.547,-0.439 0.912,0.036c0,0 -0.109,-2.886 2.337,-2.703c2.447,0.219 2.009,2.85 2.009,2.85c0,0 0.292,-1.17 1.825,-0.84c0,0 -0.365,-3.581 2.593,-3.91c0,0 1.241,-0.146 1.534,0.95c0,0 0.693,-3.216 3.103,-2.046c0,0 0.475,-1.644 2.556,-1.534c0,0 1.497,-3.508 4.893,-1.28c0,0 1.789,-0.402 2.118,2.448c0,0 1.205,-2.63 3.213,-0.584c0,0 1.352,0.073 1.242,2.155c0,0 0.475,-1.132 1.46,-0.657c0,0 0.146,-1.937 1.936,-1.242c0,0 -1.351,-4.093 2.264,-5.408c0,0 -0.073,-2.484 2.117,-1.644c0,0 0.877,-0.146 1.205,0.731c0,-0.329 0.11,-0.804 1.096,-1.023c0,0 0.986,-1.754 2.483,-0.146c0,0 0.548,-0.073 0.73,0.475c0,0 0.438,-1.572 1.972,-1.097c0,0 0.694,-1.863 2.556,-0.876c0,0 1.789,0 1.643,1.754c0,0 0.366,-0.44 0.876,-0.11c0,0 0.439,-1.791 2.264,-0.658c0,0 1.388,-0.548 1.972,1.06c0,0 0.328,0.438 0.658,0c0,0 0.145,-2.668 2.19,-1.608c0,0 3.871,1.425 3.067,5.444c0,0 0.548,-1.388 1.644,-1.06c0,0 -1.68,-3.215 1.606,-3.982c0,0 -2.227,-5.298 2.775,-6.43c0,0 3.104,-0.987 3.798,1.936c0,0 1.095,-2.119 2.738,-0.182c0,0 0.731,-1.243 1.168,-0.22c0,0 1.571,-0.073 1.06,1.462c0,0 0.255,-0.987 1.57,-0.402c0,0 -0.147,-3.983 2.373,-2.85c0,0 1.242,-0.074 1.388,0.986c0,-0.475 0.256,-1.425 1.789,-1.132c0,0 -0.511,-4.202 2.52,-2.704c0,0 1.387,-0.146 0.84,1.936c0,0 0.949,0.037 0.62,0.804c0,0 1.351,-0.913 2.593,0.329c0,0 0.511,-2.338 3.067,-0.987c0,0 0.401,-1.059 2.081,-1.132c0,0 0,-1.389 1.57,-1.425c0,0 0.658,-0.512 1.023,0.402c0,0 -0.073,-1.316 1.424,-1.206c0,0 0.402,-1.169 1.424,-0.767c0,0 1.461,-0.219 1.607,1.243c0,0 0.913,-1.097 1.643,-1.06c0,0 1.205,-0.695 1.862,1.205c0,0 1.242,-0.292 1.497,0.768c0,0 0.876,-1.097 1.716,0.073c0,0 0.913,-0.986 1.716,-0.256c0,0 0.475,-0.804 1.315,-0.073c0,0 -1.388,-2.522 1.862,-3.142c0,0 0.987,-0.402 0.877,1.06c0.073,-0.44 0.328,-1.937 1.898,-2.01c0,0 1.059,-0.877 1.863,0.036c0,0 1.022,0.366 0.438,2.156c0,0 1.132,-0.914 2.264,0.402c0,0 0.474,-1.79 2.556,-1.06c0,0 -0.512,-1.9 1.205,-1.315c0,0 0.292,-0.658 1.095,-0.183c0,0 0.511,-1.827 1.899,-1.023c0,0 0.694,-0.219 0.877,0.512c0,0 0.255,-1.973 1.46,-1.133c0,0 0.621,0 0.548,0.512c0,0 0.073,-1.133 1.204,-1.133c0,0 0.439,-0.767 0.913,0.073c0,0 -0.036,-1.68 1.607,-1.79c0,0 1.096,-0.585 1.606,0.621c0,0 1.023,-1.425 2.63,0c0,0 1.132,-0.549 1.752,0.511c0,0 0.914,-1.461 2.264,-0.73c0,0 -0.109,-0.256 -0.073,-0.512c-0.255,-2.813 2.519,-3.581 2.519,-3.581c-1.131,-2.192 1.68,-4.53 1.68,-4.53c0,0 0.548,-1.388 1.644,-1.06c0,0 -1.68,-3.215 1.606,-3.982c0,0 -2.227,-5.298 2.775,-6.43c0,0 3.104,-0.987 3.798,1.936c0,0 1.095,-2.119 2.738,-0.182c0,0 0.731,-1.243 1.168,-0.22c0,0 1.571,-0.073 1.06,1.462c0,0 0.255,-0.987 1.57,-0.402c0,0 -0.147,-3.983 2.373,-2.85c0,0 1.242,-0.074 1.387,0.986c-0.036,0.183 0,0.293 0,0.293v-0.293c0,-0.475 0.257,-1.425 1.79,-1.132c0,0 -0.511,-4.202 2.52,-2.704c0,0 1.387,-0.146 0.84,1.936c0,0 0.949,0.037 0.62,0.804c0,0 1.351,-0.913 2.593,0.329c0,0 0.511,-2.338 3.067,-0.986c0,0 0.401,-1.06 2.081,-1.133c0,0 0,-1.388 1.57,-1.425c0,0 0.658,-0.511 1.023,0.402c0,0 -0.073,-1.316 1.424,-1.206c0,0 0.402,-1.169 1.424,-0.767c0,0 1.461,-0.219 1.607,1.243c0,0 0.913,-1.097 1.643,-1.06c0,0 1.205,-0.695 1.862,1.205c0,0 1.241,-0.292 1.497,0.768c0,0 0.876,-1.097 1.716,0.073c0,0 0.913,-0.986 1.716,-0.256c0,0 0.475,-0.803 1.315,-0.073c0,0 -1.388,-2.521 1.862,-3.143c0,0 0.987,-0.401 0.877,1.06v0.002c0.073,-0.44 0.328,-1.937 1.898,-2.01c0,0 1.059,-0.877 1.863,0.036c0,0 1.022,0.366 0.438,2.156c0,0 1.132,-0.913 2.264,0.402c0,0 0.474,-1.79 2.556,-1.06c0,0 -0.512,-1.9 1.205,-1.315c0,0 0.292,-0.658 1.095,-0.183c0,0 0.511,-1.827 1.899,-1.023c0,0 0.694,-0.218 0.877,0.512c0,0 0.255,-1.973 1.46,-1.133c0,0 0.62,0 0.547,0.512c0,0 0.073,-1.133 1.205,-1.133c0,0 0.439,-0.767 0.913,0.073c0,0 -0.036,-1.68 1.607,-1.79c0,0 1.059,-0.585 1.57,0.621c0,0 1.022,-1.425 2.629,0c0,0 1.133,-0.548 1.753,0.512c2.41,1.205 1.643,2.74 1.643,2.74z" data-paper-data="{&quot;origPos&quot;:null}" fill="#708f3e" fill-rule="nonzero" stroke="none" stroke-width="1"/><path d="M297.511,242.907zM330.666,248.9z" fill="none" fill-rule="evenodd" stroke="none" stroke-width="1"/><path d="M502.686,305.641c0.146,-0.255 0.292,-0.438 0.438,-0.511v18.011l-232.816,-82.426c0,0 -0.803,-1.534 1.643,-2.74c0.621,-1.06 1.752,-0.512 1.752,-0.512c1.57,-1.461 2.63,0 2.63,0c0.511,-1.205 1.57,-0.62 1.57,-0.62c1.68,0.109 1.607,1.79 1.607,1.79c0.474,-0.841 0.912,-0.073 0.912,-0.073c1.095,0.036 1.205,1.132 1.205,1.132c-0.109,-0.548 0.549,-0.511 0.549,-0.511c1.24,-0.841 1.46,1.132 1.46,1.132c0.182,-0.731 0.876,-0.511 0.876,-0.511c1.424,-0.804 1.899,1.023 1.899,1.023c0.803,-0.512 1.095,0.182 1.095,0.182c1.716,-0.585 1.205,1.315 1.205,1.315c2.082,-0.73 2.556,1.06 2.556,1.06c1.132,-1.315 2.264,-0.402 2.264,-0.402c-0.548,-1.79 0.438,-2.155 0.438,-2.155c0.803,-0.95 1.863,-0.037 1.863,-0.037c1.606,0.073 1.862,1.571 1.898,2.01c-0.109,-1.462 0.877,-1.06 0.877,-1.06c3.212,0.622 1.862,3.142 1.862,3.142c0.84,-0.73 1.314,0.073 1.314,0.073c0.804,-0.73 1.717,0.256 1.717,0.256c0.803,-1.169 1.716,-0.073 1.716,-0.073c0.255,-1.059 1.497,-0.767 1.497,-0.767c0.657,-1.9 1.862,-1.206 1.862,-1.206c0.73,-0.036 1.643,1.06 1.643,1.06c0.11,-1.462 1.607,-1.243 1.607,-1.243c1.022,-0.402 1.424,0.768 1.424,0.768c1.461,-0.11 1.424,1.205 1.424,1.205c0.365,-0.876 1.023,-0.401 1.023,-0.401c1.57,0.036 1.57,1.424 1.57,1.424c1.643,0.073 2.081,1.133 2.081,1.133c2.556,-1.352 3.067,0.987 3.067,0.987c1.242,-1.206 2.593,-0.329 2.593,-0.329c-0.329,-0.768 0.62,-0.804 0.62,-0.804c-0.547,-2.083 0.84,-1.937 0.84,-1.937c3.031,-1.461 2.519,2.704 2.519,2.704c1.534,-0.292 1.79,0.658 1.79,1.133c0.146,-1.06 1.387,-0.987 1.387,-0.987c2.52,-1.132 2.374,2.85 2.374,2.85c1.314,-0.584 1.57,0.402 1.57,0.402c-0.511,-1.534 1.059,-1.462 1.059,-1.462c0.438,-1.022 1.168,0.22 1.168,0.22c1.644,-1.937 2.739,0.183 2.739,0.183c0.73,-2.923 3.798,-1.937 3.798,-1.937c4.965,1.133 2.775,6.43 2.775,6.43c3.286,0.768 1.606,3.983 1.606,3.983c1.059,-0.365 1.643,1.06 1.643,1.06c0,0 2.812,2.338 1.68,4.53c0,0 2.775,0.804 2.52,3.581c0.037,0.255 -0.073,0.512 -0.073,0.512c1.351,-0.732 2.263,0.73 2.263,0.73c0.621,-1.06 1.753,-0.512 1.753,-0.512c1.57,-1.461 2.629,0 2.629,0c0.511,-1.205 1.57,-0.62 1.57,-0.62c1.68,0.109 1.607,1.79 1.607,1.79c0.475,-0.841 0.913,-0.074 0.913,-0.074c1.095,0.037 1.205,1.133 1.205,1.133c-0.11,-0.548 0.548,-0.511 0.548,-0.511c1.241,-0.841 1.46,1.132 1.46,1.132c0.183,-0.731 0.876,-0.511 0.876,-0.511c1.425,-0.804 1.899,1.023 1.899,1.023c0.804,-0.512 1.096,0.182 1.096,0.182c1.715,-0.585 1.205,1.315 1.205,1.315c2.081,-0.73 2.556,1.06 2.556,1.06c1.132,-1.315 2.264,-0.402 2.264,-0.402c-0.548,-1.79 0.438,-2.155 0.438,-2.155c0.803,-0.95 1.862,-0.037 1.862,-0.037c1.607,0.073 1.862,1.571 1.899,2.01c-0.11,-1.462 0.876,-1.06 0.876,-1.06c3.213,0.622 1.862,3.142 1.862,3.142c0.84,-0.73 1.315,0.073 1.315,0.073c0.803,-0.73 1.716,0.256 1.716,0.256c0.803,-1.169 1.716,-0.073 1.716,-0.073c0.256,-1.06 1.497,-0.767 1.497,-0.767c0.658,-1.9 1.863,-1.206 1.863,-1.206c0.73,-0.037 1.643,1.06 1.643,1.06c0.109,-1.462 1.606,-1.243 1.606,-1.243c1.023,-0.402 1.424,0.768 1.424,0.768c1.461,-0.11 1.424,1.205 1.424,1.205c0.366,-0.877 1.023,-0.402 1.023,-0.402c1.57,0.037 1.57,1.425 1.57,1.425c1.643,0.073 2.081,1.133 2.081,1.133c2.556,-1.352 3.068,0.986 3.068,0.986c1.241,-1.205 2.592,-0.328 2.592,-0.328c-0.329,-0.768 0.62,-0.804 0.62,-0.804c-0.547,-2.083 0.84,-1.937 0.84,-1.937c3.031,-1.461 2.52,2.704 2.52,2.704c1.534,-0.292 1.789,0.658 1.789,1.133c0.146,-1.06 1.388,-0.987 1.388,-0.987c2.519,-1.132 2.373,2.85 2.373,2.85c1.315,-0.585 1.57,0.402 1.57,0.402c-0.511,-1.535 1.059,-1.462 1.059,-1.462c0.439,-1.023 1.169,0.22 1.169,0.22c1.643,-1.937 2.738,0.182 2.738,0.182c0.731,-2.923 3.798,-1.936 3.798,-1.936c4.966,1.133 2.775,6.43 2.775,6.43c3.287,0.768 1.607,3.982 1.607,3.982c1.059,-0.364 1.643,1.06 1.643,1.06c-0.803,-4.019 3.068,-5.444 3.068,-5.444c2.044,-1.023 2.19,1.609 2.19,1.609c0.329,0.474 0.657,0 0.657,0c0.584,-1.645 1.972,-1.06 1.972,-1.06c1.826,-1.133 2.264,0.657 2.264,0.657c0.511,-0.329 0.876,0.11 0.876,0.11c-0.146,-1.754 1.643,-1.754 1.643,-1.754c1.863,-0.986 2.556,0.877 2.556,0.877c1.534,-0.475 1.973,1.096 1.973,1.096c0.218,-0.548 0.73,-0.475 0.73,-0.475c1.497,-1.608 2.482,0.146 2.482,0.146c1.023,0.219 1.132,0.694 1.096,1.023c0.329,-0.841 1.205,-0.731 1.205,-0.731c2.228,-0.876 2.118,1.645 2.118,1.645c3.614,1.315 2.264,5.407 2.264,5.407c1.789,-0.694 1.935,1.242 1.935,1.242c0.949,-0.475 1.461,0.658 1.461,0.658c-0.11,-2.083 1.241,-2.156 1.241,-2.156c1.972,-2.045 3.213,0.585 3.213,0.585c0.328,-2.887 2.118,-2.449 2.118,-2.449c3.433,-2.228 4.893,1.28 4.893,1.28c2.081,-0.11 2.556,1.534 2.556,1.534c2.41,-1.132 3.104,2.046 3.104,2.046c0.292,-1.06 1.533,-0.95 1.533,-0.95c2.958,0.293 2.593,3.91 2.593,3.91c1.534,-0.33 1.826,0.84 1.826,0.84c0,0 -0.475,-2.667 2.008,-2.85c2.483,-0.182 2.337,2.704 2.337,2.704c0.365,-0.475 0.913,-0.037 0.913,-0.037c2.848,-0.95 2.483,1.9 2.483,1.9c1.643,0.073 1.095,3.289 1.095,3.289c-0.256,0.657 0.694,0.401 0.694,0.401c1.789,-1.57 3.359,0 3.359,0z" data-paper-data="{&quot;origPos&quot;:null}" fill="#708f3e" fill-rule="nonzero" stroke="none" stroke-width="1"/><path d="M240.366,240.897l-147.883,120.06h-8.91l156.245,-120.059zM411.582,360.957h-9.202l-147.444,-120.059h0.51zM244.419,360.957l2.885,-120.023h0.438l2.885,120.023z" data-paper-data="{&quot;origPos&quot;:null}" fill="#cbcbcb" fill-rule="nonzero" stroke="none" stroke-width="1"/><path d="M-6.18,311.596c0.584,0 1.168,0.146 1.716,0.329c0.57289,0.18606 1.1146,0.45707 1.607,0.804c0.474,0.365 0.913,0.803 1.241,1.315c0.365,0.511 0.511,1.132 0.621,1.754l-0.694,0.036c0.037,-0.475 0.146,-0.913 0.292,-1.315c0.146,-0.439 0.365,-0.84 0.585,-1.206c0.255,-0.365 0.547,-0.694 0.876,-0.986c0.3276,-0.28592 0.69683,-0.52027 1.095,-0.695c-0.292,0.293 -0.62,0.585 -0.84,0.914c-0.50544,0.63788 -0.87778,1.37067 -1.095,2.155c-0.11,0.366 -0.183,0.804 -0.183,1.17l-0.146,2.338l-0.584,-2.302l-0.11,-0.402l-0.036,-0.182c-0.036,-0.073 -0.036,-0.11 -0.073,-0.183l-0.146,-0.365l-0.183,-0.33c-0.292,-0.438 -0.62,-0.876 -1.022,-1.205c-0.402,-0.365 -0.876,-0.658 -1.387,-0.913c-0.475,-0.33 -0.986,-0.548 -1.534,-0.731zM12.917,298.37c-0.14629,-0.42647 -0.14629,-0.88953 0,-1.316c0.146,-0.438 0.438,-0.84 0.84,-1.096c0.40253,-0.2529 0.87625,-0.36835 1.35,-0.329c0.22,0 0.44,0.074 0.658,0.11c0.22,0.073 0.402,0.146 0.584,0.292c-0.20445,0.04044 -0.41175,0.06484 -0.62,0.073c-0.183,0.037 -0.402,0.074 -0.585,0.11c-0.34778,0.06082 -0.68156,0.18451 -0.985,0.365c-0.585,0.33 -0.913,0.987 -1.242,1.79zM40.12,287.555c0.402,0.073 0.767,0.329 0.986,0.694c0.11,0.183 0.183,0.402 0.22,0.658c0.036,0.219 0,0.475 -0.074,0.694l-0.62,-0.292c0.19463,-0.29823 0.44202,-0.55849 0.73,-0.768c0.292,-0.219 0.62,-0.365 0.986,-0.475c0.365,-0.073 0.73,-0.073 1.059,0c0.33761,0.08392 0.65051,0.24671 0.913,0.475c-0.33,-0.036 -0.658,-0.073 -0.95,-0.073c-0.146,0 -0.292,0.037 -0.438,0.073c-0.146,0.037 -0.292,0.073 -0.402,0.147c-0.255,0.11 -0.51,0.255 -0.73,0.438c-0.22,0.183 -0.438,0.402 -0.62,0.585l-1.315,1.57l0.694,-1.863c0.036,-0.146 0.109,-0.292 0.109,-0.438c0.037,-0.146 0,-0.292 -0.036,-0.439c-0.037,-0.402 -0.256,-0.73 -0.512,-0.986zM24.748,301.877c0.401,0.073 0.84,0.22 1.205,0.402c0.40833,0.18745 0.77932,0.4473 1.095,0.767c0.329,0.33 0.584,0.731 0.694,1.206c0.146,0.475 0.073,0.95 -0.073,1.425l-0.657,-0.292c0.292,-0.512 0.62,-0.987 1.022,-1.389c0.402,-0.438 0.84,-0.767 1.351,-1.096c0.50565,-0.29041 1.06427,-0.47672 1.643,-0.548c0.584,-0.11 1.132,0 1.68,0.146c-0.548,0.037 -1.096,0.037 -1.607,0.22c-0.511,0.182 -0.95,0.401 -1.387,0.694c-0.42817,0.2948 -0.80974,0.6521 -1.132,1.06c-0.183,0.182 -0.329,0.401 -0.475,0.62c-0.13731,0.21332 -0.28343,0.42084 -0.438,0.622l-1.351,2.301l0.694,-2.594c0.11,-0.365 0.182,-0.694 0.11,-1.06c-0.07703,-0.35534 -0.22648,-0.69099 -0.439,-0.986c-0.22,-0.292 -0.548,-0.584 -0.84,-0.84zM83.573,281.124c0.584,0 1.168,0.147 1.716,0.33c0.57249,0.18583 1.11384,0.45652 1.606,0.803c0.475,0.365 0.913,0.804 1.242,1.315c0.365,0.512 0.511,1.133 0.62,1.754l-0.693,0.037c0.036,-0.475 0.146,-0.914 0.292,-1.316c0.146,-0.438 0.365,-0.84 0.584,-1.205c0.256,-0.366 0.548,-0.694 0.877,-0.987c0.32766,-0.28557 0.6969,-0.51958 1.095,-0.694c-0.292,0.292 -0.62,0.585 -0.84,0.913c-0.50556,0.63817 -0.87791,1.37131 -1.095,2.156c-0.11,0.365 -0.183,0.804 -0.183,1.17l-0.146,2.338l-0.584,-2.302l-0.11,-0.402l-0.036,-0.183c-0.037,-0.073 -0.037,-0.11 -0.073,-0.182l-0.146,-0.366l-0.183,-0.329c-0.292,-0.438 -0.62,-0.877 -1.022,-1.205c-0.402,-0.366 -0.877,-0.658 -1.388,-0.914c-0.438,-0.329 -0.986,-0.548 -1.533,-0.73zM64.658,283.938c-0.14629,-0.42647 -0.14629,-0.88953 0,-1.316c0.146,-0.438 0.438,-0.84 0.84,-1.096c0.40293,-0.25276 0.87703,-0.36786 1.351,-0.328c0.219,0 0.438,0.073 0.657,0.11c0.22,0.072 0.402,0.145 0.584,0.291c-0.219,0.037 -0.438,0.074 -0.62,0.074c-0.183,0.036 -0.402,0.073 -0.585,0.11c-0.34803,0.0599 -0.68198,0.18365 -0.985,0.365c-0.548,0.328 -0.913,0.986 -1.242,1.79zM57.465,292.341c0.401,0.073 0.767,0.329 0.986,0.694c0.11,0.183 0.182,0.402 0.219,0.658c0.036,0.22 0,0.475 -0.073,0.694l-0.621,-0.292c0.219,-0.329 0.438,-0.548 0.73,-0.767c0.292,-0.22 0.621,-0.366 0.986,-0.475c0.365,-0.073 0.73,-0.073 1.059,0c0.329,0.073 0.657,0.255 0.913,0.475c-0.31515,-0.04112 -0.63227,-0.06548 -0.95,-0.073c-0.146,0 -0.292,0.036 -0.438,0.073c-0.146,0.036 -0.292,0.073 -0.401,0.146c-0.256,0.11 -0.512,0.256 -0.73,0.438c-0.21583,0.18541 -0.42305,0.38062 -0.621,0.585l-1.315,1.57l0.694,-1.862c0.036,-0.147 0.11,-0.293 0.11,-0.439c0.036,-0.146 0,-0.292 -0.037,-0.438c-0.037,-0.402 -0.256,-0.695 -0.511,-0.987zM110.63,273.927c0.292,-0.037 0.548,0 0.84,0.036c0.255,0.073 0.547,0.183 0.803,0.33c0.256,0.145 0.475,0.365 0.62,0.62c0.183,0.256 0.256,0.548 0.33,0.877l-0.694,0.037c0.036,-0.256 0.073,-0.439 0.146,-0.658c0.073,-0.183 0.182,-0.402 0.328,-0.548c0.25814,-0.33463 0.61664,-0.57783 1.023,-0.694c-0.256,0.329 -0.438,0.62 -0.548,0.95c-0.073,0.146 -0.11,0.329 -0.146,0.511c-0.03943,0.15564 -0.06388,0.3147 -0.073,0.475l-0.037,2.558l-0.693,-2.521c-0.073,-0.22 -0.11,-0.402 -0.22,-0.585c-0.109,-0.182 -0.219,-0.365 -0.401,-0.511c-0.39623,-0.33351 -0.82429,-0.62725 -1.278,-0.877zM150.066,253.101c-0.14605,-0.42616 -0.14605,-0.88884 0,-1.315c0.14703,-0.45033 0.44336,-0.83698 0.84,-1.096c0.40241,-0.25324 0.87614,-0.36905 1.35,-0.33c0.22,0 0.439,0.074 0.658,0.11c0.219,0.073 0.401,0.147 0.584,0.293c-0.22,0.036 -0.438,0.073 -0.62,0.073c-0.183,0.036 -0.402,0.073 -0.585,0.11c-0.34834,0.05991 -0.68262,0.18366 -0.986,0.365c-0.584,0.329 -0.95,0.986 -1.241,1.79zM220.867,238.742c0.329,-0.292 0.73,-0.475 1.205,-0.548c0.47603,-0.07126 0.96104,0.04685 1.351,0.329c0.402,0.256 0.694,0.658 0.84,1.096c0.073,0.22 0.11,0.439 0.146,0.621v0.658c-0.146,-0.183 -0.219,-0.366 -0.329,-0.548c-0.1007,-0.16413 -0.21019,-0.32269 -0.328,-0.475c-0.20543,-0.27849 -0.45151,-0.52456 -0.73,-0.73c-0.585,-0.403 -1.315,-0.44 -2.155,-0.403zM183.805,244.99c0.402,0.073 0.767,0.329 0.986,0.694c0.11,0.183 0.182,0.402 0.219,0.658c0.036,0.219 0,0.475 -0.073,0.694l-0.62,-0.292c0.218,-0.33 0.437,-0.548 0.73,-0.768c0.292,-0.219 0.62,-0.365 0.985,-0.475c0.366,-0.073 0.73,-0.073 1.06,0c0.328,0.074 0.657,0.256 0.912,0.475c-0.31516,-0.04112 -0.63226,-0.06548 -0.95,-0.073c-0.145,0 -0.291,0.037 -0.437,0.073c-0.146,0.037 -0.293,0.073 -0.402,0.147c-0.256,0.11 -0.511,0.255 -0.73,0.438c-0.21583,0.18541 -0.42305,0.38061 -0.621,0.585l-1.315,1.57l0.694,-1.863c0.037,-0.146 0.11,-0.292 0.11,-0.438c0.036,-0.146 0,-0.292 -0.037,-0.439c-0.036,-0.365 -0.219,-0.694 -0.511,-0.986zM199.98,243.784c0.403,0.073 0.768,0.33 0.987,0.694c0.11,0.183 0.182,0.402 0.219,0.658c0.036,0.22 0,0.475 -0.073,0.694l-0.62,-0.292c0.218,-0.329 0.437,-0.548 0.73,-0.767c0.292,-0.22 0.62,-0.366 0.985,-0.475c0.365,-0.073 0.73,-0.073 1.06,0c0.328,0.073 0.656,0.256 0.912,0.475c-0.31513,-0.04135 -0.63226,-0.06571 -0.95,-0.073c-0.145,0 -0.291,0.036 -0.437,0.073c-0.147,0.036 -0.293,0.073 -0.402,0.146c-0.256,0.11 -0.511,0.256 -0.73,0.438c-0.21583,0.18541 -0.42305,0.38062 -0.621,0.585l-1.315,1.571l0.694,-1.863c0.037,-0.147 0.11,-0.293 0.11,-0.439c0.036,-0.146 0,-0.292 -0.037,-0.438c-0.036,-0.402 -0.219,-0.694 -0.511,-0.987zM212.578,240.97c0.41078,-0.08363 0.8379,-0.01841 1.205,0.184c0.183,0.11 0.366,0.292 0.475,0.475c0.11,0.182 0.183,0.438 0.22,0.657h-0.695c0.037,-0.402 0.183,-0.694 0.329,-1.023c0.183,-0.329 0.402,-0.62 0.694,-0.84c0.292,-0.22 0.62,-0.402 0.986,-0.439c0.328,-0.073 0.693,-0.036 1.022,0.037c-0.329,0.11 -0.62,0.183 -0.876,0.365c-0.12669,0.06467 -0.24865,0.13818 -0.365,0.22c-0.11,0.11 -0.22,0.182 -0.293,0.292c-0.182,0.22 -0.328,0.438 -0.474,0.694c-0.11338,0.2619 -0.21089,0.53038 -0.292,0.804l-0.512,1.973l-0.146,-1.973c0,-0.146 -0.036,-0.292 -0.073,-0.439c-0.036,-0.146 -0.11,-0.255 -0.219,-0.401c-0.29265,-0.25015 -0.62619,-0.44804 -0.986,-0.585zM163.466,250.032c0.402,0.073 0.84,0.22 1.205,0.402c0.40868,0.18734 0.78001,0.4472 1.096,0.767c0.328,0.329 0.584,0.73 0.694,1.206c0.146,0.475 0.073,0.95 -0.073,1.425l-0.658,-0.293c0.292,-0.511 0.621,-0.986 1.023,-1.388c0.401,-0.438 0.84,-0.767 1.35,-1.096c0.50594,-0.29053 1.06493,-0.47686 1.644,-0.548c0.584,-0.11 1.132,0 1.68,0.146c-0.548,0.037 -1.096,0.037 -1.607,0.22c-0.511,0.182 -0.95,0.401 -1.388,0.694c-0.42817,0.2948 -0.80974,0.6521 -1.132,1.06c-0.17789,0.19067 -0.33665,0.39834 -0.474,0.62c-0.13733,0.21299 -0.28345,0.42016 -0.438,0.621l-1.351,2.302l0.693,-2.594c0.11,-0.365 0.183,-0.694 0.11,-1.06c-0.07673,-0.35526 -0.22583,-0.6909 -0.438,-0.986c-0.22,-0.292 -0.548,-0.585 -0.84,-0.84c-0.365,-0.22 -0.73,-0.475 -1.096,-0.658zM482.311,298.333c-0.328,-0.804 -0.657,-1.461 -1.241,-1.79c-0.292,-0.183 -0.621,-0.292 -0.986,-0.365c-0.183,-0.037 -0.365,-0.074 -0.584,-0.11c-0.183,0 -0.402,-0.037 -0.621,-0.073c0.182,-0.11 0.365,-0.183 0.584,-0.292c0.22,-0.037 0.438,-0.11 0.657,-0.11c0.47338,-0.03104 0.94489,0.08379 1.351,0.329c0.402,0.256 0.694,0.657 0.84,1.096c0.11,0.475 0.146,0.913 0,1.315zM455.108,287.518c-0.256,0.293 -0.475,0.585 -0.584,0.914c-0.037,0.146 -0.073,0.292 -0.037,0.438c0,0.146 0.073,0.293 0.11,0.439l0.693,1.863l-1.314,-1.571c-0.183,-0.183 -0.402,-0.402 -0.62,-0.585c-0.22147,-0.18021 -0.46764,-0.32771 -0.731,-0.438c-0.146,-0.073 -0.256,-0.073 -0.402,-0.146c-0.146,0 -0.292,-0.073 -0.438,-0.073c-0.292,-0.037 -0.62,0.036 -0.95,0.073c0.256,-0.22 0.548,-0.402 0.914,-0.475c0.328,-0.11 0.73,-0.11 1.058,0c0.366,0.073 0.694,0.256 0.986,0.475c0.292,0.219 0.548,0.475 0.73,0.767l-0.62,0.292c-0.037,-0.219 -0.11,-0.438 -0.073,-0.694c0.036,-0.22 0.11,-0.438 0.219,-0.658c0.29325,-0.29502 0.6582,-0.50868 1.059,-0.62zM470.48,301.877c-0.365,0.183 -0.73,0.439 -1.058,0.658c-0.33,0.256 -0.621,0.511 -0.84,0.84c-0.22,0.292 -0.402,0.658 -0.438,0.987c-0.073,0.365 0,0.694 0.11,1.06l0.693,2.593l-1.351,-2.301c-0.11201,-0.2293 -0.25986,-0.43927 -0.438,-0.622c-0.146,-0.219 -0.329,-0.402 -0.475,-0.62c-0.365,-0.366 -0.73,-0.731 -1.132,-1.06c-0.402,-0.33 -0.876,-0.548 -1.388,-0.694c-0.51,-0.183 -1.022,-0.183 -1.606,-0.22c0.511,-0.146 1.095,-0.255 1.68,-0.146c0.57873,0.07128 1.13735,0.25759 1.643,0.548c0.51,0.293 0.949,0.658 1.35,1.096c0.402,0.439 0.731,0.877 1.023,1.389l-0.657,0.292c-0.11,-0.438 -0.183,-0.95 -0.073,-1.425c0.11,-0.475 0.401,-0.877 0.694,-1.206c0.328,-0.328 0.693,-0.548 1.095,-0.767c0.329,-0.183 0.73,-0.329 1.168,-0.402zM411.656,281.124c-0.5453,0.17849 -1.07128,0.41132 -1.57,0.695c-0.512,0.255 -0.95,0.584 -1.388,0.913c-0.438,0.329 -0.767,0.767 -1.022,1.206l-0.183,0.329l-0.146,0.365c-0.037,0.073 -0.037,0.11 -0.073,0.183l-0.037,0.182l-0.11,0.402l-0.583,2.302l-0.146,-2.338c-0.037,-0.366 -0.074,-0.768 -0.183,-1.17c-0.10776,-0.39103 -0.2545,-0.77027 -0.438,-1.132c-0.17568,-0.36696 -0.39638,-0.71059 -0.657,-1.023c-0.256,-0.329 -0.548,-0.621 -0.84,-0.914c0.365,0.183 0.766,0.402 1.095,0.695c0.329,0.292 0.62,0.62 0.876,0.986c0.256,0.366 0.439,0.767 0.585,1.206c0.146,0.438 0.255,0.84 0.292,1.315l-0.694,-0.036c0.11,-0.621 0.292,-1.206 0.62,-1.754c0.32595,-0.51384 0.74759,-0.96026 1.242,-1.315c0.511,-0.33 1.023,-0.622 1.607,-0.804c0.584,-0.146 1.168,-0.293 1.753,-0.293zM430.534,283.938c-0.329,-0.804 -0.658,-1.462 -1.242,-1.79c-0.30345,-0.1814 -0.63768,-0.30547 -0.986,-0.366c-0.182,-0.036 -0.365,-0.073 -0.584,-0.11c-0.183,0 -0.402,-0.036 -0.62,-0.073c0.182,-0.11 0.364,-0.182 0.583,-0.292c0.22,-0.036 0.439,-0.11 0.658,-0.11c0.47315,-0.03053 0.94429,0.08463 1.35,0.33c0.402,0.255 0.695,0.657 0.84,1.095c0.147,0.439 0.147,0.877 0,1.316zM437.763,292.341c-0.255,0.292 -0.474,0.585 -0.584,0.914c-0.036,0.146 -0.073,0.292 -0.036,0.438c0,0.146 0.073,0.292 0.11,0.438l0.73,1.864l-1.315,-1.571c-0.183,-0.183 -0.402,-0.402 -0.62,-0.585c-0.22147,-0.18021 -0.46764,-0.32771 -0.731,-0.438c-0.146,-0.073 -0.256,-0.073 -0.402,-0.146c-0.146,0 -0.292,-0.073 -0.438,-0.073c-0.292,-0.037 -0.62,0.036 -0.95,0.073c0.256,-0.22 0.549,-0.402 0.914,-0.475c0.328,-0.11 0.73,-0.11 1.059,0c0.365,0.073 0.693,0.255 0.985,0.475c0.293,0.219 0.548,0.475 0.73,0.767l-0.62,0.292c-0.036,-0.22 -0.11,-0.438 -0.073,-0.694c0.037,-0.22 0.11,-0.438 0.22,-0.658c0.27314,-0.30115 0.62782,-0.51653 1.021,-0.62zM384.598,273.927c-0.474,0.256 -0.913,0.548 -1.241,0.877c-0.183,0.146 -0.292,0.329 -0.402,0.511c-0.10461,0.18166 -0.17859,0.3793 -0.219,0.585l-0.694,2.52l-0.036,-2.557c-0.00642,-0.16057 -0.03091,-0.31991 -0.073,-0.475c-0.0317,-0.17473 -0.0806,-0.3459 -0.146,-0.511c-0.11,-0.33 -0.329,-0.621 -0.548,-0.95c0.402,0.11 0.767,0.365 1.022,0.694c0.146,0.183 0.22,0.365 0.329,0.548c0.073,0.22 0.146,0.402 0.146,0.658l-0.694,-0.037c0.037,-0.292 0.146,-0.621 0.329,-0.877c0.183,-0.255 0.402,-0.475 0.62,-0.62c0.256,-0.147 0.512,-0.257 0.804,-0.33c0.26243,-0.06649 0.53567,-0.07875 0.803,-0.036zM345.163,253.101c-0.329,-0.804 -0.658,-1.461 -1.242,-1.79c-0.30345,-0.18141 -0.63768,-0.30547 -0.986,-0.366c-0.182,-0.036 -0.365,-0.073 -0.584,-0.11c-0.2082,-0.00817 -0.41547,-0.03224 -0.62,-0.072c0.182,-0.11 0.364,-0.183 0.584,-0.293c0.219,-0.036 0.438,-0.11 0.657,-0.11c0.47315,-0.03053 0.9443,0.08463 1.35,0.33c0.402,0.255 0.695,0.657 0.84,1.096c0.147,0.438 0.147,0.877 0,1.315zM274.361,238.742c-0.84,-0.036 -1.607,0 -2.154,0.402c-0.27849,0.20543 -0.52456,0.45151 -0.73,0.73c-0.11,0.147 -0.22,0.33 -0.33,0.476c-0.109,0.182 -0.182,0.365 -0.328,0.548c-0.03655,-0.21781 -0.03655,-0.44019 0,-0.658c0.037,-0.219 0.073,-0.438 0.146,-0.62c0.146,-0.403 0.438,-0.805 0.84,-1.097c0.402,-0.292 0.913,-0.365 1.351,-0.329c0.475,0.073 0.876,0.256 1.205,0.548zM311.423,244.99c-0.255,0.292 -0.474,0.585 -0.584,0.913c-0.037,0.146 -0.073,0.293 -0.037,0.439c0,0.146 0.074,0.292 0.11,0.438l0.73,1.864l-1.314,-1.571c-0.19797,-0.20401 -0.40484,-0.3992 -0.62,-0.585c-0.22141,-0.18056 -0.46758,-0.32841 -0.731,-0.439c-0.146,-0.073 -0.256,-0.073 -0.402,-0.146c-0.146,0 -0.292,-0.073 -0.438,-0.073c-0.292,-0.036 -0.62,0.037 -0.95,0.073c0.256,-0.219 0.548,-0.402 0.913,-0.475c0.329,-0.11 0.73,-0.11 1.06,0c0.364,0.073 0.693,0.256 0.985,0.475c0.292,0.22 0.548,0.475 0.73,0.768l-0.62,0.292c-0.037,-0.22 -0.11,-0.439 -0.073,-0.694c0.036,-0.22 0.11,-0.439 0.219,-0.658c0.27328,-0.30167 0.62835,-0.51742 1.022,-0.621zM295.247,243.784c-0.255,0.293 -0.474,0.585 -0.584,0.914c-0.036,0.146 -0.073,0.292 -0.036,0.438c0,0.146 0.073,0.292 0.11,0.439l0.73,1.863l-1.315,-1.571c-0.19797,-0.20401 -0.40485,-0.3992 -0.62,-0.585c-0.22147,-0.18021 -0.46764,-0.32771 -0.731,-0.438c-0.146,-0.073 -0.256,-0.073 -0.402,-0.146c-0.146,0 -0.292,-0.073 -0.438,-0.073c-0.292,-0.037 -0.62,0.036 -0.95,0.073c0.256,-0.22 0.548,-0.402 0.913,-0.475c0.33,-0.11 0.73,-0.11 1.06,0c0.365,0.073 0.693,0.255 0.985,0.475c0.292,0.219 0.548,0.475 0.73,0.767l-0.62,0.292c-0.037,-0.219 -0.11,-0.438 -0.073,-0.694c0.036,-0.22 0.11,-0.438 0.219,-0.658c0.27341,-0.30131 0.62847,-0.5167 1.022,-0.62zM282.613,240.97c-0.365,0.147 -0.693,0.33 -0.913,0.549c-0.10754,0.11208 -0.18315,0.25087 -0.219,0.402c-0.073,0.146 -0.073,0.292 -0.073,0.438l-0.146,1.973l-0.511,-1.973c-0.08114,-0.27328 -0.17865,-0.54143 -0.292,-0.803c-0.13701,-0.24554 -0.29599,-0.47816 -0.475,-0.695c-0.11,-0.11 -0.219,-0.182 -0.292,-0.292c-0.11,-0.073 -0.219,-0.183 -0.365,-0.22c-0.2794,-0.14993 -0.5728,-0.27218 -0.876,-0.365c0.328,-0.073 0.657,-0.11 1.022,-0.036c0.365,0.073 0.694,0.22 0.986,0.438c0.292,0.22 0.511,0.512 0.694,0.84c0.182,0.33 0.292,0.658 0.328,1.024h-0.693c0.036,-0.22 0.11,-0.439 0.219,-0.658c0.11,-0.183 0.292,-0.365 0.474,-0.475c0.329,-0.183 0.767,-0.256 1.132,-0.146zM331.762,250.032c-0.365,0.183 -0.73,0.438 -1.06,0.658c-0.328,0.255 -0.62,0.511 -0.839,0.84c-0.219,0.292 -0.402,0.658 -0.438,0.986c-0.073,0.366 0,0.695 0.11,1.06l0.693,2.594l-1.35,-2.302c-0.11249,-0.22867 -0.26068,-0.43795 -0.439,-0.62c-0.146,-0.22 -0.329,-0.403 -0.475,-0.622c-0.365,-0.365 -0.73,-0.73 -1.132,-1.06c-0.401,-0.328 -0.876,-0.548 -1.387,-0.694c-0.511,-0.182 -1.023,-0.182 -1.607,-0.219c0.511,-0.146 1.096,-0.256 1.68,-0.146c0.57873,0.07128 1.13736,0.2576 1.643,0.548c0.511,0.292 0.95,0.658 1.351,1.096c0.402,0.439 0.73,0.877 1.022,1.388l-0.657,0.293c-0.11,-0.439 -0.182,-0.95 -0.073,-1.425c0.11,-0.475 0.402,-0.877 0.694,-1.206c0.329,-0.329 0.694,-0.548 1.095,-0.767c0.329,-0.183 0.73,-0.329 1.169,-0.402z" data-paper-data="{&quot;origPos&quot;:null}" fill="#4b6021" fill-rule="nonzero" stroke="none" stroke-width="1"/><g data-paper-data="{&quot;origPos&quot;:null}" fill-rule="nonzero" stroke="none" stroke-width="1"><path d="M446.783,265.56c8.033,-0.475 10.881,6.65 10.881,6.65h-17.71c0,0 -1.205,-6.175 6.829,-6.65z" fill="#aaaaaa"/><path d="M455.802,267.789c7.339,-0.366 9.968,5.297 9.968,5.297h-16.212c0,0 -1.059,-4.895 6.244,-5.297z" fill="#919191"/><path d="M432.615,273.086c0,0 9.202,-9.9 23.406,0z" fill="#6f7172"/></g><g data-paper-data="{&quot;origPos&quot;:null}" fill-rule="nonzero" stroke="none" stroke-width="1"><path d="M368.532,245.465c4.673,-0.292 6.353,3.873 6.353,3.873h-10.333c0,0 -0.694,-3.581 3.98,-3.873z" fill="#aaaaaa"/><path d="M373.827,246.78c4.272,-0.219 5.805,3.106 5.805,3.106h-9.457c0,0 -0.658,-2.886 3.652,-3.106z" fill="#919191"/><path d="M360.28,249.886c0,0 5.367,-5.773 13.656,0z" fill="#6f7172"/></g><path d="M241.53159,355.5701v-15.03425h12.3358v15.03425z" data-paper-data="{&quot;origPos&quot;:null}" fill="#7e8080" fill-rule="nonzero" stroke="none" stroke-width="0"/><path d="M239.21863,323.18863v-13.10678h13.10678v13.10678z" data-paper-data="{&quot;origPos&quot;:null}" fill="#7c8080" fill-rule="nonzero" stroke="none" stroke-width="0"/><path d="M243.45906,299.28803v-11.5648h6.93888v11.5648z" data-paper-data="{&quot;origPos&quot;:null}" fill="#7c8080" fill-rule="nonzero" stroke="none" stroke-width="0"/><path d="M239.21863,280.01336v-7.70987h14.64876v7.70987z" data-paper-data="{&quot;origPos&quot;:null}" fill="#7c8080" fill-rule="nonzero" stroke="none" stroke-width="0"/><path d="M244.61554,265.7501v-3.85494h5.39691v3.85494z" data-paper-data="{&quot;origPos&quot;:null}" fill="#7c8080" fill-rule="nonzero" stroke="none" stroke-width="0"/><path d="M244.23005,257.26923v-3.08394h5.78241v3.08394z" data-paper-data="{&quot;origPos&quot;:null}" fill="#7c8080" fill-rule="nonzero" stroke="none" stroke-width="0"/><path d="M242.68807,257.65473v-2.31296h6.55339v2.31296z" data-paper-data="{&quot;origPos&quot;:null}" fill="#7c8080" fill-rule="nonzero" stroke="none" stroke-width="0"/><path d="M244.23005,250.71585v-2.69845h5.01142v2.69845z" data-paper-data="{&quot;origPos&quot;:null}" fill="#7c8080" fill-rule="nonzero" stroke="none" stroke-width="0"/><path d="M246.15751,244.54795v-1.15648h1.92747v1.15648z" data-paper-data="{&quot;origPos&quot;:null}" fill="#7c8080" fill-rule="nonzero" stroke="none" stroke-width="0"/><path d="M246.15751,245.70443v-1.54197h2.31296v1.54197z" data-paper-data="{&quot;origPos&quot;:null}" fill="#7c8080" fill-rule="nonzero" stroke="none" stroke-width="0"/><path d="M242.68807,241.464v-0.77099h5.7824v0.77099z" data-paper-data="{&quot;origPos&quot;:null}" fill="#7c8080" fill-rule="nonzero" stroke="none" stroke-width="0"/><path d="M178.714,57.695c-11.143,0 -40.285,2.285 -46,1.713c-9.714,-1 7.572,-4.569 7.143,-4.569c-22.143,1.142 -68.286,7.568 -72.428,4.998c-7.286,-4.427 -52.143,-6.569 -60.858,-6.569c3.143,0 41.572,-3.427 42.143,-3.855c13.572,-9.14 26.286,9.139 46.857,2.284c25.286,-8.425 -0.714,4.998 20.286,1.571c83.714,-13.423 108.143,4.713 62.857,4.427" data-paper-data="{&quot;origPos&quot;:null}" fill="#5b5c87" fill-rule="evenodd" stroke="none" stroke-width="1"/><path d="M92.571,32.134l-1.428,-0.428l1.428,-0.286l0.572,-1.428l0.286,1.428l1.428,0.572l-1.571,0.285l-0.429,1.428zM61.286,96.107l-1.429,-0.571l1.572,-0.286l0.571,-1.427l0.286,1.57l0.857,0.286v0.285l-1,0.143l-0.572,1.428z" data-paper-data="{&quot;origPos&quot;:null}" fill="#ffffff" fill-rule="nonzero" stroke="none" stroke-width="1"/><path d="M63.143,95.822l0.428,-0.143l-0.571,-0.143c0.08161,0.07421 0.1326,0.17619 0.143,0.286M96.429,67.12l1.714,-5.141l5.428,-1l-5.142,-1.713l-1,-5.427l-1.858,5.141l-5.285,1l5.143,1.713zM78,97.82l0.857,-2.427l2.429,-0.428l-2.286,-0.857l-0.571,-2.427l-0.858,2.284l-2.428,0.571l2.428,0.857zM52.143,66.691l0.857,-2.427l2.429,-0.429l-2.286,-0.857l-0.572,-2.57l-0.857,2.428l-2.428,0.428l2.428,0.857zM155.714,74.402l0.572,-1.428l1.428,-0.285l-1.428,-0.572l-0.286,-1.427l-0.429,1.428l-1.571,0.286l1.429,0.428zM213.143,71.403l0.571,-1.428l1.429,-0.285l-1.429,-0.571l-0.285,-1.428l-0.429,1.428l-1.571,0.285l1.428,0.429zM145.714,43.986l0.572,-1.428l1.571,-0.285l-1.428,-0.571l-0.286,-1.571l-0.572,1.57l-1.571,0.143l1.571,0.572zM187.714,24.423l0.429,-1.428l1.571,-0.285l-1.428,-0.429l-0.286,-1.57l-0.571,1.428l-1.429,0.285l1.429,0.571zM50.429,25.423l0.571,-1.428l1.429,-0.286l-1.429,-0.428l-0.286,-1.57l-0.428,1.427l-1.572,0.286l1.429,0.57zM16,90.253l0.571,-1.428l1.429,-0.286l-1.429,-0.428l-0.285,-1.571l-0.429,1.428l-1.571,0.285l1.428,0.572zM245.857,24.709l-1.428,-4.141l-4.286,-0.714l4.143,-1.428l0.714,-4.284l1.429,3.998l4.285,0.857l-4,1.428zM199.286,136.376l-0.572,-2l-2,-0.285l1.857,-0.714l0.429,-1.999l0.571,1.856l2,0.429l-1.857,0.714zM272,34.99l-0.714,-1.856l-2,-0.428l1.857,-0.572l0.428,-1.999l0.715,1.857l2,0.285l-2,0.714zM166.143,94.394l-0.572,-1.857l-2,-0.428l1.858,-0.571l0.428,-2l0.572,1.857l2,0.428l-1.858,0.571zM189.857,96.964l-1.428,-3.998l-4.286,-0.857l4,-1.428l0.857,-4.284l1.429,4.141l4.285,0.714l-4.143,1.428zM238.286,79.257l-0.715,-1.856l-1.857,-0.429l1.857,-0.57l0.286,-2l0.714,1.856l2,0.429l-1.857,0.571zM419.857,94.822l-0.571,-1.428l-1.572,-0.286l1.572,-0.428l0.143,-1.57l0.571,1.427l1.571,0.286l-1.571,0.571zM415.143,119.526l-0.572,-1.428l-1,-0.143v-0.286l0.858,-0.285l0.285,-1.57l0.572,1.427l1.571,0.286l-1.428,0.57z" data-paper-data="{&quot;origPos&quot;:null}" fill="#ffffff" fill-rule="nonzero" stroke="none" stroke-width="1"/><path d="M413.714,117.812c0,0 0,-0.143 0.143,-0.285l-0.571,0.142l0.428,0.143M380.857,83.255l3.143,-1.143l-3.286,-0.571l-1.143,-2.999l-0.571,3.142l-3.143,1.144l3.286,0.57l1.143,3.142zM399.286,117.384l2.428,-0.857l-2.571,-0.428l-0.857,-2.428l-0.429,2.428l-2.428,0.857l2.571,0.571l0.857,2.284zM442.571,73.403l2.286,-0.857l-2.428,-0.429l-0.858,-2.427l-0.428,2.57l-2.429,0.857l2.429,0.428l0.857,2.428zM321.429,94.822l1.428,-0.428l-1.571,-0.286l-0.572,-1.428l-0.143,1.429l-1.571,0.57l1.571,0.286l0.572,1.428zM264,91.823l1.429,-0.428l-1.572,-0.286l-0.428,-1.428l-0.286,1.428l-1.429,0.572l1.429,0.285l0.571,1.428zM331.286,64.406l1.428,-0.428l-1.428,-0.286l-0.572,-1.428l-0.285,1.428l-1.429,0.572l1.571,0.285l0.429,1.428zM289.429,44.986l1.428,-0.571l-1.428,-0.143l-0.572,-1.57l-0.286,1.57l-1.428,0.571l1.428,0.143l0.572,1.571zM426.714,45.986l1.429,-0.572l-1.572,-0.285l-0.428,-1.428l-0.286,1.571l-1.571,0.571l1.571,0.143l0.572,1.57zM461.143,110.815l1.428,-0.428l-1.571,-0.286l-0.429,-1.57l-0.285,1.571l-1.429,0.57l1.429,0.286l0.571,1.428zM352.571,63.978l-4.142,-1.428l4.285,-0.857l1.572,-3.998l0.714,4.284l4.143,1.428l-4.286,0.714l-1.428,4.141zM282.429,57.123l-2,-0.57l2,-0.429l0.714,-1.857l0.286,2l2,0.571l-2,0.429l-0.715,1.856zM218.429,63.693l-4.143,-1.428l4.285,-0.856l1.429,-3.999l0.714,4.283l4.143,1.428l-4.286,0.715l-1.428,4.14zM204.571,54.981l-2,-0.57l2,-0.429l0.715,-1.857l0.285,2l2,0.571l-2,0.429l-0.714,1.855zM216,34.99l-1.857,-0.714l2,-0.285l0.571,-2l0.429,2l1.857,0.714l-2,0.428l-0.571,1.857z" data-paper-data="{&quot;origPos&quot;:null}" fill="#ffffff" fill-rule="nonzero" stroke="none" stroke-width="1"/><path d="M81.205,36.44837c6.171,-2.699 12.342,-3.084 18.512,-2.313c-15.812,8.095 -23.91,25.443 -17.74,39.706c6.17,14.264 23.911,20.817 40.88,15.42c-3.47,5.012 -8.484,8.867 -14.655,11.565c-17.74,7.325 -38.18,-0.771 -45.508,-18.504c-7.328,-18.118 0.771,-38.164 18.511,-45.874" data-paper-data="{&quot;origPos&quot;:null}" fill="#ffcc06" fill-rule="evenodd" stroke="none" stroke-width="1"/><path d="M410.143,29.992c-7.857,0 -28.572,1.286 -32.572,1c-6.857,-0.571 5.286,-2.57 5,-2.57c-15.714,0.57 -48.285,4.284 -51.285,2.856c-5.143,-2.428 -36.857,-3.713 -43,-3.713c2.285,0 29.428,-2 29.857,-2.142c9.571,-5.14 18.571,5.14 33.143,1.285c17.857,-4.712 -0.572,2.856 14.428,0.857c59.286,-7.568 76.572,2.57 44.429,2.427" data-paper-data="{&quot;origPos&quot;:null}" fill="#5b5c87" fill-rule="evenodd" stroke="none" stroke-width="1"/><path d="M35.571,132.949l-0.714,-1.857l-2,-0.428l1.857,-0.571l0.429,-2l0.714,1.857l1.857,0.428l-1.857,0.572zM443.429,127.522l-0.715,-1.999l-2,-0.285l2,-0.714l0.286,-2l0.714,1.857l2,0.428l-1.857,0.714zM377.286,45.843l-0.572,-1.428l-1.428,-0.286l1.428,-0.428l0.286,-1.57l0.571,1.427l1.429,0.286l-1.429,0.57zM405.714,72.974l0.572,-1.999l2,-0.286l-1.857,-0.714l-0.286,-1.999l-0.714,2l-2,0.285l1.857,0.714z" data-paper-data="{&quot;origPos&quot;:null}" fill="#ffffff" fill-rule="nonzero" stroke="none" stroke-width="1"/></g></g></svg>