<svg version="1.1" xmlns="http://www.w3.org/2000/svg" xmlns:xlink="http://www.w3.org/1999/xlink" width="542.503" height="420.973" viewBox="0,0,542.503,420.973"><defs><linearGradient x1="273.08344" y1="264.03572" x2="493.81552" y2="264.03572" gradientUnits="userSpaceOnUse" id="color-1"><stop offset="0" stop-color="#ffffff"/><stop offset="1" stop-color="#60e6ea"/></linearGradient></defs><g transform="translate(25,60.016)"><g data-paper-data="{&quot;isPaintingLayer&quot;:true}" stroke-linecap="butt" stroke-linejoin="miter" stroke-miterlimit="10" stroke-dasharray="" stroke-dashoffset="0" style="mix-blend-mode: normal"><path d="M-8.079,-60.016h511.203v300.768h-511.203z" fill="#60e6ea" fill-rule="nonzero" stroke="none" stroke-width="1"/><path d="M317.22,166.184c0,0 9.275,-17.134 31.987,-8.834c0,0 0.73,-7.135 9.275,-5.873c0,0 3.396,-8.93 16.432,-6.407c13.035,2.524 21.251,-17.327 32.206,-11.94c0,0 15.08,-6.358 26.509,9.077c0,0 11.356,-4.514 17.344,6.261c0,0 11.503,-6.795 21.106,2.475c0,0 7.522,-1.213 10.662,6.698c3.177,7.912 -6.061,15.823 -14.423,11.552c0,0 -2.118,6.358 -11.648,9.028c0,0 -8.545,-0.34 -11.21,7.232c-2.63,7.571 -10.59,5.97 -10.59,5.97c0,0 3.396,8.882 21.142,4.174c17.71,-4.708 22.092,6.455 22.092,6.455c0,0 6.937,-5.484 12.999,0.34c6.025,5.824 17.089,-5.873 26.4,1.747l-0.475,32.617l-200.684,-5.194l0.877,-65.378zM134.751,183.662c0,0 -7.412,-10.304 -25.524,-5.298c0,0 -0.584,-4.275 -7.412,-3.544c0,0 -2.702,-5.371 -13.109,-3.837c-10.406,1.498 -16.979,-10.412 -25.706,-7.197c0,0 -12.05,-3.837 -21.142,5.444c0,0 -9.092,-2.74 -13.839,3.763c0,0 -9.202,-4.092 -16.833,1.498c0,0 -5.988,-0.73 -8.508,4.019c-2.52,4.75 4.82,9.5 11.539,6.942c0,0 1.68,3.836 9.31,5.444c0,0 6.829,-0.183 8.947,4.348c2.118,4.53 8.471,3.58 8.471,3.58c0,0 -2.738,5.335 -16.87,2.521c-14.13,-2.813 -17.636,3.873 -17.636,3.873c0,0 -5.55,-3.325 -10.37,0.22c-4.82,3.507 -13.657,-3.545 -21.069,1.059l0.365,19.583l160.226,-3.142z" fill="#9ce3d8" fill-rule="nonzero" stroke="none" stroke-width="1"/><g fill="#d7fff9" fill-rule="nonzero" stroke="none" stroke-width="1"><path d="M227.22,196.184c0,0 9.275,-17.134 31.987,-8.834c0,0 0.73,-7.135 9.275,-5.873c0,0 3.396,-8.93 16.432,-6.407c13.035,2.524 21.251,-17.327 32.206,-11.94c0,0 15.08,-6.358 26.509,9.077c0,0 11.356,-4.514 17.344,6.261c0,0 11.503,-6.795 21.106,2.475c0,0 7.522,-1.213 10.662,6.698c3.177,7.912 -6.061,15.823 -14.423,11.552c0,0 -2.118,6.358 -11.648,9.028c0,0 -8.545,-0.34 -11.21,7.232c-2.63,7.571 -10.59,5.97 -10.59,5.97c0,0 3.396,8.882 21.142,4.174c17.71,-4.708 22.092,6.455 22.092,6.455c0,0 6.937,-5.484 12.999,0.34c6.025,5.824 17.089,-5.873 26.4,1.747l-0.475,32.617l-200.684,-5.194l0.877,-65.378z"/><path d="M268.811,269.584l-239.426,4.677l-0.584,-29.266c11.064,-6.869 24.282,3.69 31.475,-1.571c7.193,-5.225 15.483,-0.292 15.483,-0.292c0,0 5.221,-10.011 26.363,-5.81c21.142,4.202 25.195,-3.763 25.195,-3.763c0,0 -9.494,1.462 -12.634,-5.334c-3.177,-6.759 -13.364,-6.468 -13.364,-6.468c-11.392,-2.374 -13.912,-8.11 -13.912,-8.11c-10.042,3.836 -20.996,-3.252 -17.235,-10.377c3.761,-7.088 12.743,-6.028 12.743,-6.028c11.429,-8.33 25.159,-2.229 25.159,-2.229c7.12,-9.645 20.704,-5.59 20.704,-5.59c13.62,-13.884 31.621,-8.148 31.621,-8.148c13.073,-4.822 22.858,13.007 38.413,10.742c15.556,-2.229 19.572,5.773 19.572,5.773c10.188,-1.169 11.064,5.261 11.064,5.261c27.094,-7.453 38.158,7.929 38.158,7.929z"/><path d="M205.348,182.495l0.84,39.276l-160.225,3.142l-0.366,-19.583c7.413,-4.604 16.25,2.448 21.07,-1.059c4.82,-3.545 10.37,-0.22 10.37,-0.22c0,0 3.505,-6.686 17.636,-3.873c14.131,2.814 16.87,-2.521 16.87,-2.521c0,0 -6.354,0.95 -8.472,-3.58c-2.117,-4.531 -8.946,-4.348 -8.946,-4.348c-7.631,-1.608 -9.311,-5.444 -9.311,-5.444c-6.718,2.558 -14.058,-2.192 -11.538,-6.942c2.519,-4.749 8.507,-4.019 8.507,-4.019c7.632,-5.59 16.833,-1.498 16.833,-1.498c4.747,-6.503 13.84,-3.763 13.84,-3.763c9.092,-9.281 21.142,-5.444 21.142,-5.444c8.726,-3.215 15.299,8.695 25.706,7.197c10.406,-1.534 13.108,3.837 13.108,3.837c6.829,-0.731 7.413,3.544 7.413,3.544c18.111,-5.006 25.524,5.298 25.524,5.298z"/></g><path d="M-10.817,240.752c9.383,0 28.919,-32.664 48.673,-36.135c19.426,-3.434 28.226,7.527 37.355,15.199c9.128,7.673 24.355,20.936 24.355,20.936z" fill="#99c455" fill-rule="nonzero" stroke="none" stroke-width="1"/><path d="M211.264,239.546c0,-20.03744 16.23371,-36.281 36.259,-36.281c20.02529,0 36.259,16.24356 36.259,36.281c0,20.03744 -16.23371,36.281 -36.259,36.281c-20.02529,0 -36.259,-16.24356 -36.259,-36.281z" fill="#fce11d" fill-rule="nonzero" stroke="none" stroke-width="1"/><g fill-rule="nonzero" stroke="none" stroke-width="1"><path d="M149.189,163.294l-6.938,-11.728l19.098,-29.74l20.995,35.038l-7.12,-3.544l-5.185,9.244l-12.342,-13.263z" fill="#ffffff"/><path d="M85.033,240.752l57.218,-89.186l6.938,11.728l8.508,-13.993l12.342,13.263l5.186,-9.244l7.12,3.544l50.28,83.888z" fill="#61969d"/></g><g fill-rule="nonzero" stroke="none" stroke-width="1"><path d="M290.354,197.274l-2.775,0.51l10.699,-17.5l11.173,17.866l-6.244,-5.261l-1.461,6.211l-3.65,-1.827l-4.2,3.654z" fill="#ffffff"/><path d="M261.289,240.752l26.29,-42.967l2.775,-0.512l3.542,3.654l4.199,-3.654l3.652,1.827l1.46,-6.211l6.244,5.261l26.619,42.602z" fill="#7ba5a8"/></g><g fill-rule="nonzero" stroke="none" stroke-width="1"><path d="M322.305,190.697l-5.843,0.438l19.609,-21.52l29.868,35.294l2.082,5.627l-17.162,-18.816l2.117,13.482l-15.81,-14.505l-2.921,7.855l-5.55,-7.855l-5.77,6.211z" fill="#ffffff"/><path d="M396.246,240.752h-60.175l-26.364,-42.2l6.755,-7.417l5.843,-0.438l0.62,6.211l5.77,-6.211l5.55,7.855l2.921,-7.855l15.811,14.505l-2.118,-13.482l17.161,18.816l-2.08,-5.626z" fill="#61969d"/></g><g fill-rule="nonzero" stroke="none" stroke-width="1"><path d="M463.798,240.752h-67.552l-18.148,-21.484l20.12,-18.487l1.205,2.52l9.129,-6.21l1.095,9.134l6.025,-9.682l5.113,9.682l1.46,-11.144l6.572,4.494v-4.53z" fill="#456d6f"/><path d="M399.423,203.301l-1.205,-2.52l20.558,-18.853l10.041,13.117v4.53l-6.573,-4.494l-1.46,11.144l-5.112,-9.682l-6.025,9.682l-1.095,-9.135z" fill="#ffffff"/></g><path d="M197.861,242.907v0.102c-0.034,-0.034 -0.034,-0.068 0,-0.102zM164.671,249.17v-0.27z" fill="none" fill-rule="evenodd" stroke="#231f20" stroke-width="0.5"/><path d="M330.666,248.9v0.27zM297.511,242.907z" fill="none" fill-rule="evenodd" stroke="none" stroke-width="1"/><path d="M225.249,240.751h-110.383c9.347,0 28.919,-28.498 48.673,-31.53c19.426,-2.996 28.226,6.576 37.355,13.262c9.128,6.687 24.355,18.269 24.355,18.269z" fill="#83ad1c" fill-rule="nonzero" stroke="none" stroke-width="1"/><path d="M37.09,240.752c0,0 19.206,-5.846 36.66,-13.628c18.258,-8.148 40.787,-8.44 57.438,0c16.833,8.513 36.258,13.628 36.258,13.628zM386.643,240.752c0,0 19.207,-5.846 36.624,-13.628c18.258,-8.148 40.787,-8.44 57.438,0c16.833,8.513 36.258,13.628 36.258,13.628z" fill="#729332" fill-rule="nonzero" stroke="none" stroke-width="1"/><path d="M316.28,240.752c0,0 13.985,-3.544 22.383,-5.59c8.398,-2.083 36.259,-12.167 70.217,0c0,0 14.971,5.042 23.662,5.59z" fill="#99c455" fill-rule="nonzero" stroke="none" stroke-width="1"/><g fill-rule="nonzero" stroke="none" stroke-width="1"><path d="M233.757,240.751l-183.047,120.205h-58.789v-37.706l233.328,-82.498zM503.124,323.14v37.817h-58.788l-183.047,-120.205h8.8z" fill="#b2d372"/><path d="M238.759,240.752l-164.205,120.205h-23.844l183.047,-120.205zM261.29,240.752l183.046,120.205h-23.552l-164.206,-120.205z" fill="#f7d9a4"/><path d="M256.578,240.752l164.206,120.205h-346.23l164.205,-120.205h8.764z" fill="#a5aaaa"/><path d="M225.249,240.751l-233.328,82.5v-82.499z" fill="#7eb734"/></g><g fill-rule="nonzero" stroke="none" stroke-width="1"><path d="M441.707,268.519c14.095,-0.913 32.023,10.303 61.417,10.523v44.1l-233.036,-82.39h233v14.651c-11.867,-2.704 -45.315,-9.426 -67.479,-4.786c-27.312,5.735 -51.23,-7.892 -59.702,5.845c-8.47,13.738 51.012,13.044 65.8,12.058z" fill="#7eb734"/><path d="M503.161,255.403v23.639c-29.394,-0.219 -47.323,-11.436 -61.417,-10.522c-14.789,0.986 -74.271,1.68 -65.799,-12.057c8.471,-13.738 32.351,-0.146 59.701,-5.846c22.165,-4.64 55.612,2.082 67.515,4.786z" fill="url(#color-1)"/></g><path d="M164.671,249.17v-0.27zM197.861,242.907v0.102c-0.034,-0.034 -0.034,-0.068 0,-0.102z" fill="none" fill-rule="evenodd" stroke="none" stroke-width="1"/><path d="M225.249,240.75l-233.182,82.5v-18.232c0.256,0.037 0.511,0.183 0.767,0.658c0,0 1.57,-1.535 3.359,0c0,0 0.914,0.256 0.694,-0.402c0,0 -0.548,-3.215 1.096,-3.288c0,0 -0.402,-2.814 2.483,-1.9c0,0 0.547,-0.439 0.912,0.036c0,0 -0.109,-2.886 2.337,-2.703c2.447,0.219 2.009,2.85 2.009,2.85c0,0 0.292,-1.17 1.825,-0.84c0,0 -0.365,-3.581 2.593,-3.91c0,0 1.241,-0.146 1.534,0.95c0,0 0.693,-3.216 3.103,-2.046c0,0 0.475,-1.644 2.556,-1.534c0,0 1.497,-3.508 4.893,-1.28c0,0 1.789,-0.402 2.118,2.448c0,0 1.205,-2.63 3.213,-0.584c0,0 1.352,0.073 1.242,2.155c0,0 0.475,-1.132 1.46,-0.657c0,0 0.146,-1.937 1.936,-1.242c0,0 -1.351,-4.093 2.264,-5.408c0,0 -0.073,-2.484 2.117,-1.644c0,0 0.877,-0.146 1.205,0.731c0,-0.329 0.11,-0.804 1.096,-1.023c0,0 0.986,-1.754 2.483,-0.146c0,0 0.548,-0.073 0.73,0.475c0,0 0.438,-1.572 1.972,-1.097c0,0 0.694,-1.863 2.556,-0.876c0,0 1.789,0 1.643,1.754c0,0 0.366,-0.44 0.876,-0.11c0,0 0.439,-1.791 2.264,-0.658c0,0 1.388,-0.548 1.972,1.06c0,0 0.328,0.438 0.658,0c0,0 0.145,-2.668 2.19,-1.608c0,0 3.871,1.425 3.067,5.444c0,0 0.548,-1.388 1.644,-1.06c0,0 -1.68,-3.215 1.606,-3.982c0,0 -2.227,-5.298 2.775,-6.43c0,0 3.104,-0.987 3.798,1.936c0,0 1.095,-2.119 2.738,-0.182c0,0 0.731,-1.243 1.168,-0.22c0,0 1.571,-0.073 1.06,1.462c0,0 0.255,-0.987 1.57,-0.402c0,0 -0.147,-3.983 2.373,-2.85c0,0 1.242,-0.074 1.388,0.986c0,-0.475 0.256,-1.425 1.789,-1.132c0,0 -0.511,-4.202 2.52,-2.704c0,0 1.387,-0.146 0.84,1.936c0,0 0.949,0.037 0.62,0.804c0,0 1.351,-0.913 2.593,0.329c0,0 0.511,-2.338 3.067,-0.987c0,0 0.401,-1.059 2.081,-1.132c0,0 0,-1.389 1.57,-1.425c0,0 0.658,-0.512 1.023,0.402c0,0 -0.073,-1.316 1.424,-1.206c0,0 0.402,-1.169 1.424,-0.767c0,0 1.461,-0.219 1.607,1.243c0,0 0.913,-1.097 1.643,-1.06c0,0 1.205,-0.695 1.862,1.205c0,0 1.242,-0.292 1.497,0.768c0,0 0.876,-1.097 1.716,0.073c0,0 0.913,-0.986 1.716,-0.256c0,0 0.475,-0.804 1.315,-0.073c0,0 -1.388,-2.522 1.862,-3.142c0,0 0.987,-0.402 0.877,1.06c0.073,-0.44 0.328,-1.937 1.898,-2.01c0,0 1.059,-0.877 1.863,0.036c0,0 1.022,0.366 0.438,2.156c0,0 1.132,-0.914 2.264,0.402c0,0 0.474,-1.79 2.556,-1.06c0,0 -0.512,-1.9 1.205,-1.315c0,0 0.292,-0.658 1.095,-0.183c0,0 0.511,-1.827 1.899,-1.023c0,0 0.694,-0.219 0.877,0.512c0,0 0.255,-1.973 1.46,-1.133c0,0 0.621,0 0.548,0.512c0,0 0.073,-1.133 1.204,-1.133c0,0 0.439,-0.767 0.913,0.073c0,0 -0.036,-1.68 1.607,-1.79c0,0 1.096,-0.585 1.606,0.621c0,0 1.023,-1.425 2.63,0c0,0 1.132,-0.549 1.752,0.511c0,0 0.914,-1.461 2.264,-0.73c0,0 -0.109,-0.256 -0.073,-0.512c-0.255,-2.813 2.519,-3.581 2.519,-3.581c-1.131,-2.192 1.68,-4.53 1.68,-4.53c0,0 0.548,-1.388 1.644,-1.06c0,0 -1.68,-3.215 1.606,-3.982c0,0 -2.227,-5.298 2.775,-6.43c0,0 3.104,-0.987 3.798,1.936c0,0 1.095,-2.119 2.738,-0.182c0,0 0.731,-1.243 1.168,-0.22c0,0 1.571,-0.073 1.06,1.462c0,0 0.255,-0.987 1.57,-0.402c0,0 -0.147,-3.983 2.373,-2.85c0,0 1.242,-0.074 1.387,0.986c-0.036,0.183 0,0.293 0,0.293v-0.293c0,-0.475 0.257,-1.425 1.79,-1.132c0,0 -0.511,-4.202 2.52,-2.704c0,0 1.387,-0.146 0.84,1.936c0,0 0.949,0.037 0.62,0.804c0,0 1.351,-0.913 2.593,0.329c0,0 0.511,-2.338 3.067,-0.986c0,0 0.401,-1.06 2.081,-1.133c0,0 0,-1.388 1.57,-1.425c0,0 0.658,-0.511 1.023,0.402c0,0 -0.073,-1.316 1.424,-1.206c0,0 0.402,-1.169 1.424,-0.767c0,0 1.461,-0.219 1.607,1.243c0,0 0.913,-1.097 1.643,-1.06c0,0 1.205,-0.695 1.862,1.205c0,0 1.241,-0.292 1.497,0.768c0,0 0.876,-1.097 1.716,0.073c0,0 0.913,-0.986 1.716,-0.256c0,0 0.475,-0.803 1.315,-0.073c0,0 -1.388,-2.521 1.862,-3.143c0,0 0.987,-0.401 0.877,1.06v0.002c0.073,-0.44 0.328,-1.937 1.898,-2.01c0,0 1.059,-0.877 1.863,0.036c0,0 1.022,0.366 0.438,2.156c0,0 1.132,-0.913 2.264,0.402c0,0 0.474,-1.79 2.556,-1.06c0,0 -0.512,-1.9 1.205,-1.315c0,0 0.292,-0.658 1.095,-0.183c0,0 0.511,-1.827 1.899,-1.023c0,0 0.694,-0.218 0.877,0.512c0,0 0.255,-1.973 1.46,-1.133c0,0 0.62,0 0.547,0.512c0,0 0.073,-1.133 1.205,-1.133c0,0 0.439,-0.767 0.913,0.073c0,0 -0.036,-1.68 1.607,-1.79c0,0 1.059,-0.585 1.57,0.621c0,0 1.022,-1.425 2.629,0c0,0 1.133,-0.548 1.753,0.512c2.41,1.205 1.643,2.74 1.643,2.74z" fill="#99c455" fill-rule="nonzero" stroke="none" stroke-width="1"/><path d="M297.511,242.907zM330.666,248.9z" fill="none" fill-rule="evenodd" stroke="none" stroke-width="1"/><path d="M502.686,305.641c0.146,-0.255 0.292,-0.438 0.438,-0.511v18.011l-232.816,-82.426c0,0 -0.803,-1.534 1.643,-2.74c0.621,-1.06 1.752,-0.512 1.752,-0.512c1.57,-1.461 2.63,0 2.63,0c0.511,-1.205 1.57,-0.62 1.57,-0.62c1.68,0.109 1.607,1.79 1.607,1.79c0.474,-0.841 0.912,-0.073 0.912,-0.073c1.095,0.036 1.205,1.132 1.205,1.132c-0.109,-0.548 0.549,-0.511 0.549,-0.511c1.24,-0.841 1.46,1.132 1.46,1.132c0.182,-0.731 0.876,-0.511 0.876,-0.511c1.424,-0.804 1.899,1.023 1.899,1.023c0.803,-0.512 1.095,0.182 1.095,0.182c1.716,-0.585 1.205,1.315 1.205,1.315c2.082,-0.73 2.556,1.06 2.556,1.06c1.132,-1.315 2.264,-0.402 2.264,-0.402c-0.548,-1.79 0.438,-2.155 0.438,-2.155c0.803,-0.95 1.863,-0.037 1.863,-0.037c1.606,0.073 1.862,1.571 1.898,2.01c-0.109,-1.462 0.877,-1.06 0.877,-1.06c3.212,0.622 1.862,3.142 1.862,3.142c0.84,-0.73 1.314,0.073 1.314,0.073c0.804,-0.73 1.717,0.256 1.717,0.256c0.803,-1.169 1.716,-0.073 1.716,-0.073c0.255,-1.059 1.497,-0.767 1.497,-0.767c0.657,-1.9 1.862,-1.206 1.862,-1.206c0.73,-0.036 1.643,1.06 1.643,1.06c0.11,-1.462 1.607,-1.243 1.607,-1.243c1.022,-0.402 1.424,0.768 1.424,0.768c1.461,-0.11 1.424,1.205 1.424,1.205c0.365,-0.876 1.023,-0.401 1.023,-0.401c1.57,0.036 1.57,1.424 1.57,1.424c1.643,0.073 2.081,1.133 2.081,1.133c2.556,-1.352 3.067,0.987 3.067,0.987c1.242,-1.206 2.593,-0.329 2.593,-0.329c-0.329,-0.768 0.62,-0.804 0.62,-0.804c-0.547,-2.083 0.84,-1.937 0.84,-1.937c3.031,-1.461 2.519,2.704 2.519,2.704c1.534,-0.292 1.79,0.658 1.79,1.133c0.146,-1.06 1.387,-0.987 1.387,-0.987c2.52,-1.132 2.374,2.85 2.374,2.85c1.314,-0.584 1.57,0.402 1.57,0.402c-0.511,-1.534 1.059,-1.462 1.059,-1.462c0.438,-1.022 1.168,0.22 1.168,0.22c1.644,-1.937 2.739,0.183 2.739,0.183c0.73,-2.923 3.798,-1.937 3.798,-1.937c4.965,1.133 2.775,6.43 2.775,6.43c3.286,0.768 1.606,3.983 1.606,3.983c1.059,-0.365 1.643,1.06 1.643,1.06c0,0 2.812,2.338 1.68,4.53c0,0 2.775,0.804 2.52,3.581c0.037,0.255 -0.073,0.512 -0.073,0.512c1.351,-0.732 2.263,0.73 2.263,0.73c0.621,-1.06 1.753,-0.512 1.753,-0.512c1.57,-1.461 2.629,0 2.629,0c0.511,-1.205 1.57,-0.62 1.57,-0.62c1.68,0.109 1.607,1.79 1.607,1.79c0.475,-0.841 0.913,-0.074 0.913,-0.074c1.095,0.037 1.205,1.133 1.205,1.133c-0.11,-0.548 0.548,-0.511 0.548,-0.511c1.241,-0.841 1.46,1.132 1.46,1.132c0.183,-0.731 0.876,-0.511 0.876,-0.511c1.425,-0.804 1.899,1.023 1.899,1.023c0.804,-0.512 1.096,0.182 1.096,0.182c1.715,-0.585 1.205,1.315 1.205,1.315c2.081,-0.73 2.556,1.06 2.556,1.06c1.132,-1.315 2.264,-0.402 2.264,-0.402c-0.548,-1.79 0.438,-2.155 0.438,-2.155c0.803,-0.95 1.862,-0.037 1.862,-0.037c1.607,0.073 1.862,1.571 1.899,2.01c-0.11,-1.462 0.876,-1.06 0.876,-1.06c3.213,0.622 1.862,3.142 1.862,3.142c0.84,-0.73 1.315,0.073 1.315,0.073c0.803,-0.73 1.716,0.256 1.716,0.256c0.803,-1.169 1.716,-0.073 1.716,-0.073c0.256,-1.06 1.497,-0.767 1.497,-0.767c0.658,-1.9 1.863,-1.206 1.863,-1.206c0.73,-0.037 1.643,1.06 1.643,1.06c0.109,-1.462 1.606,-1.243 1.606,-1.243c1.023,-0.402 1.424,0.768 1.424,0.768c1.461,-0.11 1.424,1.205 1.424,1.205c0.366,-0.877 1.023,-0.402 1.023,-0.402c1.57,0.037 1.57,1.425 1.57,1.425c1.643,0.073 2.081,1.133 2.081,1.133c2.556,-1.352 3.068,0.986 3.068,0.986c1.241,-1.205 2.592,-0.328 2.592,-0.328c-0.329,-0.768 0.62,-0.804 0.62,-0.804c-0.547,-2.083 0.84,-1.937 0.84,-1.937c3.031,-1.461 2.52,2.704 2.52,2.704c1.534,-0.292 1.789,0.658 1.789,1.133c0.146,-1.06 1.388,-0.987 1.388,-0.987c2.519,-1.132 2.373,2.85 2.373,2.85c1.315,-0.585 1.57,0.402 1.57,0.402c-0.511,-1.535 1.059,-1.462 1.059,-1.462c0.439,-1.023 1.169,0.22 1.169,0.22c1.643,-1.937 2.738,0.182 2.738,0.182c0.731,-2.923 3.798,-1.936 3.798,-1.936c4.966,1.133 2.775,6.43 2.775,6.43c3.287,0.768 1.607,3.982 1.607,3.982c1.059,-0.364 1.643,1.06 1.643,1.06c-0.803,-4.019 3.068,-5.444 3.068,-5.444c2.044,-1.023 2.19,1.609 2.19,1.609c0.329,0.474 0.657,0 0.657,0c0.584,-1.645 1.972,-1.06 1.972,-1.06c1.826,-1.133 2.264,0.657 2.264,0.657c0.511,-0.329 0.876,0.11 0.876,0.11c-0.146,-1.754 1.643,-1.754 1.643,-1.754c1.863,-0.986 2.556,0.877 2.556,0.877c1.534,-0.475 1.973,1.096 1.973,1.096c0.218,-0.548 0.73,-0.475 0.73,-0.475c1.497,-1.608 2.482,0.146 2.482,0.146c1.023,0.219 1.132,0.694 1.096,1.023c0.329,-0.841 1.205,-0.731 1.205,-0.731c2.228,-0.876 2.118,1.645 2.118,1.645c3.614,1.315 2.264,5.407 2.264,5.407c1.789,-0.694 1.935,1.242 1.935,1.242c0.949,-0.475 1.461,0.658 1.461,0.658c-0.11,-2.083 1.241,-2.156 1.241,-2.156c1.972,-2.045 3.213,0.585 3.213,0.585c0.328,-2.887 2.118,-2.449 2.118,-2.449c3.433,-2.228 4.893,1.28 4.893,1.28c2.081,-0.11 2.556,1.534 2.556,1.534c2.41,-1.132 3.104,2.046 3.104,2.046c0.292,-1.06 1.533,-0.95 1.533,-0.95c2.958,0.293 2.593,3.91 2.593,3.91c1.534,-0.33 1.826,0.84 1.826,0.84c0,0 -0.475,-2.667 2.008,-2.85c2.483,-0.182 2.337,2.704 2.337,2.704c0.365,-0.475 0.913,-0.037 0.913,-0.037c2.848,-0.95 2.483,1.9 2.483,1.9c1.643,0.073 1.095,3.289 1.095,3.289c-0.256,0.657 0.694,0.401 0.694,0.401c1.789,-1.57 3.359,0 3.359,0z" fill="#99c455" fill-rule="nonzero" stroke="none" stroke-width="1"/><path d="M240.366,240.897l-147.883,120.06h-8.91l156.245,-120.059zM411.582,360.957h-9.202l-147.444,-120.059h0.51zM244.419,360.957l2.885,-120.023h0.438l2.885,120.023z" fill="#ffffff" fill-rule="nonzero" stroke="none" stroke-width="1"/><path d="M-6.18,311.596c0.584,0 1.168,0.146 1.716,0.329c0.57289,0.18605 1.1146,0.45707 1.607,0.804c0.474,0.365 0.913,0.803 1.241,1.315c0.365,0.511 0.511,1.132 0.621,1.754l-0.694,0.036c0.037,-0.475 0.146,-0.913 0.292,-1.315c0.146,-0.439 0.365,-0.84 0.585,-1.206c0.255,-0.365 0.547,-0.694 0.876,-0.986c0.3276,-0.28592 0.69683,-0.52027 1.095,-0.695c-0.292,0.293 -0.62,0.585 -0.84,0.914c-0.50544,0.63788 -0.87779,1.37067 -1.095,2.155c-0.11,0.366 -0.183,0.804 -0.183,1.17l-0.146,2.338l-0.584,-2.302l-0.11,-0.402l-0.036,-0.182c-0.036,-0.073 -0.036,-0.11 -0.073,-0.183l-0.146,-0.365l-0.183,-0.33c-0.292,-0.438 -0.62,-0.876 -1.022,-1.205c-0.402,-0.365 -0.876,-0.658 -1.387,-0.913c-0.475,-0.33 -0.986,-0.548 -1.534,-0.731zM12.917,298.37c-0.14629,-0.42647 -0.14629,-0.88953 0,-1.316c0.146,-0.438 0.438,-0.84 0.84,-1.096c0.40253,-0.2529 0.87625,-0.36834 1.35,-0.329c0.22,0 0.44,0.074 0.658,0.11c0.22,0.073 0.402,0.146 0.584,0.292c-0.20445,0.04044 -0.41175,0.06484 -0.62,0.073c-0.183,0.037 -0.402,0.074 -0.585,0.11c-0.34778,0.06082 -0.68157,0.18451 -0.985,0.365c-0.585,0.33 -0.913,0.987 -1.242,1.79zM40.12,287.555c0.402,0.073 0.767,0.329 0.986,0.694c0.11,0.183 0.183,0.402 0.22,0.658c0.036,0.219 0,0.475 -0.074,0.694l-0.62,-0.292c0.19464,-0.29824 0.44202,-0.55849 0.73,-0.768c0.292,-0.219 0.62,-0.365 0.986,-0.475c0.365,-0.073 0.73,-0.073 1.059,0c0.33761,0.08392 0.6505,0.24671 0.913,0.475c-0.33,-0.036 -0.658,-0.073 -0.95,-0.073c-0.146,0 -0.292,0.037 -0.438,0.073c-0.146,0.037 -0.292,0.073 -0.402,0.147c-0.255,0.11 -0.51,0.255 -0.73,0.438c-0.22,0.183 -0.438,0.402 -0.62,0.585l-1.315,1.57l0.694,-1.863c0.036,-0.146 0.109,-0.292 0.109,-0.438c0.037,-0.146 0,-0.292 -0.036,-0.439c-0.037,-0.402 -0.256,-0.73 -0.512,-0.986zM24.748,301.877c0.401,0.073 0.84,0.22 1.205,0.402c0.40832,0.18744 0.77931,0.44731 1.095,0.767c0.329,0.33 0.584,0.731 0.694,1.206c0.146,0.475 0.073,0.95 -0.073,1.425l-0.657,-0.292c0.292,-0.512 0.62,-0.987 1.022,-1.389c0.402,-0.438 0.84,-0.767 1.351,-1.096c0.50564,-0.2904 1.06427,-0.47673 1.643,-0.548c0.584,-0.11 1.132,0 1.68,0.146c-0.548,0.037 -1.096,0.037 -1.607,0.22c-0.511,0.182 -0.95,0.401 -1.387,0.694c-0.42817,0.2948 -0.80974,0.6521 -1.132,1.06c-0.183,0.182 -0.329,0.401 -0.475,0.62c-0.1373,0.21332 -0.28343,0.42084 -0.438,0.622l-1.351,2.301l0.694,-2.594c0.11,-0.365 0.182,-0.694 0.11,-1.06c-0.07703,-0.35534 -0.22648,-0.69099 -0.439,-0.986c-0.22,-0.292 -0.548,-0.584 -0.84,-0.84zM83.573,281.124c0.584,0 1.168,0.147 1.716,0.33c0.57248,0.18583 1.11384,0.45651 1.606,0.803c0.475,0.365 0.913,0.804 1.242,1.315c0.365,0.512 0.511,1.133 0.62,1.754l-0.693,0.037c0.036,-0.475 0.146,-0.914 0.292,-1.316c0.146,-0.438 0.365,-0.84 0.584,-1.205c0.256,-0.366 0.548,-0.694 0.877,-0.987c0.32766,-0.28557 0.69689,-0.51958 1.095,-0.694c-0.292,0.292 -0.62,0.585 -0.84,0.913c-0.50556,0.63818 -0.87791,1.37132 -1.095,2.156c-0.11,0.365 -0.183,0.804 -0.183,1.17l-0.146,2.338l-0.584,-2.302l-0.11,-0.402l-0.036,-0.183c-0.037,-0.073 -0.037,-0.11 -0.073,-0.182l-0.146,-0.366l-0.183,-0.329c-0.292,-0.438 -0.62,-0.877 -1.022,-1.205c-0.402,-0.366 -0.877,-0.658 -1.388,-0.914c-0.438,-0.329 -0.986,-0.548 -1.533,-0.73zM64.658,283.938c-0.14629,-0.42647 -0.14629,-0.88953 0,-1.316c0.146,-0.438 0.438,-0.84 0.84,-1.096c0.40293,-0.25276 0.87703,-0.36786 1.351,-0.328c0.219,0 0.438,0.073 0.657,0.11c0.22,0.072 0.402,0.145 0.584,0.291c-0.219,0.037 -0.438,0.074 -0.62,0.074c-0.183,0.036 -0.402,0.073 -0.585,0.11c-0.34803,0.0599 -0.68198,0.18365 -0.985,0.365c-0.548,0.328 -0.913,0.986 -1.242,1.79zM57.465,292.341c0.401,0.073 0.767,0.329 0.986,0.694c0.11,0.183 0.182,0.402 0.219,0.658c0.036,0.22 0,0.475 -0.073,0.694l-0.621,-0.292c0.219,-0.329 0.438,-0.548 0.73,-0.767c0.292,-0.22 0.621,-0.366 0.986,-0.475c0.365,-0.073 0.73,-0.073 1.059,0c0.329,0.073 0.657,0.255 0.913,0.475c-0.31515,-0.04112 -0.63227,-0.06549 -0.95,-0.073c-0.146,0 -0.292,0.036 -0.438,0.073c-0.146,0.036 -0.292,0.073 -0.401,0.146c-0.256,0.11 -0.512,0.256 -0.73,0.438c-0.21583,0.18541 -0.42305,0.38061 -0.621,0.585l-1.315,1.57l0.694,-1.862c0.036,-0.147 0.11,-0.293 0.11,-0.439c0.036,-0.146 0,-0.292 -0.037,-0.438c-0.037,-0.402 -0.256,-0.695 -0.511,-0.987zM110.63,273.927c0.292,-0.037 0.548,0 0.84,0.036c0.255,0.073 0.547,0.183 0.803,0.33c0.256,0.145 0.475,0.365 0.62,0.62c0.183,0.256 0.256,0.548 0.33,0.877l-0.694,0.037c0.036,-0.256 0.073,-0.439 0.146,-0.658c0.073,-0.183 0.182,-0.402 0.328,-0.548c0.25815,-0.33463 0.61664,-0.57784 1.023,-0.694c-0.256,0.329 -0.438,0.62 -0.548,0.95c-0.073,0.146 -0.11,0.329 -0.146,0.511c-0.03943,0.15564 -0.06388,0.3147 -0.073,0.475l-0.037,2.558l-0.693,-2.521c-0.073,-0.22 -0.11,-0.402 -0.22,-0.585c-0.109,-0.182 -0.219,-0.365 -0.401,-0.511c-0.39623,-0.33351 -0.82429,-0.62725 -1.278,-0.877zM150.066,253.101c-0.14606,-0.42617 -0.14606,-0.88883 0,-1.315c0.14702,-0.45033 0.44336,-0.83698 0.84,-1.096c0.40241,-0.25325 0.87614,-0.36905 1.35,-0.33c0.22,0 0.439,0.074 0.658,0.11c0.219,0.073 0.401,0.147 0.584,0.293c-0.22,0.036 -0.438,0.073 -0.62,0.073c-0.183,0.036 -0.402,0.073 -0.585,0.11c-0.34834,0.05991 -0.68261,0.18366 -0.986,0.365c-0.584,0.329 -0.95,0.986 -1.241,1.79zM220.867,238.742c0.329,-0.292 0.73,-0.475 1.205,-0.548c0.47603,-0.07126 0.96103,0.04685 1.351,0.329c0.402,0.256 0.694,0.658 0.84,1.096c0.073,0.22 0.11,0.439 0.146,0.621v0.658c-0.146,-0.183 -0.219,-0.366 -0.329,-0.548c-0.1007,-0.16413 -0.21019,-0.32269 -0.328,-0.475c-0.20543,-0.27849 -0.45151,-0.52457 -0.73,-0.73c-0.585,-0.403 -1.315,-0.44 -2.155,-0.403zM183.805,244.99c0.402,0.073 0.767,0.329 0.986,0.694c0.11,0.183 0.182,0.402 0.219,0.658c0.036,0.219 0,0.475 -0.073,0.694l-0.62,-0.292c0.218,-0.33 0.437,-0.548 0.73,-0.768c0.292,-0.219 0.62,-0.365 0.985,-0.475c0.366,-0.073 0.73,-0.073 1.06,0c0.328,0.074 0.657,0.256 0.912,0.475c-0.31515,-0.04112 -0.63227,-0.06549 -0.95,-0.073c-0.145,0 -0.291,0.037 -0.437,0.073c-0.146,0.037 -0.293,0.073 -0.402,0.147c-0.256,0.11 -0.511,0.255 -0.73,0.438c-0.21583,0.18541 -0.42305,0.38061 -0.621,0.585l-1.315,1.57l0.694,-1.863c0.037,-0.146 0.11,-0.292 0.11,-0.438c0.036,-0.146 0,-0.292 -0.037,-0.439c-0.036,-0.365 -0.219,-0.694 -0.511,-0.986zM199.98,243.784c0.403,0.073 0.768,0.33 0.987,0.694c0.11,0.183 0.182,0.402 0.219,0.658c0.036,0.22 0,0.475 -0.073,0.694l-0.62,-0.292c0.218,-0.329 0.437,-0.548 0.73,-0.767c0.292,-0.22 0.62,-0.366 0.985,-0.475c0.365,-0.073 0.73,-0.073 1.06,0c0.328,0.073 0.656,0.256 0.912,0.475c-0.31513,-0.04135 -0.63225,-0.06572 -0.95,-0.073c-0.145,0 -0.291,0.036 -0.437,0.073c-0.147,0.036 -0.293,0.073 -0.402,0.146c-0.256,0.11 -0.511,0.256 -0.73,0.438c-0.21583,0.18541 -0.42305,0.38061 -0.621,0.585l-1.315,1.571l0.694,-1.863c0.037,-0.147 0.11,-0.293 0.11,-0.439c0.036,-0.146 0,-0.292 -0.037,-0.438c-0.036,-0.402 -0.219,-0.694 -0.511,-0.987zM212.578,240.97c0.41077,-0.08363 0.8379,-0.01841 1.205,0.184c0.183,0.11 0.366,0.292 0.475,0.475c0.11,0.182 0.183,0.438 0.22,0.657h-0.695c0.037,-0.402 0.183,-0.694 0.329,-1.023c0.183,-0.329 0.402,-0.62 0.694,-0.84c0.292,-0.22 0.62,-0.402 0.986,-0.439c0.328,-0.073 0.693,-0.036 1.022,0.037c-0.329,0.11 -0.62,0.183 -0.876,0.365c-0.12668,0.06467 -0.24865,0.13819 -0.365,0.22c-0.11,0.11 -0.22,0.182 -0.293,0.292c-0.182,0.22 -0.328,0.438 -0.474,0.694c-0.11338,0.2619 -0.21089,0.53038 -0.292,0.804l-0.512,1.973l-0.146,-1.973c0,-0.146 -0.036,-0.292 -0.073,-0.439c-0.036,-0.146 -0.11,-0.255 -0.219,-0.401c-0.29266,-0.25014 -0.62619,-0.44803 -0.986,-0.585zM163.466,250.032c0.402,0.073 0.84,0.22 1.205,0.402c0.40868,0.18734 0.78001,0.44721 1.096,0.767c0.328,0.329 0.584,0.73 0.694,1.206c0.146,0.475 0.073,0.95 -0.073,1.425l-0.658,-0.293c0.292,-0.511 0.621,-0.986 1.023,-1.388c0.401,-0.438 0.84,-0.767 1.35,-1.096c0.50595,-0.29053 1.06492,-0.47686 1.644,-0.548c0.584,-0.11 1.132,0 1.68,0.146c-0.548,0.037 -1.096,0.037 -1.607,0.22c-0.511,0.182 -0.95,0.401 -1.388,0.694c-0.42817,0.2948 -0.80974,0.6521 -1.132,1.06c-0.17789,0.19067 -0.33665,0.39833 -0.474,0.62c-0.13733,0.21298 -0.28345,0.42016 -0.438,0.621l-1.351,2.302l0.693,-2.594c0.11,-0.365 0.183,-0.694 0.11,-1.06c-0.07673,-0.35526 -0.22583,-0.6909 -0.438,-0.986c-0.22,-0.292 -0.548,-0.585 -0.84,-0.84c-0.365,-0.22 -0.73,-0.475 -1.096,-0.658zM482.311,298.333c-0.328,-0.804 -0.657,-1.461 -1.241,-1.79c-0.292,-0.183 -0.621,-0.292 -0.986,-0.365c-0.183,-0.037 -0.365,-0.074 -0.584,-0.11c-0.183,0 -0.402,-0.037 -0.621,-0.073c0.182,-0.11 0.365,-0.183 0.584,-0.292c0.22,-0.037 0.438,-0.11 0.657,-0.11c0.47338,-0.03104 0.9449,0.08379 1.351,0.329c0.402,0.256 0.694,0.657 0.84,1.096c0.11,0.475 0.146,0.913 0,1.315zM455.108,287.518c-0.256,0.293 -0.475,0.585 -0.584,0.914c-0.037,0.146 -0.073,0.292 -0.037,0.438c0,0.146 0.073,0.293 0.11,0.439l0.693,1.863l-1.314,-1.571c-0.183,-0.183 -0.402,-0.402 -0.62,-0.585c-0.22146,-0.18021 -0.46764,-0.32771 -0.731,-0.438c-0.146,-0.073 -0.256,-0.073 -0.402,-0.146c-0.146,0 -0.292,-0.073 -0.438,-0.073c-0.292,-0.037 -0.62,0.036 -0.95,0.073c0.256,-0.22 0.548,-0.402 0.914,-0.475c0.328,-0.11 0.73,-0.11 1.058,0c0.366,0.073 0.694,0.256 0.986,0.475c0.292,0.219 0.548,0.475 0.73,0.767l-0.62,0.292c-0.037,-0.219 -0.11,-0.438 -0.073,-0.694c0.036,-0.22 0.11,-0.438 0.219,-0.658c0.29325,-0.29502 0.6582,-0.50868 1.059,-0.62zM470.48,301.877c-0.365,0.183 -0.73,0.439 -1.058,0.658c-0.33,0.256 -0.621,0.511 -0.84,0.84c-0.22,0.292 -0.402,0.658 -0.438,0.987c-0.073,0.365 0,0.694 0.11,1.06l0.693,2.593l-1.351,-2.301c-0.112,-0.2293 -0.25986,-0.43927 -0.438,-0.622c-0.146,-0.219 -0.329,-0.402 -0.475,-0.62c-0.365,-0.366 -0.73,-0.731 -1.132,-1.06c-0.402,-0.33 -0.876,-0.548 -1.388,-0.694c-0.51,-0.183 -1.022,-0.183 -1.606,-0.22c0.511,-0.146 1.095,-0.255 1.68,-0.146c0.57873,0.07127 1.13736,0.2576 1.643,0.548c0.51,0.293 0.949,0.658 1.35,1.096c0.402,0.439 0.731,0.877 1.023,1.389l-0.657,0.292c-0.11,-0.438 -0.183,-0.95 -0.073,-1.425c0.11,-0.475 0.401,-0.877 0.694,-1.206c0.328,-0.328 0.693,-0.548 1.095,-0.767c0.329,-0.183 0.73,-0.329 1.168,-0.402zM411.656,281.124c-0.5453,0.17848 -1.07127,0.41132 -1.57,0.695c-0.512,0.255 -0.95,0.584 -1.388,0.913c-0.438,0.329 -0.767,0.767 -1.022,1.206l-0.183,0.329l-0.146,0.365c-0.037,0.073 -0.037,0.11 -0.073,0.183l-0.037,0.182l-0.11,0.402l-0.583,2.302l-0.146,-2.338c-0.037,-0.366 -0.074,-0.768 -0.183,-1.17c-0.10777,-0.39103 -0.2545,-0.77027 -0.438,-1.132c-0.17568,-0.36695 -0.39638,-0.7106 -0.657,-1.023c-0.256,-0.329 -0.548,-0.621 -0.84,-0.914c0.365,0.183 0.766,0.402 1.095,0.695c0.329,0.292 0.62,0.62 0.876,0.986c0.256,0.366 0.439,0.767 0.585,1.206c0.146,0.438 0.255,0.84 0.292,1.315l-0.694,-0.036c0.11,-0.621 0.292,-1.206 0.62,-1.754c0.32595,-0.51384 0.74759,-0.96027 1.242,-1.315c0.511,-0.33 1.023,-0.622 1.607,-0.804c0.584,-0.146 1.168,-0.293 1.753,-0.293zM430.534,283.938c-0.329,-0.804 -0.658,-1.462 -1.242,-1.79c-0.30345,-0.1814 -0.63768,-0.30547 -0.986,-0.366c-0.182,-0.036 -0.365,-0.073 -0.584,-0.11c-0.183,0 -0.402,-0.036 -0.62,-0.073c0.182,-0.11 0.364,-0.182 0.583,-0.292c0.22,-0.036 0.439,-0.11 0.658,-0.11c0.47315,-0.03053 0.94429,0.08464 1.35,0.33c0.402,0.255 0.695,0.657 0.84,1.095c0.147,0.439 0.147,0.877 0,1.316zM437.763,292.341c-0.255,0.292 -0.474,0.585 -0.584,0.914c-0.036,0.146 -0.073,0.292 -0.036,0.438c0,0.146 0.073,0.292 0.11,0.438l0.73,1.864l-1.315,-1.571c-0.183,-0.183 -0.402,-0.402 -0.62,-0.585c-0.22146,-0.18021 -0.46764,-0.32771 -0.731,-0.438c-0.146,-0.073 -0.256,-0.073 -0.402,-0.146c-0.146,0 -0.292,-0.073 -0.438,-0.073c-0.292,-0.037 -0.62,0.036 -0.95,0.073c0.256,-0.22 0.549,-0.402 0.914,-0.475c0.328,-0.11 0.73,-0.11 1.059,0c0.365,0.073 0.693,0.255 0.985,0.475c0.293,0.219 0.548,0.475 0.73,0.767l-0.62,0.292c-0.036,-0.22 -0.11,-0.438 -0.073,-0.694c0.037,-0.22 0.11,-0.438 0.22,-0.658c0.27314,-0.30114 0.62783,-0.51652 1.021,-0.62zM384.598,273.927c-0.474,0.256 -0.913,0.548 -1.241,0.877c-0.183,0.146 -0.292,0.329 -0.402,0.511c-0.10461,0.18166 -0.1786,0.3793 -0.219,0.585l-0.694,2.52l-0.036,-2.557c-0.00642,-0.16057 -0.03091,-0.31991 -0.073,-0.475c-0.03169,-0.17473 -0.0806,-0.3459 -0.146,-0.511c-0.11,-0.33 -0.329,-0.621 -0.548,-0.95c0.402,0.11 0.767,0.365 1.022,0.694c0.146,0.183 0.22,0.365 0.329,0.548c0.073,0.22 0.146,0.402 0.146,0.658l-0.694,-0.037c0.037,-0.292 0.146,-0.621 0.329,-0.877c0.183,-0.255 0.402,-0.475 0.62,-0.62c0.256,-0.147 0.512,-0.257 0.804,-0.33c0.26243,-0.0665 0.53567,-0.07875 0.803,-0.036zM345.163,253.101c-0.329,-0.804 -0.658,-1.461 -1.242,-1.79c-0.30345,-0.1814 -0.63768,-0.30547 -0.986,-0.366c-0.182,-0.036 -0.365,-0.073 -0.584,-0.11c-0.2082,-0.00817 -0.41547,-0.03224 -0.62,-0.072c0.182,-0.11 0.364,-0.183 0.584,-0.293c0.219,-0.036 0.438,-0.11 0.657,-0.11c0.47315,-0.03053 0.94429,0.08464 1.35,0.33c0.402,0.255 0.695,0.657 0.84,1.096c0.147,0.438 0.147,0.877 0,1.315zM274.361,238.742c-0.84,-0.036 -1.607,0 -2.154,0.402c-0.27849,0.20543 -0.52457,0.45151 -0.73,0.73c-0.11,0.147 -0.22,0.33 -0.33,0.476c-0.109,0.182 -0.182,0.365 -0.328,0.548c-0.03655,-0.21781 -0.03655,-0.44019 0,-0.658c0.037,-0.219 0.073,-0.438 0.146,-0.62c0.146,-0.403 0.438,-0.805 0.84,-1.097c0.402,-0.292 0.913,-0.365 1.351,-0.329c0.475,0.073 0.876,0.256 1.205,0.548zM311.423,244.99c-0.255,0.292 -0.474,0.585 -0.584,0.913c-0.037,0.146 -0.073,0.293 -0.037,0.439c0,0.146 0.074,0.292 0.11,0.438l0.73,1.864l-1.314,-1.571c-0.19798,-0.20401 -0.40484,-0.3992 -0.62,-0.585c-0.2214,-0.18056 -0.46758,-0.3284 -0.731,-0.439c-0.146,-0.073 -0.256,-0.073 -0.402,-0.146c-0.146,0 -0.292,-0.073 -0.438,-0.073c-0.292,-0.036 -0.62,0.037 -0.95,0.073c0.256,-0.219 0.548,-0.402 0.913,-0.475c0.329,-0.11 0.73,-0.11 1.06,0c0.364,0.073 0.693,0.256 0.985,0.475c0.292,0.22 0.548,0.475 0.73,0.768l-0.62,0.292c-0.037,-0.22 -0.11,-0.439 -0.073,-0.694c0.036,-0.22 0.11,-0.439 0.219,-0.658c0.27328,-0.30167 0.62835,-0.51742 1.022,-0.621zM295.247,243.784c-0.255,0.293 -0.474,0.585 -0.584,0.914c-0.036,0.146 -0.073,0.292 -0.036,0.438c0,0.146 0.073,0.292 0.11,0.439l0.73,1.863l-1.315,-1.571c-0.19798,-0.20401 -0.40484,-0.3992 -0.62,-0.585c-0.22146,-0.18021 -0.46764,-0.32771 -0.731,-0.438c-0.146,-0.073 -0.256,-0.073 -0.402,-0.146c-0.146,0 -0.292,-0.073 -0.438,-0.073c-0.292,-0.037 -0.62,0.036 -0.95,0.073c0.256,-0.22 0.548,-0.402 0.913,-0.475c0.33,-0.11 0.73,-0.11 1.06,0c0.365,0.073 0.693,0.255 0.985,0.475c0.292,0.219 0.548,0.475 0.73,0.767l-0.62,0.292c-0.037,-0.219 -0.11,-0.438 -0.073,-0.694c0.036,-0.22 0.11,-0.438 0.219,-0.658c0.27341,-0.30131 0.62847,-0.5167 1.022,-0.62zM282.613,240.97c-0.365,0.147 -0.693,0.33 -0.913,0.549c-0.10754,0.11208 -0.18315,0.25087 -0.219,0.402c-0.073,0.146 -0.073,0.292 -0.073,0.438l-0.146,1.973l-0.511,-1.973c-0.08115,-0.27328 -0.17866,-0.54143 -0.292,-0.803c-0.13701,-0.24554 -0.29599,-0.47816 -0.475,-0.695c-0.11,-0.11 -0.219,-0.182 -0.292,-0.292c-0.11,-0.073 -0.219,-0.183 -0.365,-0.22c-0.2794,-0.14994 -0.5728,-0.27218 -0.876,-0.365c0.328,-0.073 0.657,-0.11 1.022,-0.036c0.365,0.073 0.694,0.22 0.986,0.438c0.292,0.22 0.511,0.512 0.694,0.84c0.182,0.33 0.292,0.658 0.328,1.024h-0.693c0.036,-0.22 0.11,-0.439 0.219,-0.658c0.11,-0.183 0.292,-0.365 0.474,-0.475c0.329,-0.183 0.767,-0.256 1.132,-0.146zM331.762,250.032c-0.365,0.183 -0.73,0.438 -1.06,0.658c-0.328,0.255 -0.62,0.511 -0.839,0.84c-0.219,0.292 -0.402,0.658 -0.438,0.986c-0.073,0.366 0,0.695 0.11,1.06l0.693,2.594l-1.35,-2.302c-0.11249,-0.22866 -0.26068,-0.43795 -0.439,-0.62c-0.146,-0.22 -0.329,-0.403 -0.475,-0.622c-0.365,-0.365 -0.73,-0.73 -1.132,-1.06c-0.401,-0.328 -0.876,-0.548 -1.387,-0.694c-0.511,-0.182 -1.023,-0.182 -1.607,-0.219c0.511,-0.146 1.096,-0.256 1.68,-0.146c0.57873,0.07127 1.13736,0.2576 1.643,0.548c0.511,0.292 0.95,0.658 1.351,1.096c0.402,0.439 0.73,0.877 1.022,1.388l-0.657,0.293c-0.11,-0.439 -0.182,-0.95 -0.073,-1.425c0.11,-0.475 0.402,-0.877 0.694,-1.206c0.329,-0.329 0.694,-0.548 1.095,-0.767c0.329,-0.183 0.73,-0.329 1.169,-0.402z" fill="#729332" fill-rule="nonzero" stroke="none" stroke-width="1"/><g fill-rule="nonzero" stroke="none" stroke-width="1"><path d="M446.783,265.56c8.033,-0.475 10.881,6.65 10.881,6.65h-17.71c0,0 -1.205,-6.175 6.829,-6.65z" fill="#aaaaaa"/><path d="M455.802,267.789c7.339,-0.366 9.968,5.297 9.968,5.297h-16.212c0,0 -1.059,-4.895 6.244,-5.297z" fill="#919191"/><path d="M432.615,273.086c0,0 9.202,-9.9 23.406,0z" fill="#6f7172"/></g><g fill-rule="nonzero" stroke="none" stroke-width="1"><path d="M368.532,245.465c4.673,-0.292 6.353,3.873 6.353,3.873h-10.333c0,0 -0.694,-3.581 3.98,-3.873z" fill="#aaaaaa"/><path d="M373.827,246.78c4.272,-0.219 5.805,3.106 5.805,3.106h-9.457c0,0 -0.658,-2.886 3.652,-3.106z" fill="#919191"/><path d="M360.28,249.886c0,0 5.367,-5.773 13.656,0z" fill="#6f7172"/></g><path d="M243.37449,360.19095v-4.75981h9.36607v4.75981z" fill="#a5aaaa" fill-rule="nonzero" stroke="none" stroke-width="0"/><path d="M244.1422,340.53755v-17.35027h13.51171v17.35027z" fill="#a5aaaa" fill-rule="nonzero" stroke="none" stroke-width="0"/><path d="M245.217,309.98265v-10.59441h4.91335v10.59441z" fill="#a5aaaa" fill-rule="nonzero" stroke="none" stroke-width="0"/><path d="M245.52408,287.71903v-7.67711h4.60627v7.67711z" fill="#a5aaaa" fill-rule="nonzero" stroke="none" stroke-width="0"/><path d="M245.83117,272.17289v-6.44877h3.68501v6.44877z" fill="#a5aaaa" fill-rule="nonzero" stroke="none" stroke-width="0"/><path d="M246.44534,261.80879v-3.9921h3.07084v3.9921z" fill="#a5aaaa" fill-rule="nonzero" stroke="none" stroke-width="0"/><path d="M246.29179,254.13168v-3.07084h2.61022v3.07084z" fill="#a5aaaa" fill-rule="nonzero" stroke="none" stroke-width="0"/><path d="M246.59445,248.25329v-2.2377h1.99794v2.2377z" fill="#a5aaaa" fill-rule="nonzero" stroke="none" stroke-width="0"/><path d="M246.99404,243.29839v-1.75819h1.11885v1.75819z" fill="#a5aaaa" fill-rule="nonzero" stroke="none" stroke-width="0"/></g></g></svg>