<svg version="1.1" xmlns="http://www.w3.org/2000/svg" xmlns:xlink="http://www.w3.org/1999/xlink" width="88.94366" height="65.319" viewBox="0,0,88.94366,65.319"><g transform="translate(-195.946,-147.88)"><g data-paper-data="{&quot;isPaintingLayer&quot;:true}" fill-rule="evenodd" stroke="#000000" stroke-width="0.5" stroke-linecap="butt" stroke-linejoin="miter" stroke-miterlimit="10" stroke-dasharray="" stroke-dashoffset="0" style="mix-blend-mode: normal"><path d="M210.655,169.032l-2.081,1.598l-4.412,-5.721l2.08,-1.598z" data-paper-data="{&quot;origPos&quot;:null}" fill="#ff59bc"/><path d="M207.408,163.792c-0.154,1.587 -2.275,2.681 -4.737,2.443c-2.462,-0.238 -4.333,-1.718 -4.178,-3.305c0.154,-1.588 2.275,-2.681 4.737,-2.443c2.461,0.238 4.332,1.718 4.178,3.305" data-paper-data="{&quot;origPos&quot;:null}" fill="#ff85cf"/><path d="M274.596,163.311l2.081,1.598l-4.413,5.721l-2.08,-1.598z" data-paper-data="{&quot;origPos&quot;:null}" fill="#ff59bc"/><path d="M273.306,163.792c-0.154,-1.587 1.716,-3.067 4.178,-3.305c2.462,-0.238 4.583,0.855 4.737,2.443c0.154,1.587 -1.717,3.067 -4.178,3.305c-2.462,0.238 -4.583,-0.856 -4.737,-2.443" data-paper-data="{&quot;origPos&quot;:null}" fill="#ff85cf"/><path d="M204.836,212.949c-3.081,0 -5.602,-2.516 -5.602,-5.591v-8.84c0,-3.074 2.52,-5.59 5.602,-5.59c3.082,0 5.603,2.516 5.603,5.59v8.84c0,3.075 -2.52,5.59 -5.603,5.59M276.002,212.949c-3.081,0 -5.602,-2.516 -5.602,-5.591v-8.84c0,-3.074 2.52,-5.59 5.602,-5.59c3.082,0 5.603,2.516 5.603,5.59v8.84c0,3.075 -2.521,5.59 -5.603,5.59" data-paper-data="{&quot;origPos&quot;:null}" fill="#6d6e70"/><path d="M272.698,166.898c0.624,1.089 10.448,9.491 10.448,12.137v13.692c0,3.424 -3.275,9.647 -8.577,9.647h-68.3c-5.302,0 -8.576,-6.223 -8.576,-9.647v-13.692c0,-2.646 9.824,-11.048 10.447,-12.137c0.625,-1.089 7.329,-14.938 8.265,-16.338c0.936,-1.4 17.465,-2.43 24.014,-2.43c6.55,0 23.079,1.03 24.015,2.43c0.935,1.4 7.641,15.248 8.264,16.338" data-paper-data="{&quot;origPos&quot;:null}" fill="#ff85cf"/><path d="M262.69399,153.205c0.754,1.555 7.821,14.315 6.574,14.315c-1.248,0 -14.044,-0.973 -28.849,-0.973c-14.804,0 -27.601,0.973 -28.848,0.973c-1.248,0 5.819,-12.759 6.575,-14.315c0.753,-1.556 13.385,-2.546 22.273,-2.546c8.889,0 21.52,0.99 22.275,2.546" data-paper-data="{&quot;origPos&quot;:null}" fill="#d9f0fc"/><path d="M201.122,180.705l0.113,0.496c0.389,1.715 1.485,3.08 2.91,3.624l5.273,2.013c1.404,0.536 2.763,-0.957 2.421,-2.66l-0.27,-1.344c-0.36,-1.797 -1.625,-3.139 -3.17,-3.364l-5.76,-0.838c-0.982,-0.144 -1.774,0.939 -1.517,2.073M279.717,180.705l-0.113,0.496c-0.39,1.715 -1.485,3.08 -2.91,3.624l-5.273,2.013c-1.405,0.536 -2.764,-0.957 -2.422,-2.66l0.27,-1.344c0.361,-1.797 1.626,-3.139 3.172,-3.364l5.758,-0.838c0.982,-0.144 1.775,0.939 1.518,2.073" data-paper-data="{&quot;origPos&quot;:null}" fill="#e6e7e8"/><path d="M208.065,168.454l3.731,1.4l7.953,12.93zM272.52299,168.454l-3.73,1.4l-7.953,12.93z" data-paper-data="{&quot;origPos&quot;:null}" fill="#ffc0e6"/><path d="M240.419,195.528h43.325c0.2552,-0.00052 0.49861,0.10733 0.66968,0.29671c0.17106,0.18938 0.25369,0.44246 0.22732,0.69629c-0.232,2.194 -1.301,7.254 -6.24,7.254h-75.965c-4.939,0 -6.008,-5.061 -6.24,-7.254c-0.02637,-0.25383 0.05625,-0.50692 0.22732,-0.69629c0.17106,-0.18938 0.41449,-0.29722 0.66968,-0.29671h43.327z" data-paper-data="{&quot;origPos&quot;:null}" fill="#e6e7e8"/><path d="M256.209,182.784c1.159,0 1.881,1.253 1.299,2.252l-1.148,1.968c-0.27,0.461 -0.764,0.744 -1.298,0.744h-29.287c-0.534,0 -1.028,-0.284 -1.298,-0.744l-1.148,-1.968c-0.583,-0.999 0.14,-2.252 1.299,-2.252h15.792z" data-paper-data="{&quot;origPos&quot;:null}" fill="#5e5e5e"/><path d="M210.005,194.503c-0.105,-0.00015 -0.20976,-0.00985 -0.313,-0.029l-4.625,-0.853c-0.32905,-0.05619 -0.63127,-0.21677 -0.862,-0.458l-1.781,-1.938c-0.293,-0.32 -0.374,-0.723 -0.216,-1.08c0.18,-0.407 0.636,-0.67 1.165,-0.67c0.104,0 0.21,0.011 0.317,0.03l5.561,1.026c0.475,0.088 0.88,0.372 1.056,0.742l0.845,1.765c0.14828,0.29453 0.13121,0.64527 -0.045,0.924c-0.214,0.339 -0.626,0.541 -1.102,0.541zM270.834,194.503c0.103,0 0.208,-0.01 0.313,-0.029l4.624,-0.853c0.344,-0.063 0.65,-0.226 0.863,-0.458l1.78,-1.938c0.294,-0.32 0.374,-0.723 0.217,-1.08c-0.18,-0.407 -0.637,-0.67 -1.165,-0.67c-0.104,0 -0.211,0.011 -0.318,0.03l-5.56,1.026c-0.475,0.088 -0.88,0.372 -1.057,0.742l-0.844,1.765c-0.14828,0.29453 -0.1312,0.64527 0.045,0.924c0.215,0.339 0.626,0.541 1.102,0.541" data-paper-data="{&quot;origPos&quot;:null}" fill="#ff59bc"/></g></g></svg>