<svg version="1.1" xmlns="http://www.w3.org/2000/svg" xmlns:xlink="http://www.w3.org/1999/xlink" width="102.09569" height="84.846" viewBox="0,0,102.09569,84.846"><g transform="translate(-189.8673,-138.051)"><g data-paper-data="{&quot;isPaintingLayer&quot;:true}" fill-rule="evenodd" stroke-linecap="butt" stroke-linejoin="miter" stroke-miterlimit="10" stroke-dasharray="" stroke-dashoffset="0" style="mix-blend-mode: normal"><path d="M257.46,214.327h-32.817c-3.18445,0.00095 -6.04996,-1.93327 -7.24,-4.887l-1.128,-2.803h49.553l-1.127,2.803c-1.19017,2.95407 -4.05619,4.88836 -7.241,4.887" data-paper-data="{&quot;origPos&quot;:null}" fill="#b3b3b3" stroke="#000000" stroke-width="0.5"/><path d="M264.158,146.59h-46.213v-4.295c0.0008,-1.06007 0.42267,-2.07641 1.17282,-2.82543c0.75015,-0.74902 1.76711,-1.16937 2.82718,-1.16857h38.213c2.21,0 4,1.788 4,3.994z" data-paper-data="{&quot;origPos&quot;:null}" fill="#f2f2f2" stroke="#000000" stroke-width="0.5"/><path d="M221.945,138.3h10.149v8.29h-14.149v-4.295c0,-2.206 1.791,-3.994 4,-3.994z" fill="#0071bc" stroke="none" stroke-width="1"/><path d="M264.158,146.59h-14.148v-8.289h10.148c1.06007,-0.0008 2.07704,0.41955 2.82718,1.16857c0.75015,0.74902 1.17202,1.76536 1.17282,2.82543z" fill="#e3503d" stroke="none" stroke-width="1"/><path d="M232.094,138.301h17.915v4.913h-17.915z" fill="#d6d6d6" stroke="none" stroke-width="1"/><path d="M232.094,138.3v4.915h-14.149v-0.92c0,-2.206 1.791,-3.994 4,-3.994h10.149z" data-paper-data="{&quot;origPos&quot;:null}" fill="#0065a8" stroke="none" stroke-width="0"/><path d="M260.158,138.301c1.06024,-0.00133 2.07757,0.41865 2.82812,1.16751c0.75055,0.74886 1.17282,1.76524 1.17388,2.82549v0.92h-14.15v-4.913h10.147" fill="#d14a38" stroke="none" stroke-width="1"/><path d="M199.1,177.638l-7.55,-1.672c-0.963,-0.214 -1.578,-1.35 -1.403,-2.597l0.243,-1.735c0.168,-1.203 1.02,-2.115 1.975,-2.115h7.784c1.115,0 1.916,1.226 1.72,2.63l-0.477,3.408c-0.19,1.36 -1.24,2.314 -2.292,2.08" data-paper-data="{&quot;origPos&quot;:null}" fill="#0071bc" stroke="#000000" stroke-width="0.5"/><path d="M200.149,169.519c1.115,0 1.917,1.226 1.72,2.631l-0.375,2.677c-1.145,-0.073 -2.33,-0.189 -3.54,-0.359c-2.841,-0.397 -5.469,-1.019 -7.712,-1.777l0.148,-1.057c0.168,-1.203 1.019,-2.115 1.975,-2.115h7.783" fill="#004e82" stroke="none" stroke-width="1"/><path d="M283.00399,177.637c-1.053,0.234 -2.103,-0.72 -2.293,-2.08l-0.477,-3.408c-0.197,-1.404 0.605,-2.63 1.72,-2.63h7.784c0.955,0 1.807,0.912 1.975,2.115l0.243,1.735c0.175,1.247 -0.44,2.383 -1.403,2.597l-7.549,1.672" data-paper-data="{&quot;origPos&quot;:null}" fill="#0071bc" stroke="#000000" stroke-width="0.5"/><path d="M281.954,169.519h7.784c0.955,0 1.807,0.912 1.975,2.115l0.148,1.057c-2.244,0.758 -4.872,1.38 -7.712,1.777c-1.21,0.17 -2.395,0.286 -3.54,0.359l-0.375,-2.677c-0.197,-1.405 0.605,-2.631 1.72,-2.631" fill="#004e82" stroke="none" stroke-width="1"/><path d="M204.862,222.647h-5.933c-1.24457,0.00133 -2.43868,-0.49187 -3.31956,-1.37107c-0.88089,-0.8792 -1.37638,-2.07236 -1.37744,-3.31693v-23.88h15.326v23.88c-0.00106,1.2444 -0.49641,2.4374 -1.37708,3.31657c-0.88067,0.87917 -2.07452,1.37249 -3.31892,1.37143" data-paper-data="{&quot;origPos&quot;:null}" fill="#42210b" stroke="#000000" stroke-width="0.5"/><path d="M209.558,217.959c-0.00106,1.2444 -0.49641,2.4374 -1.37708,3.31657c-0.88067,0.87917 -2.07452,1.37249 -3.31892,1.37143h-2.967v-28.568h7.663v23.88" data-paper-data="{&quot;origPos&quot;:null}" fill="#592c16" stroke="none" stroke-width="1"/><path d="M283.603,222.647h-5.933c-2.59109,0.00166 -4.69324,-2.09691 -4.696,-4.688v-23.88h15.326v23.88c-0.00106,1.24457 -0.49655,2.43773 -1.37744,3.31693c-0.88089,0.8792 -2.07499,1.3724 -3.31956,1.37107" data-paper-data="{&quot;origPos&quot;:null}" fill="#42210b" stroke="#000000" stroke-width="0.5"/><path d="M288.3,217.959c-0.00106,1.24457 -0.49655,2.43773 -1.37744,3.31693c-0.88089,0.8792 -2.07499,1.3724 -3.31956,1.37107h-2.966v-28.568h7.663v23.88" fill="#592c16" stroke="none" stroke-width="1"/><path d="M285.447,179.309c2.896,2.651 4.546,6.394 4.546,10.317v15.064c-0.00106,1.53754 -0.613,3.01166 -1.70114,4.09793c-1.08814,1.08627 -2.56331,1.69566 -4.10086,1.69407h-86.28c-1.53737,0.00133 -3.01228,-0.60819 -4.10021,-1.69443c-1.08793,-1.08624 -1.69973,-2.56021 -1.70079,-4.09757v-15.064c0.00049,-3.92455 1.65009,-7.66827 4.546,-10.317l3.99,-10.71l6.03,-17.357c1.274,-2.832 4.094,-4.652 7.204,-4.652h54.343c3.10731,-0.00127 5.92669,1.81936 7.204,4.652l6.03,17.358l3.99,10.71" data-paper-data="{&quot;origPos&quot;:null}" fill="#0071bc" stroke="#000000" stroke-width="0.5"/><path d="M197.81,176.211c12.595,0.93 22.526,11.418 22.526,24.228c0.00242,3.4651 -0.74038,6.8902 -2.178,10.043h-20.246c-1.53746,0.00133 -3.01248,-0.60815 -4.10056,-1.69437c-1.08809,-1.08621 -1.70011,-2.56017 -1.70144,-4.09763v-15.064c0.00049,-3.92455 1.65009,-7.66827 4.546,-10.317l1.154,-3.098M289.99199,204.692c-0.00276,3.20065 -2.59935,5.79321 -5.8,5.791h-20.247c-1.395,-3.063 -2.178,-6.46 -2.178,-10.043c0,-12.81 9.931,-23.297 22.526,-24.227l1.154,3.097c2.896,2.651 4.546,6.394 4.546,10.317v15.063" data-paper-data="{&quot;origPos&quot;:null}" fill="#004e82" stroke="#000000" stroke-width="0.5"/><path d="M274.47499,203.611c4.41262,-0.00216 8.3644,2.73129 9.919,6.861c-0.068,0.002 -0.134,0.01 -0.203,0.01h-86.28c-0.068,0 -0.134,-0.008 -0.203,-0.01c1.5544,-4.13044 5.50676,-6.86442 9.92,-6.862h66.847" data-paper-data="{&quot;origPos&quot;:null}" fill="#d6d6d6" stroke="#000000" stroke-width="0.5"/><path d="M277.531,170.227c0.22929,0.47126 0.19963,1.0274 -0.07848,1.47161c-0.27811,0.4442 -0.76543,0.7138 -1.28952,0.71339h-70.223c-0.52408,0.00041 -1.01141,-0.26919 -1.28952,-0.71339c-0.27811,-0.4442 -0.30777,-1.00034 -0.07848,-1.47161l6.041,-17.386c0.62119,-1.23464 1.88489,-2.01406 3.267,-2.015h54.343c1.38211,0.00094 2.64581,0.78036 3.267,2.015l6.041,17.387M253.759,196.048c1.90168,0.00128 3.55804,-1.29705 4.011,-3.144l0.98,-4.01c0.189,-0.773 -0.397,-1.518 -1.194,-1.518h-33.01c-0.37682,-0.00031 -0.73289,0.17255 -0.96573,0.46882c-0.23284,0.29627 -0.31664,0.68311 -0.22727,1.04918l0.981,4.01c0.45287,1.84658 2.1087,3.14482 4.01,3.144h25.415" data-paper-data="{&quot;origPos&quot;:null}" fill="#192024" stroke="#000000" stroke-width="0.5"/><path d="M228.344,196.048c-1.9013,0.00082 -3.55713,-1.29742 -4.01,-3.144l-0.167,-0.684h33.77l-0.168,0.684c-0.45255,1.84679 -2.10857,3.14518 -4.01,3.144h-25.415" fill="#374b54" stroke="none" stroke-width="1"/><path d="M228.553,194.809c-0.28502,0.00027 -0.55845,-0.11277 -0.76008,-0.31421c-0.20163,-0.20144 -0.31492,-0.47477 -0.31492,-0.75979v-4.045c0,-0.59398 0.48152,-1.0755 1.0755,-1.0755c0.59398,0 1.0755,0.48152 1.0755,1.0755v4.046c0,0.593 -0.482,1.074 -1.076,1.074M232.72,194.809c-0.28528,0.00053 -0.55907,-0.11236 -0.76108,-0.3138c-0.20201,-0.20144 -0.31566,-0.47492 -0.31592,-0.7602v-4.045c0,-0.59426 0.48174,-1.076 1.076,-1.076c0.59426,0 1.076,0.48174 1.076,1.076v4.046c0,0.593 -0.482,1.074 -1.076,1.074M236.885,194.809c-0.28502,0.00027 -0.55845,-0.11277 -0.76008,-0.31421c-0.20163,-0.20144 -0.31492,-0.47477 -0.31492,-0.75979v-4.045c0,-0.59398 0.48152,-1.0755 1.0755,-1.0755c0.59398,0 1.0755,0.48152 1.0755,1.0755v4.046c0,0.593 -0.482,1.074 -1.076,1.074M241.051,194.809c-0.28502,0.00027 -0.55845,-0.11277 -0.76008,-0.31421c-0.20163,-0.20144 -0.31492,-0.47477 -0.31492,-0.75979v-4.045c0,-0.59371 0.48129,-1.075 1.075,-1.075c0.59371,0 1.075,0.48129 1.075,1.075v4.046c0,0.593 -0.48,1.074 -1.075,1.074M245.217,194.809c-0.59332,0 -1.07445,-0.48068 -1.075,-1.074v-4.045c0,-0.59398 0.48152,-1.0755 1.0755,-1.0755c0.59398,0 1.0755,0.48152 1.0755,1.0755v4.046c0,0.593 -0.481,1.074 -1.076,1.074M249.384,194.809c-0.28511,0.00027 -0.55864,-0.11274 -0.76043,-0.31415c-0.20179,-0.20141 -0.3153,-0.47474 -0.31557,-0.75985v-4.045c0,-0.59398 0.48152,-1.0755 1.0755,-1.0755c0.59398,0 1.0755,0.48152 1.0755,1.0755v4.046c0,0.593 -0.481,1.074 -1.075,1.074M253.55,194.809c-0.28511,0.00027 -0.55864,-0.11274 -0.76043,-0.31415c-0.20179,-0.20141 -0.3153,-0.47474 -0.31557,-0.75985v-4.045c0,-0.59398 0.48152,-1.0755 1.0755,-1.0755c0.59398,0 1.0755,0.48152 1.0755,1.0755v4.046c0,0.593 -0.481,1.074 -1.075,1.074" data-paper-data="{&quot;origPos&quot;:null}" fill="#b3b3b3" stroke="#000000" stroke-width="0.5"/><path d="M248.975,207.105h-15.847c-0.76515,0.0008 -1.49928,-0.3024 -2.04088,-0.84288c-0.54161,-0.54048 -0.84632,-1.27398 -0.84712,-2.03912v-3.326c0.00053,-0.76532 0.30513,-1.49908 0.84676,-2.03977c0.54163,-0.5407 1.27591,-0.84402 2.04124,-0.84323h15.847c0.76532,-0.0008 1.4996,0.30253 2.04124,0.84323c0.54163,0.5407 0.84623,1.27445 0.84676,2.03977v3.326c-0.0008,0.76515 -0.30551,1.49864 -0.84712,2.03912c-0.54161,0.54048 -1.27573,0.84367 -2.04088,0.84288" data-paper-data="{&quot;origPos&quot;:null}" fill="#ffffff" stroke="#000000" stroke-width="0.5"/><path d="M248.975,198.014c0.76515,-0.0008 1.49928,0.3024 2.04088,0.84288c0.54161,0.54048 0.84632,1.27398 0.84712,2.03912v1.967h-21.623v-1.967c0.0008,-0.76515 0.30551,-1.49864 0.84712,-2.03912c0.54161,-0.54048 1.27573,-0.84367 2.04088,-0.84288h15.847" data-paper-data="{&quot;origPos&quot;:null}" fill="#f2f2f2" stroke="none" stroke-width="0"/><path d="M213.16,190.709c0,4.287 -3.481,7.761 -7.775,7.761c-4.293,0 -7.775,-3.474 -7.775,-7.761c0,-4.286 3.482,-7.76 7.775,-7.76c4.294,0 7.775,3.474 7.775,7.76" data-paper-data="{&quot;origPos&quot;:null}" fill="#ffffff" stroke="#000000" stroke-width="0.5"/><path d="M205.223,187.748c-1.72537,0.00055 -3.12469,1.39763 -3.128,3.123c0.04291,1.69674 1.43071,3.0499 3.128,3.0499c1.69729,0 3.08509,-1.35316 3.128,-3.0499c-0.00331,-1.72537 -1.40263,-3.12245 -3.128,-3.123M205.223,196.782c-3.265,0 -5.921,-2.652 -5.921,-5.911c0,-3.26 2.656,-5.911 5.921,-5.911c3.265,0 5.922,2.651 5.922,5.91c0,3.26 -2.657,5.912 -5.922,5.912" fill="#cccccc" stroke="none" stroke-width="1"/><path d="M200.37,201.024c0,1.503 -1.22,2.72 -2.726,2.72c-0.72218,0.0008 -1.41511,-0.28533 -1.92633,-0.79543c-0.51122,-0.5101 -0.79887,-1.20239 -0.79967,-1.92457c0.00053,-0.72236 0.28806,-1.4149 0.79932,-1.92522c0.51125,-0.51032 1.20433,-0.79658 1.92668,-0.79578c0.72218,-0.0008 1.41511,0.28533 1.92633,0.79543c0.51122,0.5101 0.79887,1.20239 0.79967,1.92457" data-paper-data="{&quot;origPos&quot;:null}" fill="#ec5c44" stroke="#000000" stroke-width="0.5"/><path d="M199.56,200.6c0,0.39552 -0.15726,0.77481 -0.43712,1.0543c-0.27986,0.27949 -0.65936,0.43623 -1.05488,0.4357c-0.54135,0.01403 -1.04769,-0.26676 -1.32249,-0.73338c-0.27481,-0.46662 -0.27481,-1.04561 0,-1.51223c0.27481,-0.46662 0.78114,-0.74741 1.32249,-0.73338c0.39535,-0.00027 0.77459,0.1566 1.05424,0.43606c0.27965,0.27946 0.43676,0.6586 0.43676,1.05394" fill="#cc3a27" stroke="none" stroke-width="1"/><path d="M268.943,190.709c0,-4.286 3.481,-7.76 7.775,-7.76c4.294,0 7.774,3.474 7.774,7.76c0,4.287 -3.481,7.761 -7.774,7.761c-4.294,0 -7.775,-3.474 -7.775,-7.761" data-paper-data="{&quot;origPos&quot;:null}" fill="#ffffff" stroke="#000000" stroke-width="0.5"/><path d="M273.752,190.87c0.05233,1.68957 1.43712,3.03213 3.1275,3.03213c1.69038,0 3.07517,-1.34255 3.1275,-3.03213c-0.0305,-1.70547 -1.42175,-3.07207 -3.1275,-3.07207c-1.70575,0 -3.097,1.3666 -3.1275,3.07207M270.959,190.87c0,-3.259 2.656,-5.91 5.92,-5.91c3.266,0 5.922,2.651 5.922,5.91c0,3.26 -2.656,5.912 -5.921,5.912c-3.265,0 -5.921,-2.652 -5.921,-5.911" fill="#cccccc" stroke="none" stroke-width="1"/><path d="M281.733,201.023c0.0008,-0.72218 0.28844,-1.41447 0.79967,-1.92457c0.51122,-0.5101 1.20415,-0.79622 1.92633,-0.79543c0.72236,-0.0008 1.41543,0.28546 1.92668,0.79578c0.51125,0.51032 0.79879,1.20286 0.79932,1.92522c-0.0008,0.72218 -0.28844,1.41447 -0.79967,1.92457c-0.51122,0.5101 -1.20415,0.79622 -1.92633,0.79543c-1.506,0 -2.726,-1.217 -2.726,-2.72" data-paper-data="{&quot;origPos&quot;:null}" fill="#ec5c44" stroke="#000000" stroke-width="0.5"/><path d="M282.544,200.6c0,-0.82373 0.66777,-1.4915 1.4915,-1.4915c0.82373,0 1.4915,0.66777 1.4915,1.4915c0,0.39552 -0.15726,0.77481 -0.43712,1.0543c-0.27986,0.27949 -0.65936,0.43623 -1.05488,0.4357c-0.824,0 -1.491,-0.667 -1.491,-1.49" fill="#cc3a27" stroke="none" stroke-width="1"/><path d="M244.239,181.997c-0.0008,0.84471 -0.33712,1.65452 -0.93499,2.25126c-0.59787,0.59674 -1.4083,0.93154 -2.25301,0.93074c-1.75864,0.00111 -3.18534,-1.42336 -3.187,-3.182c0.0008,-0.84445 0.33701,-1.654 0.93469,-2.25055c0.59768,-0.59655 1.40786,-0.93125 2.25231,-0.93045c0.84462,-0.00106 1.65506,0.33351 2.25295,0.9301c0.59789,0.59658 0.93425,1.40628 0.93505,2.2509" data-paper-data="{&quot;origPos&quot;:null}" fill="#004e82" stroke="#000000" stroke-width="0.5"/><path d="M252.476,150.827l-21.494,21.587h-4.825l21.493,-21.587z" fill="#374b54" stroke="none" stroke-width="1"/><path d="M262.688,150.827l-21.494,21.587h-4.825l21.494,-21.587z" fill="#4e7684" stroke="none" stroke-width="1"/><path d="M268.223,150.826c1.22305,0.0022 2.36413,0.61532 3.041,1.634l-19.858,19.954h-4.825l21.493,-21.587h0.149" fill="#374b54" stroke="none" stroke-width="1"/></g></g></svg>