<svg version="1.1" xmlns="http://www.w3.org/2000/svg" xmlns:xlink="http://www.w3.org/1999/xlink" width="120.375" height="47.79246" viewBox="0,0,120.375,47.79246"><g transform="translate(-179.75,-157.255)"><g data-paper-data="{&quot;isPaintingLayer&quot;:true}" fill-rule="evenodd" stroke-linecap="butt" stroke-linejoin="miter" stroke-miterlimit="10" stroke-dasharray="" stroke-dashoffset="0" style="mix-blend-mode: normal"><path d="M298,193.94c0,5.937 -4.833,10.555 -10.709,10.555h-96.79c-5.874,0 -10.501,-4.618 -10.501,-10.556v-24.216c0,-5.937 4.627,-10.702 10.502,-10.702h96.789c5.876,0 10.709,4.765 10.709,10.702z" data-paper-data="{&quot;origPos&quot;:null}" fill="#214c2c" stroke="none" stroke-width="0"/><path d="M299.875,192.229c0,5.937 -4.763,10.75 -10.638,10.75h-96.724c-5.875,0 -10.638,-4.813 -10.638,-10.75v-23.973c0,-5.938 4.763,-10.751 10.639,-10.751h96.723c5.875,0 10.638,4.813 10.638,10.75v23.975z" data-paper-data="{&quot;origPos&quot;:null}" fill="#419757" stroke="#000000" stroke-width="0.5"/><path d="M295,191.783c0,3.393 -2.722,6.143 -6.079,6.143h-96.342c-3.357,0 -6.079,-2.75 -6.079,-6.143v-24.093c0,-3.392 2.722,-6.143 6.079,-6.143h96.342c3.357,0 6.079,2.75 6.079,6.143z" fill="#b9d546" stroke="none" stroke-width="1"/><path d="M198.923,185.682c0.33,-0.059 0.664,-0.075 1.001,-0.051c0.338,0.025 0.66,0.084 0.965,0.175c0.304,0.092 0.58,0.222 0.828,0.388c1.384,0.85 2.592,1.399 3.623,1.649c1.03,0.25 1.776,0.192 2.237,-0.175c0.182,-0.116 0.219,-0.275 0.111,-0.475c-0.107,-0.2 -0.313,-0.42 -0.618,-0.662c-0.36589,-0.28483 -0.74533,-0.55181 -1.137,-0.8c-0.454,-0.29 -0.931,-0.595 -1.434,-0.912c-0.5069,-0.31892 -1.00994,-0.64395 -1.509,-0.975c-0.503,-0.333 -0.96,-0.674 -1.372,-1.024c-0.44517,-0.36597 -0.84771,-0.78092 -1.2,-1.237c-0.72237,-0.92637 -1.12578,-2.06152 -1.15,-3.236c-0.01019,-0.65324 0.09057,-1.30348 0.298,-1.923c0.148,-0.567 0.4,-1.175 0.754,-1.825c0.354,-0.65 0.77,-1.282 1.249,-1.899c0.47908,-0.61715 1.0082,-1.19377 1.582,-1.724c0.54048,-0.50551 1.12855,-0.95761 1.756,-1.35c0.214,-0.15 0.478,-0.295 0.791,-0.437c0.33543,-0.14789 0.68824,-0.25272 1.05,-0.312c0.41697,-0.06829 0.8403,-0.08942 1.262,-0.063c0.453,0.026 0.927,0.113 1.422,0.263c0.76213,0.27576 1.50538,0.60113 2.225,0.974c0.742,0.384 1.36,0.817 1.855,1.3c0.33,0.3 0.581,0.604 0.754,0.912c0.173,0.309 0.297,0.612 0.371,0.912c0.074,0.3 0.115,0.587 0.124,0.862c0.008,0.275 0.012,0.537 0.012,0.787c-0.05,0.45 -0.132,0.941 -0.247,1.475c-0.116,0.532 -0.248,1.07 -0.396,1.611c-0.14386,0.52702 -0.30866,1.0481 -0.494,1.562c-0.182,0.5 -0.363,0.933 -0.544,1.299c-0.182,0.333 -0.38,0.542 -0.594,0.625c-0.214,0.084 -0.51,0.05 -0.89,-0.1c-2.242,-0.8 -3.28,-1.89 -3.116,-3.273c0.02439,-0.33311 0.07827,-0.66341 0.161,-0.987l0.272,-1.125c0.09,-0.375 0.169,-0.733 0.235,-1.074c0.065,-0.342 0.086,-0.62 0.062,-0.837c-0.025,-0.217 -0.103,-0.342 -0.235,-0.375c-0.133,-0.033 -0.355,0.059 -0.668,0.275c-0.31969,0.19252 -0.61803,0.41846 -0.89,0.674c-0.33,0.3 -0.647,0.642 -0.952,1.025c-0.31004,0.39056 -0.5832,0.80902 -0.816,1.25c-0.24,0.449 -0.4,0.899 -0.482,1.348c-0.083,0.45 -0.075,0.892 0.025,1.325c0.099,0.433 0.337,0.816 0.717,1.15c0.477,0.45 1.01,0.873 1.595,1.274c0.584,0.4 1.17,0.787 1.755,1.161c0.585,0.375 1.138,0.747 1.657,1.112c0.52,0.367 0.948,0.746 1.286,1.137c0.338,0.392 0.552,0.8 0.643,1.225c0.09,0.425 0.003,0.88 -0.26,1.362c-0.165,0.35 -0.395,0.724 -0.692,1.124c-0.297,0.4 -0.693,0.77 -1.187,1.112c-0.494,0.341 -1.097,0.629 -1.805,0.862c-0.71,0.233 -1.558,0.358 -2.547,0.375c-1.32145,0.03262 -2.63525,-0.20984 -3.858,-0.712c-1.253,-0.508 -2.547,-1.387 -3.882,-2.636c-0.709,-0.616 -1.08,-1.075 -1.112,-1.374c0,-0.317 0.156,-0.567 0.47,-0.75c0.296,-0.117 0.61,-0.204 0.939,-0.262" fill="#fafcfb" stroke="none" stroke-width="1"/><path d="M228.67,173.587c-0.76,0.075 -1.542,0.154 -2.35,0.238l-1.075,4.348c-0.371,1.499 -0.73,2.985 -1.076,4.46c-0.33701,1.434 -0.66235,2.87071 -0.976,4.31c-0.305,1.4 -0.573,2.708 -0.804,3.923c-0.033,0.233 -0.111,0.388 -0.235,0.463c-0.124,0.075 -0.293,0.108 -0.507,0.1c-0.25204,-0.01556 -0.50122,-0.0619 -0.742,-0.138c-0.28,-0.084 -0.593,-0.175 -0.94,-0.275c-0.31875,-0.09056 -0.63223,-0.19873 -0.939,-0.324c-0.25671,-0.10205 -0.49489,-0.24563 -0.705,-0.425c-0.18374,-0.15816 -0.32416,-0.36052 -0.408,-0.588c-0.082,-0.225 -0.09,-0.495 -0.024,-0.812c0.05,-0.8 0.148,-1.782 0.296,-2.948c0.149,-1.166 0.326,-2.4 0.532,-3.698c0.40597,-2.55289 0.88014,-5.09446 1.422,-7.622c-0.479,0.084 -0.94,0.154 -1.385,0.213c-0.37548,0.04469 -0.74738,0.11553 -1.113,0.212c-0.412,0.1 -0.75,0.112 -1.013,0.038c-0.264,-0.075 -0.56,-0.288 -0.89,-0.638c-0.37861,-0.3941 -0.69947,-0.83987 -0.953,-1.324c-0.24249,-0.44587 -0.4772,-0.89594 -0.704,-1.35c-0.198,-0.382 -0.248,-0.636 -0.149,-0.762c0.1,-0.125 0.305,-0.229 0.619,-0.312c0.972,-0.2 2.072,-0.383 3.3,-0.55c2.49742,-0.33589 5.00417,-0.59833 7.517,-0.787c1.09932,-0.08414 2.20021,-0.14649 3.302,-0.187c0.51,0 0.878,0.046 1.1,0.138c0.23159,0.09864 0.4323,0.2579 0.581,0.461c0.33,0.384 0.602,0.8 0.816,1.25c0.214,0.45 0.38,0.891 0.495,1.325c0.099,0.383 0.102,0.645 0.012,0.787c-0.09,0.141 -0.392,0.229 -0.903,0.262c-0.642,0.067 -1.343,0.138 -2.101,0.212M239.142,182.395c0.75,-0.082 1.504,-0.15 2.262,-0.2c-0.03309,-1.3615 -0.05776,-2.72319 -0.074,-4.085c-0.01674,-1.34537 -0.0084,-2.69094 0.025,-4.036c-0.7248,1.33922 -1.43816,2.68461 -2.14,4.036c-0.78866,1.51936 -1.55905,3.04814 -2.311,4.586c0.74364,-0.11689 1.48983,-0.21692 2.238,-0.3M237.93,186.706c-1.09517,0.14869 -2.1807,0.36138 -3.251,0.637c-0.33,0.65 -0.619,1.253 -0.866,1.812c-0.247,0.558 -0.487,1.104 -0.717,1.636c-0.132,0.283 -0.293,0.45 -0.483,0.5c-0.19,0.05 -0.473,0.008 -0.852,-0.125c-0.23636,-0.09228 -0.47139,-0.18796 -0.705,-0.287c-0.26368,-0.11219 -0.5235,-0.23326 -0.779,-0.363c-0.17131,-0.11543 -0.34467,-0.22778 -0.52,-0.337c-0.14034,-0.08385 -0.25889,-0.19966 -0.346,-0.338c-0.08813,-0.15592 -0.13462,-0.3319 -0.135,-0.511c-0.008,-0.209 0.037,-0.487 0.135,-0.838c0.396,-1.15 0.911,-2.498 1.546,-4.047c0.634,-1.55 1.319,-3.15 2.052,-4.798c0.734,-1.65 1.484,-3.277 2.25,-4.885c0.68657,-1.45027 1.41657,-2.87958 2.189,-4.286c0.247,-0.45 0.569,-0.816 0.964,-1.1c0.396,-0.282 0.98,-0.39 1.756,-0.324c0.676,0.033 1.277,0.088 1.805,0.163c0.527,0.075 1.01,0.162 1.447,0.262c0.437,0.1 0.84,0.208 1.211,0.325c0.371,0.116 0.746,0.225 1.125,0.325c0.511,0.183 0.837,0.425 0.977,0.724c0.14,0.3 0.186,0.691 0.136,1.175c-0.099,1.182 -0.181,2.54 -0.247,4.072c-0.06838,1.59869 -0.11771,3.19814 -0.148,4.798c-0.03297,1.66983 -0.05363,3.33987 -0.062,5.01c-0.009,1.674 -0.005,3.228 0.012,4.66c0,0.3 -0.062,0.508 -0.186,0.625c-0.123,0.117 -0.399,0.175 -0.828,0.175c-0.428,0 -0.824,-0.013 -1.187,-0.037c-0.38001,-0.02893 -0.75439,-0.10898 -1.113,-0.238c-0.395,-0.117 -0.671,-0.266 -0.828,-0.45c-0.157,-0.183 -0.268,-0.508 -0.334,-0.974c-0.07093,-0.52744 -0.12829,-1.05661 -0.172,-1.587c-0.05,-0.575 -0.1,-1.203 -0.149,-1.886c-1.23295,0.16616 -2.4653,0.33683 -3.697,0.512M255.424,177.648c-0.26649,1.03628 -0.54652,2.06904 -0.84,3.098c1.137,-0.383 2.146,-0.853 3.028,-1.411c0.882,-0.559 1.62,-1.125 2.214,-1.7c0.593,-0.574 1.022,-1.12 1.285,-1.636c0.264,-0.516 0.347,-0.916 0.248,-1.2c-0.198,-0.466 -0.783,-0.7 -1.756,-0.7c-0.53216,0.00658 -1.06239,0.06553 -1.583,0.176c-0.6353,0.13699 -1.25034,0.35511 -1.83,0.649c-0.27804,0.90146 -0.53346,1.80975 -0.766,2.724M252.914,187.993c-0.19,0.933 -0.375,1.849 -0.556,2.749c-0.083,0.265 -0.194,0.44 -0.334,0.524c-0.14,0.083 -0.4,0.083 -0.779,0c-0.39219,-0.10473 -0.78774,-0.19644 -1.186,-0.275c-0.34574,-0.06615 -0.67951,-0.18414 -0.99,-0.35c-0.313,-0.183 -0.527,-0.403 -0.642,-0.662c-0.116,-0.258 -0.157,-0.603 -0.124,-1.037c0.033,-0.35 0.078,-0.858 0.135,-1.524c0.23116,-2.62869 0.51154,-5.25282 0.841,-7.871c0.124,-0.966 0.26,-1.903 0.408,-2.811c0.13191,-0.82089 0.28865,-1.6376 0.47,-2.449c0.165,-0.725 0.346,-1.324 0.544,-1.8c0.198,-0.474 0.404,-0.77 0.618,-0.886c1.05722,-0.48155 2.1248,-0.93999 3.202,-1.375c1.114,-0.45 2.21,-0.77 3.29,-0.962c1.079,-0.191 2.101,-0.208 3.066,-0.05c0.964,0.159 1.808,0.596 2.534,1.312c0.57802,0.63504 1.10311,1.31631 1.57,2.037c0.47,0.724 0.837,1.612 1.1,2.66c0.215,1.117 0.133,2.034 -0.247,2.75c-0.577,1.149 -1.529,2.207 -2.856,3.173c-1.327,0.966 -2.914,1.866 -4.76,2.699c0.38,0.433 0.796,0.891 1.25,1.374c0.91379,0.97459 1.85346,1.9246 2.818,2.849c0.47,0.45 0.91,0.841 1.323,1.174c0.33,0.283 0.478,0.508 0.445,0.674c-0.033,0.167 -0.173,0.343 -0.42,0.525c-0.297,0.234 -0.549,0.372 -0.754,0.413c-0.207,0.042 -0.458,0.088 -0.755,0.137c-0.362,0.1 -0.762,0.129 -1.2,0.088c-0.436,-0.042 -0.943,-0.238 -1.52,-0.588c-0.38,-0.266 -0.816,-0.6 -1.31,-1c-0.52474,-0.42556 -1.03632,-0.8671 -1.534,-1.324c-0.53763,-0.49277 -1.06507,-0.99655 -1.582,-1.511c-0.50702,-0.50204 -0.98575,-1.03186 -1.434,-1.587c-0.22142,0.97217 -0.43144,1.9469 -0.63,2.924M280.82,173.587c-0.76,0.075 -1.543,0.154 -2.35,0.238l-1.076,4.348c-0.36727,1.48458 -0.72594,2.97127 -1.076,4.46c-0.33677,1.43405 -0.66211,2.87077 -0.976,4.31c-0.305,1.4 -0.573,2.708 -0.804,3.923c-0.033,0.233 -0.111,0.388 -0.234,0.463c-0.124,0.075 -0.293,0.108 -0.508,0.1c-0.2517,-0.01565 -0.50054,-0.06199 -0.741,-0.138c-0.28,-0.084 -0.594,-0.175 -0.94,-0.275c-0.347,-0.1 -0.66,-0.208 -0.94,-0.324c-0.25639,-0.1021 -0.49423,-0.24568 -0.704,-0.425c-0.18407,-0.15807 -0.32483,-0.36044 -0.409,-0.588c-0.082,-0.225 -0.09,-0.495 -0.024,-0.812c0.05,-0.8 0.148,-1.782 0.297,-2.948c0.148,-1.166 0.325,-2.4 0.531,-3.698c0.206,-1.3 0.433,-2.611 0.68,-3.936c0.247,-1.324 0.495,-2.553 0.742,-3.686c-0.479,0.084 -0.94,0.154 -1.385,0.213c-0.37548,0.04469 -0.74738,0.11553 -1.113,0.212c-0.412,0.1 -0.75,0.112 -1.013,0.038c-0.264,-0.075 -0.56,-0.288 -0.89,-0.638c-0.37892,-0.39384 -0.69981,-0.83965 -0.953,-1.324c-0.24247,-0.44589 -0.47717,-0.89596 -0.704,-1.35c-0.198,-0.382 -0.248,-0.636 -0.149,-0.762c0.1,-0.125 0.306,-0.229 0.619,-0.312c0.972,-0.2 2.072,-0.383 3.3,-0.55c2.49743,-0.3358 5.00418,-0.59825 7.517,-0.787c1.09932,-0.08414 2.20021,-0.14648 3.302,-0.187c0.51,0 0.878,0.046 1.1,0.138c0.223,0.091 0.416,0.245 0.581,0.461c0.33,0.384 0.602,0.8 0.816,1.25c0.214,0.45 0.38,0.891 0.495,1.325c0.1,0.383 0.103,0.645 0.012,0.787c-0.09,0.141 -0.391,0.229 -0.902,0.262c-0.643,0.067 -1.344,0.138 -2.102,0.212" fill="#fafcfb" stroke="none" stroke-width="1"/><path d="M235.75,165.744c-0.464,0.146 -0.929,0.289 -1.392,0.437c-1.47946,0.47339 -2.95388,0.96242 -4.423,1.467c-12.954,4.472 -23.708,12.778 -31.894,23.811c-0.37,0.498 -0.729,1.003 -1.082,1.513l-0.245,0.36c-0.28,0.412 -0.556,0.82 -0.824,1.238c-0.068,0.108 -0.136,0.2 -0.204,0.308c-0.296,0.466 -0.585,0.908 -0.866,1.382c-0.034,0.057 -0.069,0.06 -0.103,0.117c-0.325,0.55 -0.641,1.045 -0.948,1.55h-0.002c-0.003,0 -0.006,0.121 -0.009,0.126c-0.133,0.243 -0.263,0.598 -0.393,0.842c-0.149,0.28 -0.301,0.56 -0.447,0.842c-0.102,0.197 -0.2,0.398 -0.3,0.597c-0.7365,1.46367 -1.42322,2.95185 -2.059,4.462c-5.831,-0.051 -10.559,-4.84 -10.559,-10.746v-24.062c0,-3.491 1.669,-6.426 4.221,-8.39c1.943,-2.579 5.018,-4.093 8.474,-4.093h78.431c-3.455,0.505 -6.916,1.159 -10.373,1.897c-1.165,0.248 -2.327,0.347 -3.49,0.608l-0.802,0.182c-1.165,0.263 -2.331,0.533 -3.493,0.813l-0.01,0.002c-1.16847,0.28063 -2.33516,0.56864 -3.5,0.864l-0.16,0.04c-1.445,0.368 -2.887,0.743 -4.324,1.133c-0.383,0.104 -0.764,0.214 -1.147,0.32c-1.136,0.313 -2.27,0.633 -3.4,0.962c-0.507,0.148 -1.014,0.3 -1.521,0.45c-1.0542,0.31509 -2.10623,0.63744 -3.156,0.967" data-paper-data="{&quot;origPos&quot;:null}" fill="#fafcfb" stroke="#000000" stroke-width="0.5" opacity="0.4"/></g></g></svg>