<svg version="1.1" xmlns="http://www.w3.org/2000/svg" xmlns:xlink="http://www.w3.org/1999/xlink" width="90.15168" height="85.707" viewBox="0,0,90.15168,85.707"><g transform="translate(-195.10311,-137.22)"><g data-paper-data="{&quot;isPaintingLayer&quot;:true}" fill-rule="evenodd" stroke-linecap="butt" stroke-linejoin="miter" stroke-miterlimit="10" stroke-dasharray="" stroke-dashoffset="0" style="mix-blend-mode: normal"><path d="M221.004,220.737c0,0.51486 -0.20467,1.00862 -0.56892,1.3725c-0.36425,0.36388 -0.85822,0.56803 -1.37308,0.5675h-9.19c-1.07143,0 -1.94,-0.86857 -1.94,-1.94v-9.627c0,-1.072 0.87,-1.942 1.94,-1.942h9.19c1.073,0 1.942,0.87 1.942,1.942zM274.017,220.737c0,1.073 -0.872,1.94 -1.945,1.94h-9.19c-0.5146,0.00027 -1.0082,-0.20404 -1.37208,-0.56792c-0.36388,-0.36388 -0.56819,-0.85748 -0.56792,-1.37208v-9.627c-0.00053,-0.51486 0.20362,-1.00883 0.5675,-1.37308c0.36388,-0.36426 0.85763,-0.56892 1.3725,-0.56892h9.19c1.073,0 1.945,0.87 1.945,1.942zM202.5,162.714c-0.0326,0.28497 -0.17721,0.54527 -0.40195,0.72349c-0.22474,0.17821 -0.51115,0.25971 -0.79605,0.22651l-4.99,-0.568c-0.59284,-0.06795 -1.01875,-0.60303 -0.952,-1.196l0.994,-8.722c0.03212,-0.28461 0.17617,-0.54474 0.40037,-0.72297c0.2242,-0.17824 0.51011,-0.25992 0.79463,-0.22703l4.991,0.567c0.28476,0.03237 0.54498,0.1766 0.72335,0.40092c0.17837,0.22432 0.26027,0.51035 0.22765,0.79508l-0.992,8.723z" data-paper-data="{&quot;origPos&quot;:null}" fill="#333333" stroke="#000000" stroke-width="0.5"/><path d="M206.912,174.198l-7.264,-0.658c-0.58488,-0.05204 -1.1248,-0.33533 -1.5,-0.787c-0.37866,-0.45018 -0.56125,-1.03325 -0.507,-1.619l2.04,-22.498c0.054,-0.59 0.334,-1.122 0.789,-1.502c0.45029,-0.37752 1.03298,-0.55903 1.618,-0.504l5.24,0.474l-0.08,0.882l-5.24,-0.473c-0.35108,-0.03305 -0.70085,0.0752 -0.97188,0.30081c-0.27103,0.22561 -0.44094,0.54994 -0.47212,0.90119l-2.04,22.499c-0.031,0.354 0.076,0.699 0.304,0.972c0.227,0.272 0.545,0.44 0.899,0.472l7.264,0.657z" fill="#292929" stroke="none" stroke-width="1"/><path d="M278.111,162.714l-0.995,-8.723c-0.06675,-0.59297 0.35916,-1.12805 0.952,-1.196l4.99,-0.567c0.28473,-0.03345 0.57105,0.048 0.79554,0.22631c0.22449,0.17831 0.36861,0.43877 0.40046,0.72368l0.994,8.722c0.06621,0.59246 -0.35885,1.12703 -0.951,1.196l-4.991,0.568c-0.28468,0.03317 -0.57085,-0.04837 -0.79528,-0.22664c-0.22442,-0.17827 -0.36862,-0.43856 -0.40072,-0.72336z" fill="#333333" stroke="none" stroke-width="1"/><path d="M273.617,173.315l7.263,-0.657c0.35129,-0.03146 0.67565,-0.20137 0.90152,-0.47226c0.22587,-0.27089 0.3347,-0.62051 0.30248,-0.97173l-2.04,-22.498c-0.06709,-0.73066 -0.71323,-1.26897 -1.444,-1.203l-5.241,0.473l-0.079,-0.882l5.239,-0.474c0.58565,-0.05524 1.16905,0.12626 1.62,0.504c0.45204,0.37564 0.73505,0.91647 0.786,1.502l2.04,22.498c0.05388,0.58508 -0.12723,1.16756 -0.50337,1.61894c-0.37615,0.45138 -0.91642,0.73455 -1.50163,0.78706l-7.266,0.658z" fill="#292929" stroke="none" stroke-width="1"/><path d="M272.51,198.324c-0.00055,2.10855 -1.70944,3.81789 -3.818,3.819h-56.281c-2.10973,0 -3.82,-1.71027 -3.82,-3.82v-3.565c0,-2.10973 1.71027,-3.82 3.82,-3.82h56.281c2.10933,0.00055 3.819,1.71067 3.819,3.82v3.566z" fill="#333333" stroke="none" stroke-width="1"/><path d="M277.479,211.463c-0.00055,2.10933 -1.71067,3.819 -3.82,3.819h-66.213c-2.10973,0 -3.82,-1.71027 -3.82,-3.82v-11.102c0.00055,-2.10933 1.71067,-3.819 3.82,-3.819h66.214c2.10973,0 3.82,1.71027 3.82,3.82v11.102zM274.294,141.289v49.903c0.00053,1.01329 -0.40176,1.98523 -1.11827,2.70173c-0.7165,0.71651 -1.68845,1.1188 -2.70173,1.11827h-59.844c-1.91556,0.00412 -3.5352,-1.41714 -3.78,-3.317c-0.03,-0.16592 -0.0434,-0.33442 -0.04,-0.503v-49.902c0.00055,-2.1095 1.7105,-3.81945 3.82,-3.82h59.845c2.10888,0.00165 3.81789,1.71112 3.819,3.82" data-paper-data="{&quot;origPos&quot;:null}" fill="#d3362d" stroke="#000000" stroke-width="0.5"/><path d="M276.586,169.571c-0.00055,2.1095 -1.7105,3.81945 -3.82,3.82h-64.937c-2.10973,0 -3.82,-1.71027 -3.82,-3.82v-21.661c0,-2.11 1.71,-3.819 3.82,-3.819h64.939c2.10973,0 3.82,1.71027 3.82,3.82v21.659z" data-paper-data="{&quot;origPos&quot;:null}" fill="#d3362d" stroke="#000000" stroke-width="0.5"/><path d="M212.41,171.715c-2.74017,-0.00386 -4.96024,-2.22483 -4.963,-4.965v-16.04c0.00221,-2.74095 2.22305,-4.96269 4.964,-4.966h56.28c2.74167,0.00221 4.96414,2.22333 4.968,4.965v16.041c-0.00386,2.74167 -2.22634,4.9628 -4.968,4.965h-56.28z" data-paper-data="{&quot;origPos&quot;:null}" fill="#666666" stroke="none" stroke-width="1"/><path d="M267.48,176.426c-0.55367,1.07736 -1.13723,2.13911 -1.75,3.184c-0.306,0.529 -0.606,1.032 -0.874,1.49c-0.493,0.82431 -0.99638,1.64238 -1.51,2.454c0,0.25 -0.024,0.494 -0.07,0.731c-0.10474,0.54172 -0.32921,1.05318 -0.657,1.497c-0.71317,0.99956 -1.8661,1.59205 -3.094,1.59h-37.1c-1.22716,0.00124 -2.37913,-0.59114 -3.092,-1.59c-0.47702,-0.64444 -0.73212,-1.42624 -0.727,-2.228c0,0 -0.848,-1.017 -1.987,-2.453c-1.22722,-1.52326 -2.40939,-3.08227 -3.545,-4.675c-1.75,-2.445 -3.01,-4.583 -2.107,-4.583h57.728c0.9,0 0.052,2.138 -1.216,4.583" fill="#333333" stroke="none" stroke-width="1"/><path d="M211.585,212.104c0,0.82609 -0.66958,1.49581 -1.49567,1.496c-0.82609,0.00018 -1.49597,-0.66924 -1.49634,-1.49533c-0.00037,-0.82609 0.66891,-1.49612 1.495,-1.49667c0.827,0 1.497,0.67 1.497,1.496M272.228,212.104c0,0.82609 -0.66958,1.49581 -1.49567,1.496c-0.82609,0.00018 -1.49597,-0.66924 -1.49633,-1.49533c-0.00037,-0.82609 0.66891,-1.49612 1.495,-1.49667c0.827,0 1.497,0.67 1.497,1.496" data-paper-data="{&quot;origPos&quot;:null}" fill="#ffffff" stroke="#000000" stroke-width="0.5"/><path d="M259.637,206.504c0,0.842 -0.684,1.526 -1.53,1.526h-34.281c-0.84288,-0.00055 -1.52634,-0.68312 -1.528,-1.526v-3.725c0,-0.845 0.686,-1.528 1.528,-1.528h34.283c0.845,0 1.53,0.683 1.53,1.528v3.725z" fill="#dc4437" stroke="none" stroke-width="1"/><path d="M252.296,210.036c0,0.842 -0.684,1.527 -1.527,1.527h-20.436c-0.84328,-0.00055 -1.52689,-0.68373 -1.528,-1.527v-1.553c0.0011,-0.84343 0.68456,-1.5269 1.528,-1.528h20.436c0.843,0 1.527,0.684 1.527,1.528zM244.48,202.143c0,0.484 -0.39,0.878 -0.877,0.878h-7.477c-0.48463,0 -0.8775,-0.39287 -0.8775,-0.8775c0,-0.48463 0.39287,-0.8775 0.8775,-0.8775h7.477c0.488,0 0.878,0.392 0.878,0.877" fill="#333333" stroke="none" stroke-width="1"/><path d="M227.533,209.082c0,0.84 -0.684,1.526 -1.528,1.526h-19.673c-0.84272,-0.00055 -1.52589,-0.68328 -1.527,-1.526v-7.83c0,-0.845 0.683,-1.528 1.527,-1.528h15.853c0.845,0 1.53,0.683 1.53,1.528z" fill="#c0392b" stroke="none" stroke-width="1"/><path d="M224.633,207.492c0,1.528 -0.68,1.528 -1.528,1.528h-14.767c-0.84389,0 -1.528,-0.68411 -1.528,-1.528v-4.843c0,-0.84 0.68,-1.529 1.528,-1.529h11.65c0.85,0 1.873,0.788 2.355,1.529c0.358,0.543 1.427,2.078 1.961,3.452c0.2,0.505 0.33,0.986 0.33,1.391" data-paper-data="{&quot;origPos&quot;:null}" fill="#b2b2b2" stroke="#000000" stroke-width="0.5"/><path d="M224.304,206.101c-0.282,0.29 -0.708,0.29 -1.199,0.29h-14.768c-0.84295,0 -1.52645,-0.68305 -1.527,-1.526v-2.216c0,-0.84 0.68,-1.528 1.527,-1.528h11.653c0.849,0 1.872,0.788 2.355,1.528c0.357,0.543 1.426,2.078 1.96,3.452" fill="#cccccc" stroke="none" stroke-width="1"/><path d="M221.803,206.504c0,0.842 -0.683,1.526 -1.529,1.526h-10.153c-0.84343,0 -1.52779,-0.68257 -1.53,-1.526v-2.102c0.0011,-0.84421 0.68579,-1.528 1.53,-1.528h10.153c0.846,0 1.529,0.684 1.529,1.528z" fill="#e6e6e6" stroke="none" stroke-width="1"/><path d="M219.894,205.427c-0.0011,0.84421 -0.68579,1.528 -1.53,1.528h-6.334c-0.84327,-0.0011 -1.52645,-0.68473 -1.527,-1.528v-0.713c0,-0.845 0.685,-1.528 1.527,-1.528h6.335c0.844,0 1.53,0.683 1.53,1.528v0.713z" fill="#ffffff" stroke="none" stroke-width="1"/><path d="M257.519,201.252c0,-0.845 0.684,-1.528 1.529,-1.528h15.852c0.844,0 1.528,0.683 1.528,1.528v7.83c0,0.841 -0.684,1.526 -1.528,1.526h-19.671c-0.84343,0 -1.52779,-0.68257 -1.53,-1.526z" fill="#c0392b" stroke="none" stroke-width="1"/><path d="M256.599,207.492c0,-0.405 0.13,-0.886 0.33,-1.391c0.532,-1.374 1.603,-2.909 1.962,-3.452c0.482,-0.741 1.505,-1.529 2.355,-1.529h11.648c0.848,0 1.528,0.689 1.528,1.529v4.843c0,0.84 -0.681,1.528 -1.528,1.528h-14.765c-0.85,0 -1.53,0 -1.53,-1.528" data-paper-data="{&quot;origPos&quot;:null}" fill="#b2b2b2" stroke="#000000" stroke-width="0.5"/><path d="M256.928,206.101c0.534,-1.374 1.603,-2.909 1.963,-3.452c0.482,-0.74 1.505,-1.528 2.354,-1.528h11.65c0.847,0 1.527,0.688 1.527,1.528v2.216c0,0.84 -0.681,1.526 -1.527,1.526h-14.767c-0.491,0 -0.917,0 -1.2,-0.29" fill="#cccccc" stroke="none" stroke-width="1"/><path d="M259.43,204.402c0,-0.844 0.684,-1.528 1.527,-1.528h10.156c0.84422,0 1.52889,0.68379 1.53,1.528v2.102c-0.00221,0.84343 -0.68656,1.526 -1.53,1.526h-10.156c-0.843,0 -1.527,-0.684 -1.527,-1.526z" fill="#e6e6e6" stroke="none" stroke-width="1"/><path d="M261.338,205.427v-0.713c0,-0.845 0.685,-1.528 1.53,-1.528h6.337c0.842,0 1.526,0.683 1.526,1.528v0.713c0,0.843 -0.684,1.528 -1.526,1.528h-6.336c-0.84422,0 -1.5289,-0.68379 -1.53,-1.528z" fill="#ffffff" stroke="none" stroke-width="1"/><path d="M245.774,214.441c0,0.22349 -0.08885,0.4378 -0.24697,0.59574c-0.15812,0.15794 -0.37254,0.24652 -0.59603,0.24626h-8.84c-0.46475,0 -0.8415,-0.37675 -0.8415,-0.8415c0,-0.46475 0.37675,-0.8415 0.8415,-0.8415h8.84c0.465,0 0.843,0.378 0.843,0.841" fill="#c0392b" stroke="none" stroke-width="1"/><path d="M267.48,176.426c-0.55367,1.07736 -1.13723,2.13911 -1.75,3.184h-50.289c-0.81035,-1.04554 -1.59984,-2.10708 -2.368,-3.184h54.405zM264.856,181.1c-0.86,1.437 -1.511,2.454 -1.511,2.454c0,0.25 -0.022,0.494 -0.07,0.731h-44.601c-0.04579,-0.24097 -0.0689,-0.48571 -0.069,-0.731c0,0 -0.846,-1.017 -1.985,-2.453h48.236zM262.618,185.783c-0.71321,0.99835 -1.86507,1.5903 -3.092,1.589h-37.1c-1.22774,0.00138 -2.38038,-0.59096 -3.094,-1.59h43.286z" fill="#1a1a1a" stroke="none" stroke-width="1"/><path d="M231.83,194.95v1.526c0,0.84 -0.687,1.529 -1.528,1.529h-7.769c-0.841,0 -1.53,-0.688 -1.53,-1.529v-1.526c0,-0.574 0.322,-1.078 0.797,-1.329c0.213,-0.13 0.465,-0.2 0.733,-0.2h7.769c0.13,0 0.26,0.016 0.383,0.054c0.67345,0.17291 1.14449,0.77971 1.145,1.475" fill="#333333" stroke="none" stroke-width="1"/><path d="M230.685,193.476v1.665c0,0.839 -0.687,1.527 -1.529,1.527h-5.829c-0.84,0 -1.527,-0.688 -1.527,-1.527v-1.52c0.22133,-0.13261 0.47499,-0.20148 0.733,-0.199h7.769c0.13,0 0.26,0.015 0.383,0.054" fill="#1a1a1a" stroke="none" stroke-width="1"/><path d="M259.112,194.95v1.526c0,0.84 -0.688,1.529 -1.53,1.529h-7.768c-0.84321,-0.0022 -1.5259,-0.68579 -1.527,-1.529v-1.526c0,-0.574 0.32,-1.078 0.793,-1.329c0.216,-0.13 0.467,-0.2 0.734,-0.2h7.769c0.13,0 0.26,0.016 0.384,0.054c0.67345,0.17291 1.14449,0.77971 1.145,1.475" fill="#333333" stroke="none" stroke-width="1"/><path d="M257.967,193.476v1.665c0,0.839 -0.688,1.527 -1.528,1.527h-5.83c-0.84,0 -1.529,-0.688 -1.529,-1.527v-1.52c0.216,-0.13 0.468,-0.199 0.734,-0.199h7.769c0.13,0 0.26,0.015 0.384,0.054M250.166,206.956v0.774c0,0.847 -0.688,1.527 -1.528,1.527h-16.424c-0.841,0 -1.53,-0.68 -1.53,-1.527v-0.774z" fill="#1a1a1a" stroke="none" stroke-width="1"/><path d="M275.57,197.336c0,0.37003 -0.29997,0.67 -0.67,0.67h-11.613c-0.36964,-0.00055 -0.669,-0.30036 -0.669,-0.67c0.0011,-0.36925 0.30075,-0.668 0.67,-0.668h11.612c0.368,0 0.67,0.3 0.67,0.668M257.52,200.612c0,0.353 -0.288,0.64 -0.642,0.64h-33.224c-0.35429,0 -0.6415,-0.28721 -0.6415,-0.6415c0,-0.35429 0.28721,-0.6415 0.6415,-0.6415h33.224c0.354,0 0.642,0.289 0.642,0.643M272.51,141.194c0,0.79 -0.639,1.43 -1.43,1.43h-33.295c-0.79087,0 -1.432,-0.64113 -1.432,-1.432c0,-0.79087 0.64113,-1.432 1.432,-1.432h33.295c0.79,0 1.43,0.642 1.43,1.434" data-paper-data="{&quot;origPos&quot;:null}" fill="#ed9c98" stroke="#000000" stroke-width="0.5"/><path d="M214.619,191.503c0.37259,-0.1578 0.66713,-0.45729 0.8187,-0.83246c0.15157,-0.37517 0.14772,-0.79522 -0.0107,-1.16754l-5.08,-11.955c-0.33037,-0.77473 -1.22475,-1.13678 -2.001,-0.81l-1.536,0.649v13.805c-0.00333,0.16825 0.01007,0.3364 0.04,0.502l7.77,-0.19M266.442,191.503c-0.779,-0.328 -1.14,-1.228 -0.81,-2l5.082,-11.955c0.3312,-0.77444 1.22546,-1.13626 2.002,-0.81l1.535,0.649v13.805c0,0.175 -0.008,0.342 -0.04,0.502l-7.769,-0.19" data-paper-data="{&quot;origPos&quot;:null}" fill="#dc4437" stroke="#000000" stroke-width="0.5"/><path d="M272.23,145.734v4.957c0,0.848 -0.689,1.528 -1.529,1.528h-60.581c-0.8384,0.00005 -1.52069,-0.67465 -1.53,-1.513v-4.759c1.08099,-0.87588 2.43071,-1.35262 3.822,-1.35h56.283c1.314,0 2.534,0.418 3.535,1.137" fill="#4d4d4d" stroke="none" stroke-width="1"/><path d="M272.51,166.75v-16.045c0,-0.512 -0.098,-1 -0.282,-1.452c-0.572,-1.389 -1.938,-2.368 -3.535,-2.368h-56.284c-2.10321,0.00162 -3.8101,1.70182 -3.82,3.805v16.059c0.00165,2.10895 1.71205,3.81755 3.821,3.817h56.284c2.10723,-0.00165 3.81489,-1.70978 3.816,-3.817zM272.228,145.735c1.61432,1.14103 2.57498,2.99413 2.577,4.971v16.043c-0.00496,3.37319 -2.73882,6.10615 -6.112,6.11h-56.283c-3.37341,-0.00331 -6.10759,-2.73659 -6.112,-6.11v-16.042c-0.00241,-1.85307 0.84122,-3.60587 2.291,-4.76c1.0806,-0.87588 2.43001,-1.35263 3.821,-1.35h56.284c1.26867,-0.00179 2.50563,0.39642 3.535,1.138z" fill="#333333" stroke="none" stroke-width="1"/><path d="M229.729,168.978c0,0.845 -0.684,1.528 -1.528,1.528h-12.207c-0.40499,-0.00027 -0.79328,-0.1614 -1.07946,-0.44796c-0.28618,-0.28655 -0.44681,-0.67506 -0.44654,-1.08004v-4.965c0,-0.845 0.685,-1.526 1.526,-1.526h12.207c0.844,0 1.528,0.681 1.528,1.526zM266.743,168.978c0,0.845 -0.686,1.528 -1.527,1.528h-12.206c-0.40543,0.00027 -0.79433,-0.1606 -1.0811,-0.44718c-0.28677,-0.28659 -0.4479,-0.67539 -0.4479,-1.08082v-4.965c0,-0.845 0.685,-1.526 1.529,-1.526h12.205c0.841,0 1.527,0.681 1.527,1.526v4.965z" fill="#4d4d4d" stroke="none" stroke-width="1"/><path d="M242.701,168.596c0.00027,0.15187 -0.05988,0.29763 -0.16718,0.40511c-0.1073,0.10748 -0.25295,0.16789 -0.40482,0.16789h-17.25c-0.31679,0 -0.5739,-0.25622 -0.575,-0.573c0,-0.316 0.258,-0.572 0.575,-0.572h17.25c0.317,0 0.572,0.256 0.572,0.572" fill="#333333" stroke="none" stroke-width="1"/><path d="M225.438,168.443c0.13685,0.34324 -0.03003,0.73247 -0.373,0.87l-7.624,3.052c-0.3361,0.1104 -0.70011,-0.05952 -0.83131,-0.38805c-0.1312,-0.32853 0.01562,-0.70246 0.33531,-0.85395l7.624,-3.051c0.1644,-0.06635 0.34847,-0.06452 0.51152,0.00509c0.16306,0.06961 0.29168,0.20128 0.35748,0.36591M270.016,168.596c0,0.31646 -0.25654,0.573 -0.573,0.573h-17.25c-0.30688,-0.01283 -0.54907,-0.26535 -0.54907,-0.5725c0,-0.30715 0.24219,-0.55967 0.54907,-0.5725h17.25c0.318,0 0.573,0.256 0.573,0.572" fill="#333333" stroke="none" stroke-width="1"/><path d="M252.752,168.443c0.13718,0.34241 -0.02821,0.73129 -0.37,0.87l-7.626,3.052c-0.33664,0.11256 -0.70264,-0.05696 -0.83451,-0.3865c-0.13187,-0.32954 0.01615,-0.70475 0.3375,-0.8555l7.625,-3.051c0.16424,-0.0666 0.34828,-0.06488 0.51125,0.00478c0.16297,0.06966 0.29139,0.20148 0.35676,0.36622" fill="#333333" stroke="none" stroke-width="1"/><path d="M255.45,173.02c0,0.65 -0.527,1.178 -1.177,1.178h-26.677c-0.65004,0 -1.177,-0.52696 -1.177,-1.177c0,-0.65004 0.52696,-1.177 1.177,-1.177h26.677c0.65,0 1.176,0.525 1.176,1.176" fill="#1a1a1a" stroke="none" stroke-width="1"/></g></g></svg>